<?xml version="1.0" encoding="utf-8"?>
<!-- Generator: Adobe Illustrator 27.5.0, SVG Export Plug-In . SVG Version: 6.00 Build 0)  -->
<svg version="1.1" xmlns="http://www.w3.org/2000/svg" xmlns:xlink="http://www.w3.org/1999/xlink" x="0px" y="0px"
	 viewBox="0 0 750 500" style="enable-background:new 0 0 750 500;" xml:space="preserve">
<g id="BACKGROUND">
	<g>
		<rect style="fill:#FFFFFF;" width="750" height="500"/>
	</g>
</g>
<g id="OBJECTS">
	<g>
		<path style="opacity:0.2;fill:#B5D0FF;" d="M75.252,413.885c0,0-63.467-73.968,8.027-154.461
			c57.628-64.882,39.228-89.974,36.571-133.726c-2.249-37.034,39.748-91.795,102.597-94.528
			c103.014-4.48,132.248,81.218,186.941,78.876c54.693-2.342,75.805-74.081,139.331-66.536
			c117.881,14,101.993,125.724,84.813,209.233c-17.18,83.508,34.441,112.022-2.706,161.209"/>
		<path style="opacity:0.2;fill:#B5D0FF;" d="M416.82,98.556c4.507,0.985,9.2,0.469,13.518-1.156
			c6.402-2.409,17.059-7.427,25.455-16.37c12.88-13.72,16.515-14.093,19.866-19.413c3.351-5.32-0.009-17.36-23.809-7.84
			C429.786,62.602,390.17,92.731,416.82,98.556z"/>
		<path style="opacity:0.2;fill:#B5D0FF;" d="M66.768,272.604c3.845-4.484,7.821-8.863,11.881-13.153
			c6.357-6.716,14.724-16.773,15.724-24.088c1.636-11.97-10.303-11.113-21.123-0.466C54.935,252.92,48.114,294.359,66.768,272.604z"
			/>
	</g>
	<g>
		<g>
			<g>
				<path style="fill:#B5D0FF;" d="M205.718,370.59c3.116-8.008,3.677-16.833,2.92-25.325c-0.611-6.85-1.788-14.145-4.389-20.534
					c-2.306-5.664-6.857-3.216-11.249-5.469c-2.806-1.44-3.792-4.991-3.793-8.145c-0.002-3.044,0.643-6.154-0.034-9.166
					c-0.5-2.223-2.076-4.778-4.372-5.483c-2.853-0.876-5.296,1.958-7.958-0.316c-1.241-1.06-1.903-2.643-2.364-4.209
					c-1.084-3.683-2.242-7.257-3.942-10.716c-1.536-3.126-4.223-6.537-7.665-5.999c-3.302,0.516-4.895,4.363-5.223,7.689
					c-0.791,8.006,2.185,16.038,6.793,22.631c1.257,1.798,2.656,3.552,3.362,5.63c0.705,2.078,0.561,4.618-1,6.161
					c-0.84,0.831-1.988,1.283-2.869,2.07c-2.443,2.185-2.061,6.225-0.44,9.074c4.173,7.334,13.117,6.397,19.163,11.348
					c6.854,5.613,14.97,16.486,13.646,25.964"/>
			</g>
			
				<path style="opacity:0.5;fill:none;stroke:#FFFFFF;stroke-width:0.891;stroke-linecap:round;stroke-linejoin:round;stroke-miterlimit:10;" d="
				M198.606,357.501c0.097-11.588-3.644-23.42-10.471-33.117c-4.254-6.042-9.612-11.21-14.095-17.082
				c-4.483-5.873-9.866-13.963-9.866-25.873"/>
		</g>
		<g>
			<path style="fill:#B5D0FF;" d="M342.219,413.874c-67.155-0.034-163.018,0.212-225.506-0.034c-2.1-0.008-8.813-2.209,2.592-9.564
				c9.659-6.228,40.189-0.625,40.189-0.625s-7.107-2.849-7.074-6.526c0.033-3.677,2.82-6.908,6.166-8.434
				c3.346-1.525,7.157-1.636,10.828-1.426c7.47,0.428,14.869,2.083,21.809,4.88c-2.945-1.811-3.843-6.251-1.834-9.064
				c2.01-2.813,6.501-3.403,9.169-1.205c-4.689-6.351-11.939-34.495,10.342-46.898c27.927-15.546,49.136-2.753,53.662,6.604
				c2.296-9.184,12.833-16.138,19.774-17.862c15.829-3.93,26.14-2.765,40.917,4.136c5.228,2.441,12.227,10.779,15.702,15.385
				c5.443,7.213,6.291,16.806,6.591,25.837c0.225,6.779,0.256,13.564,0.091,20.344"/>
		</g>
		<g>
			<path style="fill:#B5D0FF;" d="M362.44,413.874c67.155-0.034,163.018,0.212,225.506-0.034c2.1-0.008,8.813-2.209-2.592-9.564
				c-9.659-6.228-40.189-0.625-40.189-0.625s7.107-2.849,7.074-6.526c-0.033-3.677-2.82-6.908-6.166-8.434
				c-3.346-1.525-7.156-1.636-10.828-1.426c-7.47,0.428-14.869,2.083-21.809,4.88c2.945-1.811,3.843-6.251,1.834-9.064
				c-2.01-2.813-6.501-3.403-9.169-1.205c4.689-6.351,11.939-34.495-10.342-46.898c-27.927-15.546-49.136-2.753-53.662,6.604
				c-2.296-9.184-12.833-16.138-19.774-17.862c-15.829-3.93-26.14-2.765-40.917,4.136c-5.228,2.441-12.227,10.779-15.703,15.385
				c-5.443,7.213-6.291,16.806-6.591,25.837c-0.225,6.779-0.256,13.564-0.091,20.344"/>
		</g>
		<g>
			<path style="fill:#9FC1F4;" d="M315.309,413.885c0,0-37.415,0-46.485,0c-9.07,0-7.598-10.756,17.636-5.971
				c-6.191-2.83-6.227-6.619-5.702-7.63c0.483-0.929,2.25-1.526,3.293-1.436c3.209,0.276,5.646,2.243,8.458,3.814
				c-5.088-3.309-8.25-9.382-8.044-15.447c0.057-1.668,0.417-3.456,1.643-4.588c1.378-1.272,3.629-2.119,5.469-1.754
				c3.405,0.676,9.665,6.361,12.16,8.775c-12.715-11.695-17.556-30.124-9.416-34.328c13.704-7.077,24.056,33.015,24.056,33.015
				s-6.816-30.127,4.617-30.304c11.433-0.177,2.137,34.999,2.137,34.999"/>
		</g>
		<g>
			<path style="fill:#9FC1F4;" d="M396.885,413.885c0,0,43.2,0,53.672,0c10.473,0,8.773-12.419-20.362-6.894
				c7.148-3.267,7.19-7.642,6.584-8.81c-0.557-1.072-2.598-1.762-3.802-1.659c-3.706,0.318-6.519,2.59-9.766,4.404
				c5.874-3.821,9.525-10.832,9.288-17.836c-0.065-1.926-0.482-3.99-1.897-5.297c-1.591-1.469-4.191-2.447-6.315-2.025
				c-3.932,0.781-11.159,7.345-14.04,10.132c14.68-13.504,20.27-34.781,10.872-39.635c-15.822-8.172-27.775,38.12-27.775,38.12
				s7.87-34.785-5.33-34.989c-13.201-0.204-2.468,40.41-2.468,40.41"/>
		</g>
	</g>
	<g>
		<g>
			<path style="fill:#D6D4FF;" d="M597.176,391.807c0,0-48.396-65.377-33.209-79.339
				C579.153,298.505,601.346,347.688,597.176,391.807z"/>
			<g>
				<g>
					<path style="fill:#7878C4;" d="M568.5,320.211c8.636,13.28,15.584,27.542,20.63,42.562c2.193,6.527,4.071,13.154,5.623,19.863
						c1.456,6.294,2.406,12.673,3.711,18.994c0.069,0.332,0.626,0.263,0.599-0.081c-1.053-13.307-4.708-26.871-8.982-39.466
						c-5.066-14.929-11.935-29.285-20.973-42.227C568.851,319.491,568.25,319.828,568.5,320.211L568.5,320.211z"/>
				</g>
			</g>
			<g>
				<g>
					<path style="fill:#7878C4;" d="M567.247,329.164c4.094,2.9,7.965,6.203,12.114,8.996c0.261,0.176,0.499-0.197,0.317-0.411
						c-3.108-3.654-7.826-7.02-12.126-9.106C567.2,328.471,566.93,328.939,567.247,329.164L567.247,329.164z"/>
				</g>
			</g>
			<g>
				<g>
					<path style="fill:#7878C4;" d="M568.745,333.079c4.094,2.9,7.965,6.204,12.114,8.996c0.261,0.176,0.499-0.198,0.317-0.411
						c-3.108-3.654-7.826-7.02-12.126-9.106C568.698,332.387,568.428,332.855,568.745,333.079L568.745,333.079z"/>
				</g>
			</g>
		</g>
		<g>
			<path style="fill:#D6D4FF;" d="M607.058,384.321c0,0,46.66-66.627,31.111-80.185C622.62,290.577,601.728,340.327,607.058,384.321
				z"/>
			<g>
				<g>
					<path style="fill:#7878C4;" d="M633.228,311.649c-9.297,14.116-16.094,29.764-20.82,45.967
						c-3.911,13.406-7.054,27.794-7.525,41.803c-0.011,0.335,0.546,0.426,0.598,0.081c1.008-6.627,1.695-13.287,2.895-19.889
						c1.306-7.181,2.976-14.292,5.001-21.304c4.708-16.301,11.573-31.85,20.459-46.304
						C634.074,311.616,633.476,311.274,633.228,311.649L633.228,311.649z"/>
				</g>
			</g>
			<g>
				<g>
					<path style="fill:#0E7C74;" d="M608.414,352.414c-0.235,5.321-0.128,11.387,1.09,16.597c0.069,0.296,0.503,0.218,0.514-0.07
						c0.104-2.574-0.242-5.198-0.406-7.767c-0.186-2.918-0.284-5.853-0.594-8.76C608.978,352.034,608.432,352.018,608.414,352.414
						L608.414,352.414z"/>
				</g>
			</g>
		</g>
		<g>
			<path style="fill:#A29EE5;" d="M603.409,360.696c0,0-46.959-66.416-31.472-80.044
				C587.425,267.024,608.54,316.679,603.409,360.696z"/>
			<g>
				<g>
					<path style="fill:#7878C4;" d="M576.305,288.499c16.294,26.092,25.354,55.919,28.447,86.421
						c0.621,6.121,0.881,12.257,1.342,18.388c0.029,0.387,0.6,0.397,0.609,0c0.282-11.782-1.218-23.797-3.213-35.384
						c-2.593-15.062-6.74-29.896-12.752-43.96c-3.847-9-8.424-17.655-13.826-25.82C576.664,287.77,576.063,288.113,576.305,288.499
						L576.305,288.499z"/>
				</g>
			</g>
		</g>
		<g>
			<path style="fill:#8C8CDD;" d="M600.593,380.07c0,0,28.899-39.716,19.66-48.072C611.013,323.642,597.856,353.45,600.593,380.07z"
				/>
			<g>
				<g>
					<path style="fill:#7878C4;" d="M617.066,336.413c-7.22,10.446-12.124,22.365-15.152,34.666
						c-2.251,9.142-4.097,19.193-3.698,28.657c0.017,0.401,0.563,0.381,0.609,0c1.165-9.558,1.843-18.961,4.173-28.358
						c3.042-12.271,7.943-23.905,14.675-34.61C617.917,336.381,617.32,336.045,617.066,336.413L617.066,336.413z"/>
				</g>
			</g>
		</g>
		<g>
			<polygon style="fill:#BFB8F4;" points="619.965,378.156 619.737,379.674 619.259,382.901 614.643,413.885 587.106,413.885 
				582.49,382.901 582.012,379.674 581.784,378.156 			"/>
			<polygon style="fill:#7878C4;" points="619.737,379.674 619.259,382.901 582.49,382.901 582.012,379.674 			"/>
			<path style="fill:#A29EE5;" d="M620.501,381.066h-39.255c-1.258,0-2.278-1.02-2.278-2.278l0,0c0-1.258,1.02-2.278,2.278-2.278
				h39.255c1.258,0,2.278,1.02,2.278,2.278l0,0C622.778,380.047,621.759,381.066,620.501,381.066z"/>
		</g>
	</g>
	<g>
		<polygon style="fill:#6F3FBA;" points="392.229,404.542 313.04,404.542 321.641,370.724 323.591,363.055 327.375,348.203 
			377.893,348.203 381.678,363.055 383.627,370.724 		"/>
		<polygon style="fill:#5730A0;" points="383.627,370.724 321.641,370.724 323.591,363.055 381.678,363.055 		"/>
		<path style="fill:#854DCE;" d="M520.256,161.811v193.116c0,4.594-3.729,8.323-8.323,8.323H193.346
			c-4.606,0-8.323-3.729-8.323-8.323V161.811c0-4.594,3.717-8.323,8.323-8.323h318.587
			C516.527,153.488,520.256,157.217,520.256,161.811z"/>
		<path style="fill:#774CC9;" d="M422.617,413.885h-139.97c-3.359,0-6.081-2.723-6.081-6.081l0,0c0-3.359,2.723-6.081,6.081-6.081
			h139.97c3.359,0,6.081,2.723,6.081,6.081l0,0C428.698,411.162,425.975,413.885,422.617,413.885z"/>
		<rect x="191.155" y="159.597" style="fill:#9999F1;" width="322.348" height="170.237"/>
		<path style="fill:#5730A0;" d="M352.616,353.729L352.616,353.729c-4.251,0-7.729-3.478-7.729-7.729l0,0
			c0-4.251,3.478-7.729,7.729-7.729l0,0c4.251,0,7.729,3.478,7.729,7.729l0,0C360.345,350.252,356.867,353.729,352.616,353.729z"/>
		<g>
			<g>
				<rect x="393.475" y="307.563" style="opacity:0.5;fill:#5146AF;" width="5.731" height="12.507"/>
				<rect x="399.998" y="307.563" style="opacity:0.5;fill:#5146AF;" width="5.731" height="12.507"/>
				<rect x="406.522" y="307.563" style="opacity:0.5;fill:#5146AF;" width="5.731" height="12.507"/>
				<rect x="289.104" y="307.563" style="fill:#5146AF;" width="5.731" height="12.507"/>
				<rect x="295.627" y="307.563" style="fill:#5146AF;" width="5.731" height="12.507"/>
				<rect x="302.15" y="307.563" style="fill:#5146AF;" width="5.731" height="12.507"/>
				<rect x="308.674" y="307.563" style="fill:#5146AF;" width="5.731" height="12.507"/>
				<rect x="315.197" y="307.563" style="fill:#5146AF;" width="5.731" height="12.507"/>
				<rect x="321.72" y="307.563" style="fill:#5146AF;" width="5.731" height="12.507"/>
				<rect x="328.243" y="307.563" style="fill:#5146AF;" width="5.731" height="12.507"/>
				<rect x="334.766" y="307.563" style="fill:#5146AF;" width="5.731" height="12.507"/>
				<rect x="341.29" y="307.563" style="opacity:0.5;fill:#5146AF;" width="5.731" height="12.507"/>
				<rect x="347.813" y="307.563" style="opacity:0.5;fill:#5146AF;" width="5.731" height="12.507"/>
				<rect x="354.336" y="307.563" style="opacity:0.5;fill:#5146AF;" width="5.731" height="12.507"/>
				<rect x="360.859" y="307.563" style="opacity:0.5;fill:#5146AF;" width="5.731" height="12.507"/>
				<rect x="367.382" y="307.563" style="opacity:0.5;fill:#5146AF;" width="5.731" height="12.507"/>
				<rect x="373.906" y="307.563" style="opacity:0.5;fill:#5146AF;" width="5.731" height="12.507"/>
				<rect x="380.429" y="307.563" style="opacity:0.5;fill:#5146AF;" width="5.731" height="12.507"/>
				<rect x="386.952" y="307.563" style="opacity:0.5;fill:#5146AF;" width="5.731" height="12.507"/>
			</g>
			
				<rect x="287.909" y="306.15" style="fill:none;stroke:#5146AF;stroke-width:0.75;stroke-miterlimit:10;" width="125.998" height="15.334"/>
		</g>
		<g>
			<path style="opacity:0.25;fill:#5146AF;" d="M294.989,172.415c-1.574,0-2.849,1.276-2.849,2.849v120.101
				c0,1.574,1.276,2.849,2.849,2.849h120.299c1.574,0,2.849-1.276,2.849-2.849v-83.73l-39.221-39.221H294.989z"/>
			<path style="fill:#5146AF;" d="M290.758,168.184c-1.574,0-2.849,1.276-2.849,2.849v120.101c0,1.574,1.276,2.849,2.849,2.849
				h120.299c1.574,0,2.849-1.276,2.849-2.849v-83.73l-39.221-39.221H290.758z"/>
			<path style="fill:#332E99;" d="M377.536,207.404h36.371l-39.221-39.221v36.371C374.687,206.128,375.962,207.404,377.536,207.404z
				"/>
			<polygon style="fill:#9F9FF4;" points="352.668,193.299 334.915,211.577 341.694,211.577 341.694,241.597 363.643,241.597 
				363.643,211.577 370.422,211.577 			"/>
			<polygon style="fill:#9F9FF4;" points="384.789,235.625 384.789,259.347 320.548,259.347 320.548,235.625 330.88,235.625 
				330.88,249.305 374.457,249.305 374.457,235.625 			"/>
		</g>
		<linearGradient id="SVGID_1_" gradientUnits="userSpaceOnUse" x1="394.7788" y1="151.2444" x2="394.7788" y2="362.1586">
			<stop  offset="0" style="stop-color:#FFFFFF"/>
			<stop  offset="1" style="stop-color:#FFFFFF;stop-opacity:0"/>
		</linearGradient>
		<polygon style="opacity:0.2;fill:url(#SVGID_1_);" points="376.326,363.096 353.684,363.096 413.232,153.488 435.874,153.488 		
			"/>
		
			<linearGradient id="SVGID_00000172426004092146431790000003686986115504754080_" gradientUnits="userSpaceOnUse" x1="438.9698" y1="151.2444" x2="438.9698" y2="362.1586">
			<stop  offset="0" style="stop-color:#FFFFFF"/>
			<stop  offset="1" style="stop-color:#FFFFFF;stop-opacity:0"/>
		</linearGradient>
		<polygon style="opacity:0.2;fill:url(#SVGID_00000172426004092146431790000003686986115504754080_);" points="433.214,363.096 
			385.177,363.096 444.725,153.488 492.762,153.488 		"/>
	</g>
	<g>
		<g>
			<g>
				<path style="fill:#B5D0FF;" d="M112.262,377.731c3.158-10.876,0.812-22.604-2.918-33.297c-0.897-2.57-1.923-5.195-3.843-7.124
					c-0.982-0.987-2.341-1.796-3.706-1.519c-2.002,0.406-2.844,2.791-3.07,4.822c-1.425,12.82,7.023,24.571,9.16,37.292"/>
			</g>
			<g>
				<path style="fill:#B5D0FF;" d="M121.255,372.271c0.617-3.229,1.479-6.444,3.012-9.351c1.533-2.908,3.783-5.508,6.691-7.041
					c1.291-0.68,3.013-1.089,4.104-0.121c1.199,1.064,0.813,3.025,0.104,4.463c-3.88,7.874-13.794,11.403-17.565,19.33"/>
			</g>
			<g>
				<path style="fill:#B5D0FF;" d="M116.679,378.695c2.46-4.592,4.835-9.282,6.192-14.311c1.358-5.03,1.647-10.472-0.051-15.398
					c-0.524-1.52-1.827-3.258-3.346-2.734c-0.56,0.193-0.973,0.665-1.331,1.137c-2.83,3.725-3.916,8.483-4.428,13.133
					c-0.512,4.65-0.527,9.371-1.549,13.936c-0.152,0.68-0.343,1.388-0.822,1.894c-0.479,0.507-1.333,0.726-1.881,0.295
					c-0.307-0.242-0.458-0.629-0.577-1.001c-0.65-2.034-10.737-22.978-19.876-24.449c-0.739-0.119-1.496-0.201-2.237-0.078
					c-11.459,1.905,14.357,25.851,14.551,29.416c-9.341-8.007-11.32-9.482-15.572-10.249c-3.277-0.591-8.986,2.315-7.108,6.321
					c1.299,2.771,4.542,4.009,7.543,4.608c3.279,0.654,6.649,0.864,9.865,1.777c3.216,0.913,6.38,2.673,8.017,5.588"/>
			</g>
		</g>
		<path style="fill:#9999F1;" d="M90.886,382.617c1.748,0,3.423,0.299,4.993,0.829c0.378-13.05,11.068-23.515,24.21-23.515
			c13.381,0,24.228,10.847,24.228,24.228c0,0.612-0.03,1.217-0.075,1.818c2.338-3.944,6.625-6.596,11.542-6.596
			c7.412,0,13.421,6.009,13.421,13.422c0,1.051-0.133,2.069-0.361,3.051c1.384-0.771,2.976-1.214,4.673-1.214
			c5.315,0,9.623,4.308,9.623,9.623c0,5.315-4.308,9.623-9.623,9.623c-5.314,0-75.862,0-82.63,0c-8.634,0-15.634-7-15.634-15.634
			S82.252,382.617,90.886,382.617z"/>
	</g>
	<line style="fill:none;stroke:#DFDBF8;stroke-miterlimit:10;" x1="59.945" y1="413.885" x2="645.334" y2="413.885"/>
	<g>
		<ellipse style="opacity:0.5;fill:#B5D0FF;" cx="234.873" cy="440.944" rx="45.267" ry="6.887"/>
		<g>
			<g>
				<path style="fill:#F9DACA;" d="M236.247,422.626c-0.066,2.308-1.37,5.716-1.37,5.716l0.858,4.736l2.713,0.749l6.244-7.333
					c0,0-0.111-3.678-0.23-3.58L236.247,422.626z"/>
				<path style="fill:#5146AF;" d="M259.75,440.058c-0.091,0.101-0.212,0.192-0.364,0.293c-1.497,0.9-5.827,1.315-8.912,1.264
					c-3.399-0.061-7.071-1.315-8.548-1.892c-1.477-0.577-7.111-0.223-7.739-0.961c-0.627-0.738-0.324-3.095-0.324-3.095
					c-0.556-2.883,0.101-7.364,0.607-7.587c0.516-0.223,0.799,1.649,1.234,2.246c0.415,0.617,1.71,1.345,3.197,0.435
					c1.477-0.91,1.77-3.166,3.53-3.814c1.75-0.647,2.549-0.415,2.549-0.415c2.074,0.931,5.574,4.744,7.87,6.15
					s5.564,2.246,6.201,2.701s0.536,1.699,0.536,1.699S260.721,438.945,259.75,440.058z"/>
				<path style="fill:#363193;" d="M259.75,440.058c-0.091,0.101-0.212,0.192-0.364,0.293c-1.497,0.9-5.827,1.315-8.912,1.264
					c-3.399-0.061-7.071-1.315-8.548-1.892c-1.477-0.577-7.111-0.223-7.739-0.961c-0.627-0.738-0.324-3.095-0.324-3.095
					c1.74-0.172,6.029,0.587,8.275,1.123c2.246,0.536,3.156,2.023,9.832,2.053c6.676,0.04,7.617-1.76,7.617-1.76
					S260.721,438.945,259.75,440.058z"/>
			</g>
			<g>
				<path style="fill:#F9DACA;" d="M209.394,420.22c-0.078,2.695-1.446,9.421-1.446,9.421l1.002,5.531l3.168,0.875l7.292-8.563
					c0,0,0.558-5.581,0.42-5.467L209.394,420.22z"/>
				<path style="fill:#5146AF;" d="M236.997,443.323c-0.106,0.118-0.248,0.225-0.425,0.343c-1.749,1.051-6.805,1.536-10.408,1.477
					c-3.969-0.071-8.258-1.536-9.982-2.209c-1.725-0.673-8.305-0.26-9.038-1.122c-0.732-0.862-0.378-3.615-0.378-3.615
					c-0.65-3.367,0.118-8.6,0.709-8.86c0.603-0.26,0.933,1.926,1.441,2.623c0.484,0.721,1.997,1.571,3.733,0.508
					c1.725-1.063,2.067-3.698,4.123-4.454c2.044-0.756,2.977-0.484,2.977-0.484c2.422,1.087,6.509,5.541,9.191,7.183
					s6.497,2.623,7.242,3.154c0.744,0.532,0.626,1.985,0.626,1.985S238.131,442.024,236.997,443.323z"/>
				<path style="fill:#363193;" d="M236.997,443.323c-0.106,0.118-0.248,0.225-0.425,0.343c-1.749,1.051-6.805,1.536-10.408,1.477
					c-3.969-0.071-8.258-1.536-9.982-2.209c-1.725-0.673-8.305-0.26-9.038-1.122c-0.732-0.862-0.378-3.615-0.378-3.615
					c2.032-0.201,7.041,0.685,9.664,1.311c2.623,0.626,3.686,2.363,11.483,2.398c7.797,0.047,8.896-2.056,8.896-2.056
					S238.131,442.024,236.997,443.323z"/>
			</g>
			<path style="fill:#383493;" d="M252.518,244.659c0,0,4.488-2.965,0.845-8.028c-1.869-2.598-0.341-3.756-1.171-5.853
				c-0.829-2.098-1.707-2.195-1.317-4.341c0.39-2.146,0-2.244-0.781-3.219c-0.78-0.975,1.63-2.74,0.216-4.301
				c-1.415-1.561-2.543-0.768-2.85-1.748c-0.562-1.791,1.366-2.341,0-3.854c-1.366-1.512-1.61-0.976-2.293-3.219
				c-0.683-2.244-0.452-4.815-2.138-7.423c-1.939-3-1.277-2.646-3.765-4.89c-2.488-2.244-1.235-3.463-3.625-5.609
				c-2.78-2.496-6.618-2.126-8.764-0.907c-0.235,0.133-0.448,0.254-0.643,0.363c-1.025,0.574-2.246,0.663-3.337,0.228
				c-0.785-0.313-1.806-0.556-2.849-0.347c-2.195,0.439-0.975,2-3.171,3.024c-2.672,1.247-4.259-0.541-5.027,4.574
				c-0.107,0.712-0.462,1.375-0.982,1.873c-1.821,1.741-3.014,1.39-2.917,4.334c0.097,2.976,1.707,3.171,0.975,5.219
				c-0.732,2.049-1.902,2.81-2.536,5.405c-0.634,2.595,1.024,1.912,0.878,4.351c-0.146,2.439-1.414,2.488-0.049,4.146
				c1.366,1.659,1.805,2.098,1.317,3.561c-0.488,1.463-1.659,2.634-1.561,4.049c0.097,1.415,0.88,1.219-0.73,3.61
				c-1.611,2.39-1.855,7.122-0.928,10.585"/>
			<path style="fill:#F9DACA;" d="M208.223,304.677c0,0,42.25,8.78,39.031-1.171c-3.219-9.951-2.084-17.584-2.084-17.584
				l-33.822-1.147c0.035,0.527,0.059,1.054,0.082,1.581c0.152,4.753-0.515,9.014-1.276,12.222
				C209.253,302.347,208.223,304.677,208.223,304.677z"/>
			<path style="fill:#F4CCBA;" d="M210.154,298.577c9.003-1.188,9.003-10.7,9.003-10.7l-3.512-0.539l-4.214-0.983
				C211.583,291.108,210.915,295.37,210.154,298.577z"/>
			<path style="fill:#7762EF;" d="M219.472,236.394c0,0-7.137,1.948-14.49,4.875c0,0,4.684,13.511,1.621,22.518
				c0,0,4.863,17.475,3.962,23.6c0,0,12.873,4.776,35.312,0.093c0,0,0.538-20.135,3.376-24.999c0,0-3.918-13.511,0-23.104
				l-16.538-3.329"/>
			<path style="fill:#5146AF;" d="M205.397,320.559c0.242,8.401,2.98,37.998,3.95,45.545c-1.577,13.876-0.691,55.371-0.691,55.371
				c8.86,2.819,13.733,1.151,13.733,1.151s4.238-42.498,6.232-54.903c0.727-7.79-0.006-40.473-0.006-40.473
				c2.309,7.537,10.903,37.815,10.903,37.815s-1.182,6.57-1.772,10.534c-1.771,11.953-4.255,46.106-4.255,46.106
				c5.45,3.057,14.114,2.319,14.114,2.319s11.307-54.588,11.307-59.943c0-4.529-1.977-17.732-1.979-17.763
				c-1.109-18.891-8.854-41.13-9.855-44.419c-7.494,0.77-25.941,2.245-38.126-0.411C206.373,306.901,205.26,315.963,205.397,320.559
				z"/>
			<g>
				<g>
					<g>
						<path style="fill:#2B269B;" d="M246.713,303.084c-4.665,0.183-9.298,1.252-13.981,1.5c-3.38,0.18-6.77,0.212-10.151,0.019
							c-2.633-0.151-5.264-0.414-7.867-0.846c-1.614-0.268-3.536-1.043-5.171-0.884c-0.214,0.021-0.31,0.291-0.112,0.415
							c1.372,0.861,3.509,0.96,5.076,1.222c2.576,0.431,5.175,0.714,7.784,0.836c3.609,0.17,7.229,0.089,10.829-0.206
							c4.444-0.364,9.347-0.637,13.597-2.033C246.728,303.103,246.727,303.084,246.713,303.084L246.713,303.084z"/>
					</g>
				</g>
				<g>
					<g>
						<path style="fill:#2B269B;" d="M231.397,306.206c-0.039,5.191,0.433,10.353,0.066,15.547c-0.014,0.206,0.306,0.205,0.32,0
							c0.368-5.123,0.255-10.436-0.246-15.547C231.529,306.118,231.398,306.114,231.397,306.206L231.397,306.206z"/>
					</g>
				</g>
				<g>
					<g>
						<path style="fill:#2B269B;" d="M231.597,321.655c-0.981,0.379-2.103,0.476-3.04,0.951c-0.116,0.059-0.059,0.242,0.065,0.24
							c1.044-0.013,2.174-0.466,3.053-1.005C231.769,321.783,231.708,321.612,231.597,321.655L231.597,321.655z"/>
					</g>
				</g>
				<g>
					<path style="fill:#2B269B;" d="M229.411,305.093c0,0-0.234,7.104-0.469,14.207c-0.099,3.552-0.177,7.106-0.205,9.771
						c-0.034,2.665-0.001,4.443-0.001,4.443s-0.096-1.775-0.156-4.442c-0.065-2.666-0.112-6.221-0.138-9.777
						c-0.016-7.111-0.031-14.223-0.031-14.223L229.411,305.093z"/>
				</g>
				<g>
					<g>
						<path style="fill:#2B269B;" d="M249.493,311.797c-2.559-0.14-4.667-0.606-6.594-2.414c-1.584-1.486-1.907-3.331-2.546-5.299
							c-0.066-0.203-0.371-0.17-0.376,0.051c-0.107,4.971,5.025,8.28,9.516,7.701C249.518,311.833,249.519,311.799,249.493,311.797
							L249.493,311.797z"/>
					</g>
				</g>
				<g>
					<g>
						<path style="fill:#2B269B;" d="M206.592,312.1c4.493,0.58,9.623-2.726,9.516-7.701c-0.005-0.219-0.309-0.256-0.376-0.051
							c-0.635,1.955-0.952,3.83-2.546,5.299c-1.954,1.799-4.007,2.273-6.594,2.414C206.566,312.063,206.568,312.097,206.592,312.1
							L206.592,312.1z"/>
					</g>
				</g>
			</g>
			<path style="fill:#F9DACA;" d="M249.244,239.385c0,0,4.103,0.75,5.184,11.664c0.774,7.813-2.87,37.829-2.87,37.829
				s-4.509-2.885-5.826-7.714s0.073-12.951-0.512-16.463c-0.585-3.512-0.993-10.192-0.795-13.997
				C244.623,246.899,245.201,241.691,249.244,239.385z"/>
			<path style="fill:#F9DACA;" d="M217.167,237.069c0,0,3.009,4.987,9.834,4.601c6.591-0.363,9.834-4.788,9.834-4.788l-0.691-0.152
				c-1.592-0.339-2.845-1.569-3.196-3.149c-0.094-0.41-0.176-0.796-0.258-1.171c-0.55-2.658-0.726-4.261-0.726-4.261l-2.646-0.62
				l-8.768-2.072c0.878,4.191,0.667,6.872,0.211,8.535c-0.375,1.37-1.428,2.447-2.798,2.845L217.167,237.069z"/>
			<path style="fill:#E2BDAC;" d="M222.447,227.492c0,0,4.882,3.477,10.244,4.917c-0.55-2.658-0.726-4.261-0.726-4.261l-2.646-0.62
				l-2.201-0.234L222.447,227.492z"/>
			<path style="fill:#F9DACA;" d="M236.947,201.941c0,0,3.513,14.051,1.892,19.456c-1.621,5.404-4.053,9.052-5.54,9.66
				c-1.486,0.608-12.903-4.053-14.187-5.472c-1.283-1.419-6.823-14.592-5.877-20.199
				C214.181,199.779,231.407,190.997,236.947,201.941z"/>
			<g>
				
					<rect x="218.844" y="236.642" transform="matrix(0.9948 -0.1018 0.1018 0.9948 -26.6613 27.6151)" style="fill:#F8D846;" width="76.516" height="76.516"/>
				
					<rect x="221.931" y="240.044" transform="matrix(0.9948 -0.1018 0.1018 0.9948 -26.1702 27.5396)" style="fill:#FFFFFF;" width="69.35" height="60.013"/>
				<polygon style="fill:#F4A34A;" points="253.225,288.323 271.128,267.314 293.093,285.981 294.157,296.369 254.464,300.433 				
					"/>
				<polygon style="fill:#F7C148;" points="224.091,292.921 247.003,261.539 288.892,296.908 225.167,303.433 				"/>
				<path style="fill:#F8D846;" d="M274.05,251.882c0.475,4.642-2.902,8.789-7.544,9.265c-4.642,0.475-8.79-2.902-9.265-7.544
					c-0.475-4.642,2.902-8.79,7.544-9.265C269.427,243.863,273.575,247.24,274.05,251.882z"/>
			</g>
			<path style="fill:#F9DACA;" d="M204.995,241.264c0,0-5.854,3.805-3.951,15.658c1.902,11.853,3.658,22.975,3.951,26.633
				c0.293,3.658,2.634,13.756,6.731,13.024c4.098-0.732,5.634-5.854,5.927-8.561c0.293-2.707-0.805-9.439-0.512-10.171
				c0.293-0.732,3.241-3.146,3.607-4.39c0.366-1.244,4.509,0.487,5.46-7.196c0,0,4.164,1.054,5.481-0.629
				c1.317-1.683-5.111-2.939-6.732-3.402c-2.049-0.585-8.622-0.48-9.426-0.297c-0.805,0.183-0.951,2.451-1.354,4.573
				c-0.402,2.122-1.842,6.928-1.842,6.928l-2.121-14.318C210.214,259.117,210.702,245.02,204.995,241.264z"/>
			<path style="fill:#F9DACA;" d="M295.234,261.495c-0.768,0.118-1.654-0.224-1.843-0.307c-0.024-0.012-0.035-0.012-0.035-0.012
				c-1.5-0.603-3.072-3.19-3.072-3.19s-2.315-0.26-4.737-2.351c-2.504-2.15-1.961-4.832,0.343-6.273
				c2.304-1.441,7.206-1.217,7.206-1.217c1.985,0.059,2.138,0.626,3.284,4.56c0,0.012,0,0.012,0,0.023
				C297.349,258.86,296.085,261.353,295.234,261.495z"/>
			<g>
				<path style="fill:#DDA692;" d="M214.178,266.508c0,0-0.204,1.065-0.561,2.648c-0.188,0.789-0.385,1.716-0.632,2.699
					c-0.244,0.984-0.505,2.033-0.765,3.082c-0.276,1.045-0.552,2.09-0.811,3.07c-0.266,0.978-0.514,1.891-0.727,2.673
					c-0.213,0.783-0.39,1.435-0.514,1.891c-0.117,0.459-0.185,0.721-0.185,0.721s0.103-1.083,0.425-2.676
					c0.167-0.795,0.343-1.727,0.58-2.713c0.239-0.986,0.493-2.038,0.748-3.089c0.283-1.044,0.565-2.089,0.83-3.068
					c0.266-0.979,0.552-1.882,0.78-2.661C213.819,267.531,214.178,266.508,214.178,266.508z"/>
			</g>
			<path style="fill:#383493;" d="M221.592,197.441c0,0,1.075,4.553,2.831,5.358c1.756,0.805,3.202-0.219,4.089,0.878
				c0.887,1.098,1.472,3.658,3.228,3.146c1.756-0.512,3.293-1.11,4.098,0.067c0.805,1.177,1.098,4.47,4.759,4.689
				c2.913,0.175-1.467-7.244-1.467-7.244s-2.561-4.081-2.927-4.382c-0.366-0.301-2.762-3.163-2.904-3.237
				c-0.142-0.073-3.326-0.862-3.902-0.788c-0.577,0.073-4.39,0-4.39,0L221.592,197.441z"/>
			<path style="fill:#383493;" d="M223.128,199.636c0,0,1.295,3.163-1.024,4.793c-1.191,0.837-3.565,4.639-3.428,6.736
				c0.137,2.098,0.722,2.39,0.43,3.561c-0.293,1.171-1.002,4.178-5.27,3.349c-0.725-0.141-0.047-4.324-0.047-4.617
				c0-0.293-1.173-4.358-1.124-5.139c0.049-0.78-0.443-5.902,0.875-6.927c1.317-1.024,4.637-2.098,4.833-2.39
				c0.195-0.293,3.219-1.561,3.219-1.561"/>
			<g>
				<path style="fill:#383493;" d="M208.628,204.209c-1.176,2.374-0.168,4.839-1.592,7.345c-0.87,1.532-2.229,3.031-2.087,4.924
					c0.068,0.906,0.584,1.401,0.872,2.216c0.854,2.416-0.299,3.079-0.01,4.999c0.292,1.941,2.619,3.627,3.927,4.922
					c0.12,0.119,0.287-0.057,0.183-0.183c-0.883-1.069-2.25-2.122-2.944-3.308c-1.507-2.576-0.487-2.312-0.306-4.273
					c0.126-1.36-0.51-1.757-0.95-2.974c-1.312-3.623,1.447-4.963,2.411-7.761c0.655-1.901,0.122-3.945,0.501-5.907
					C208.633,204.208,208.629,204.207,208.628,204.209L208.628,204.209z"/>
			</g>
			<g>
				<path style="fill:#383493;" d="M242.468,204.4c1.394,0.474,2.68,1.471,3.286,2.886c0.308,0.72,0.109,1.583,0.301,2.335
					c0.146,0.572,0.232,1.03,0.584,1.525c0.661,0.929,1.866,1.238,2.268,2.416c0.525,1.541,0.107,3.799,0.227,5.443
					c0.007,0.101,0.15,0.101,0.157,0c0.109-1.667,0.487-3.895-0.054-5.534c-0.66-1.999-2.274-1.977-2.844-4.665
					c-0.49-2.311-0.991-4.526-3.917-4.46C242.443,204.346,242.438,204.39,242.468,204.4L242.468,204.4z"/>
			</g>
		</g>
	</g>
	<g>
		<ellipse style="opacity:0.5;fill:#B5D0FF;" cx="534.38" cy="440.944" rx="55.44" ry="6.887"/>
		<g>
			<g>
				<path style="fill:#FBAB99;" d="M541.348,205.655l-16.368,0.601c0,0,0.218,2.029,0.012,4.864
					c-0.065,0.982-0.189,2.055-0.404,3.179c-0.021,0.127-0.447,2.425-1.015,3.436c-0.35,0.622-1.24,1.277-3.022,1.169
					c0,0,0.184,4.817,7.68,5.694c7.278,0.851,9.579-2.803,9.579-2.803s-0.094-0.063-0.237-0.184
					c-0.709-0.595-1.17-1.407-1.358-2.291C536.115,218.852,538.121,209.579,541.348,205.655z"/>
				<path style="fill:#EF998B;" d="M536.083,209.457c-3.409,3.174-9.611,4.51-11.494,4.842c0.215-1.123,0.339-2.197,0.404-3.179
					C530.175,209.41,538.987,206.739,536.083,209.457z"/>
				<path style="fill:#FBAB99;" d="M521.412,185.872c-0.536,0.873-0.919,1.823-1.237,2.797c-1.495,4.584-6.464,20.839-2.609,23.182
					c4.496,2.733,12.666,0.633,16.823-1.52c7.897-4.091,10.303-5.14,11.336-13.991C547.158,184.055,528.358,174.559,521.412,185.872
					z"/>
				<path style="fill:#003051;" d="M514.412,183.392c0,0,6.414,10.133,19.448,6.37c0,0-1.965,2.904-1.516,5.628
					c0.449,2.725,1.401,4.4,1.209,6.058l1.325-0.229c0,0,1.428-3.768,4.609-2.216c3.181,1.551-0.771,9.655-0.074,9.852
					c0.697,0.196,5.125-4.001,7.548-9.771c2.423-5.771,3.012-10.208-2.642-12.16c0,0-1.113-5.346-6.712-7.113
					C532.007,178.044,514.412,183.392,514.412,183.392z"/>
			</g>
			<g>
				<path style="fill:#F9DACA;" d="M520.112,420.206c0.074,2.571,1.379,8.985,1.379,8.985l-0.955,5.276l-3.021,0.834l-6.955-8.168
					c0,0,0.102-5.649,0.234-5.54L520.112,420.206z"/>
				<path style="fill:#5146AF;" d="M493.786,442.241c0.101,0.113,0.237,0.214,0.406,0.327c1.668,1.003,6.49,1.465,9.927,1.409
					c3.786-0.068,7.876-1.465,9.521-2.107c1.645-0.642,7.921-0.248,8.62-1.07c0.699-0.823,0.361-3.448,0.361-3.448
					c0.62-3.211-0.113-8.203-0.676-8.451c-0.575-0.248-0.89,1.837-1.375,2.501c-0.462,0.687-1.904,1.499-3.56,0.484
					c-1.645-1.014-1.972-3.527-3.932-4.248c-1.949-0.721-2.839-0.462-2.839-0.462c-2.31,1.037-6.208,5.285-8.766,6.851
					s-6.197,2.501-6.907,3.008c-0.71,0.507-0.597,1.893-0.597,1.893S492.704,441.001,493.786,442.241z"/>
				<path style="fill:#363193;" d="M493.786,442.241c0.101,0.113,0.237,0.214,0.406,0.327c1.668,1.003,6.49,1.465,9.927,1.409
					c3.786-0.068,7.876-1.465,9.521-2.107c1.645-0.642,7.921-0.248,8.62-1.07c0.699-0.823,0.361-3.448,0.361-3.448
					c-1.938-0.192-6.715,0.654-9.217,1.251c-2.501,0.597-3.515,2.253-10.952,2.287c-7.437,0.045-8.484-1.961-8.484-1.961
					S492.704,441.001,493.786,442.241z"/>
			</g>
			<g>
				<path style="fill:#F9DACA;" d="M569.754,414.829c0.698,2.475,3.525,8.379,3.525,8.379l0.358,5.349l-2.727,1.544l-8.734-6.229
					c0,0-1.276-5.504-1.122-5.43L569.754,414.829z"/>
				<path style="fill:#5146AF;" d="M549.584,442.611c0.126,0.085,0.282,0.15,0.473,0.218c1.862,0.567,6.651-0.159,9.971-1.051
					c3.656-0.987,7.282-3.338,8.722-4.362s7.622-2.169,8.1-3.137c0.477-0.968-0.49-3.432-0.49-3.432
					c-0.181-3.266-2.106-7.929-2.713-8.032c-0.618-0.101-0.416,1.998-0.724,2.761c-0.281,0.779-1.482,1.917-3.336,1.337
					c-1.842-0.583-2.771-2.941-4.848-3.163c-2.066-0.225-2.866,0.243-2.866,0.243c-1.988,1.568-4.735,6.637-6.835,8.779
					c-2.099,2.142-5.402,3.935-5.967,4.599c-0.565,0.665-0.118,1.981-0.118,1.981S548.233,441.672,549.584,442.611z"/>
				<path style="fill:#363193;" d="M549.584,442.611c0.126,0.085,0.282,0.15,0.473,0.218c1.862,0.567,6.651-0.159,9.971-1.051
					c3.656-0.987,7.282-3.338,8.722-4.362s7.622-2.169,8.1-3.137c0.477-0.968-0.49-3.432-0.49-3.432
					c-1.926,0.286-6.354,2.269-8.635,3.457c-2.281,1.188-2.861,3.042-10.066,4.885c-7.202,1.854-8.707,0.164-8.707,0.164
					S548.233,441.672,549.584,442.611z"/>
			</g>
			<g>
				<g>
					<path style="fill:#FFB6AC;" d="M460.965,175.215c0.022-0.684,0.921-0.421,1.189,0.122c0.036,0.073,0.092,0.243,0.16,0.474
						c-0.164-1.112-0.284-2.021-0.277-2.246c0.021-0.649,0.848-0.47,1.162,0.014c-0.052-0.449-0.083-0.788-0.081-0.933
						c0.012-0.832,0.919-0.555,1.195,0.11c0.062,0.149,0.165,0.573,0.285,1.128c-0.035-0.296-0.056-0.523-0.053-0.627
						c0.022-0.684,0.816-0.569,1.083-0.025c0.088,0.178,0.152,0.509,0.335,1.299c0.155,0.673,0.404,1.39,0.547,2.069
						c0.13,0.616,1.1,3.487,2.58,3.678c2.268,0.293,0.535-3.468,2.035-4.468c0.471-0.314,1.243,2.65,1.421,4.347
						c0.178,1.697,0.257,2.549,0.18,3.563c-0.056,1.013-0.493,2.476-0.365,3.076c0.206,0.966,1.512,2.878,1.512,2.878l-5.525,1.747
						c0,0-1.587-2.985-2.327-3.648c-1.851-1.564-3.083-3.433-3.908-5.749c-0.517-1.451-0.78-2.988-1.02-4.504
						C461.095,177.522,460.958,175.439,460.965,175.215z"/>
					<path style="fill:#FFB6AC;" d="M517.854,219.413c0,0-14.714-4.067-28.512-10.25c-8.631-10.198-17.095-21.57-17.745-22.636
						c-1.474,0.708-4.621,2.474-4.621,2.474s12.012,23.654,16.424,28.547c5.04,4.209,12.407,13.419,29.307,16.296
						C519.882,224.087,517.854,219.413,517.854,219.413z"/>
					<path style="fill:#5643B9;" d="M505.728,361.16c-1.033-13.499,3.636-55.822,4.091-59.463c0.438-3.642,3.016-4.106,4.973-4.704
						c9.763-2.936,21.342,12.207,18.258,25.807c-0.043,0.218,1.469,1.511,1.408,1.745c-1.835,7.876-9.244,34.534-10.597,39.34
						c4.527,17.122-0.066,46.641-2.007,59.986c-5.46,0.77-12.663-0.513-12.663-0.513S506.761,374.659,505.728,361.16z"/>
					<path style="fill:#5643B9;" d="M511.386,287.288c0,0,3.71,0.917,11.097,0.724c9.382-0.246,21.281-4.995,21.281-4.995
						c11.969,12.953,5.389,28.121,5.804,33.109c0.415,4.988,2.805,30.285,3.876,43.487c11.529,17.293,18.393,57.583,18.436,57.772
						c-5.787,3.07-11.648,3.548-11.648,3.548s-20.781-43.606-24.936-55.855c-3.77-11.112-13.508-44.843-13.689-44.812l-12.416,2.124
						C509.164,300.901,511.386,287.288,511.386,287.288z"/>
					<path style="fill:#B0B2FF;" d="M552.029,301.842c-2.337,0.434-4.613,0.774-6.842,1.037
						c-21.084,2.632-36.967-1.269-36.967-1.269s-1.796-51.27,6.053-78.516c1.409-4.907,3.916-5.898,8.808-5.449
						c4.438,7.858,13.498,1.154,13.498,1.154c3.746,1.857,9.727,4.466,12.586,6.84c1.902,1.578-1.458,24.445-0.619,37.394
						C549.103,271.628,550.837,294.319,552.029,301.842z"/>
					<path style="fill:#B0B2FF;" d="M519.427,217.706c0,0-12.067-2.83-19.04-4.557c-5.367,6.264-4.766,16.357-4.766,16.357
						s11.168,7.098,19.332,7.781C516.704,225.388,519.427,217.706,519.427,217.706z"/>
					<path style="fill:#7A86DD;" d="M517.854,219.413c0,0-5.031,6.365-6.684,17.188c-5.63-1.096-14.437-5.965-15.549-7.095
						c2.479,0.802,13.056,4.736,14.504,1.479C512.823,224.916,517.854,219.413,517.854,219.413z"/>
				</g>
			</g>
			<g>
				<path style="fill:#2B269B;" d="M520.019,314.764c0,0,0.245,0.722,0.674,1.985c0.409,1.269,1.033,3.071,1.715,5.252
					c0.678,2.182,1.514,4.715,2.336,7.45c0.829,2.733,1.713,5.648,2.597,8.563c0.853,2.924,1.706,5.848,2.506,8.589
					c0.813,2.737,1.505,5.312,2.148,7.504c1.262,4.393,2.103,7.322,2.103,7.322s-0.281-0.709-0.774-1.95
					c-0.456-1.254-1.141-3.035-1.866-5.204c-0.722-2.169-1.596-4.691-2.441-7.421c-0.84-2.731-1.737-5.643-2.633-8.556
					c-0.841-2.929-1.682-5.858-2.471-8.604c-0.786-2.746-1.445-5.331-2.044-7.537c-0.595-2.207-1.031-4.063-1.363-5.355
					C520.197,315.506,520.019,314.764,520.019,314.764z"/>
			</g>
			<g>
				
					<rect x="507.557" y="238.149" transform="matrix(0.9969 0.0787 -0.0787 0.9969 23.2016 -41.8761)" style="fill:#F8D846;" width="70.407" height="70.407"/>
				
					<rect x="511.207" y="241.27" transform="matrix(0.9969 0.0787 -0.0787 0.9969 22.8505 -41.9174)" style="fill:#FFFFFF;" width="63.813" height="55.221"/>
				<polygon style="fill:#F4A34A;" points="537.029,284.861 556.711,268.807 573.504,289.338 572.747,298.917 536.147,296.027 				
					"/>
				<polygon style="fill:#F7C148;" points="509.898,284.202 535.83,259.587 567.892,298.534 509.133,293.894 				"/>
				<path style="fill:#F8D846;" d="M561.909,255.322c-0.338,4.28-4.081,7.476-8.361,7.138c-4.28-0.338-7.476-4.081-7.138-8.361
					c0.338-4.28,4.081-7.476,8.361-7.138C559.052,247.298,562.247,251.042,561.909,255.322z"/>
			</g>
			<path style="fill:#FBAB99;" d="M542.76,248.871c0,0,5.507,16.8,6.72,18.48c1.213,1.68,7.747,1.867,8.4-2.053
				c0.653-3.92-2.053-18.573-2.053-18.573"/>
			<path style="fill:#B0B2FF;" d="M549.165,225.639c0,0,6.475,6.992,8.715,24.539c0,0-6.55,2.321-14.373,2.38
				c0,0-4.107-5.514-6.067-15.271C535.48,227.529,541.711,221.774,549.165,225.639z"/>
			<path style="fill:#FBAB99;" d="M547.913,262.614c0,0-1.649,18.013-2.904,30.567c-0.372,3.726-0.807,6.815-1.398,9.194
				c0,0,1.25,1.333,4.732,0.968c0,0,10.307-31.56,9.639-39.89"/>
			<path style="fill:#FBAB99;" d="M543.978,300.712c0,0-1.928,1.923-2.578,2.353c-0.65,0.43-2.215,3.147-2.244,3.354
				c-0.03,0.207,0.819,0.332,1.329,0c0.509-0.332,1.993-1.772,2.215-1.883c0.221-0.111,2.768-0.085,3.278-1.471"/>
			<path style="fill:#FBAB99;" d="M544.499,302.833c0,0-1.102,2.904-1.479,3.791s-1.721,1.613-1.747,1.99
				c-0.027,0.376,3.791,1.625,6.237,1.356c1.727-0.19,2.785-2.945,2.473-5.442c-0.13-1.04-1.237-2.473-0.625-4.098"/>
		</g>
	</g>
	<g>
		<g>
			<path style="fill:#D6D4FF;" d="M678.559,234.008h-96.425c-0.52,0-0.942-0.422-0.942-0.942v-74.131
				c0-1.629,1.32-2.949,2.949-2.949h90.989c2.414,0,4.371,1.957,4.371,4.371v72.709C679.5,233.587,679.079,234.008,678.559,234.008z
				"/>
			<path style="fill:#FFFFFF;" d="M636.085,227.927h-45.682c-1.146,0-2.075-0.929-2.075-2.075v-12.128
				c0-1.146,0.929-2.075,2.075-2.075h45.682c1.146,0,2.075,0.929,2.075,2.075v12.128
				C638.16,226.998,637.231,227.927,636.085,227.927z"/>
			<g>
				<path style="opacity:0.31;fill:#FFFFFF;" d="M636.703,168.752h-46.917c-0.805,0-1.457-0.652-1.457-1.457v0
					c0-0.805,0.652-1.457,1.457-1.457h46.917c0.805,0,1.457,0.652,1.457,1.457l0,0C638.16,168.1,637.508,168.752,636.703,168.752z"
					/>
				<path style="opacity:0.31;fill:#FFFFFF;" d="M636.703,174.775h-46.917c-0.805,0-1.457-0.652-1.457-1.457l0,0
					c0-0.805,0.652-1.457,1.457-1.457h46.917c0.805,0,1.457,0.652,1.457,1.457l0,0C638.16,174.122,637.508,174.775,636.703,174.775z
					"/>
				<path style="opacity:0.31;fill:#FFFFFF;" d="M636.703,180.798h-46.917c-0.805,0-1.457-0.652-1.457-1.457l0,0
					c0-0.805,0.652-1.457,1.457-1.457h46.917c0.805,0,1.457,0.652,1.457,1.457v0C638.16,180.146,637.508,180.798,636.703,180.798z"
					/>
				<path style="opacity:0.31;fill:#FFFFFF;" d="M636.703,186.821h-46.917c-0.805,0-1.457-0.652-1.457-1.457l0,0
					c0-0.805,0.652-1.458,1.457-1.458h46.917c0.805,0,1.457,0.652,1.457,1.458l0,0C638.16,186.169,637.508,186.821,636.703,186.821z
					"/>
				<path style="opacity:0.31;fill:#FFFFFF;" d="M636.703,192.844h-46.917c-0.805,0-1.457-0.652-1.457-1.457l0,0
					c0-0.805,0.652-1.457,1.457-1.457h46.917c0.805,0,1.457,0.652,1.457,1.457l0,0C638.16,192.191,637.508,192.844,636.703,192.844z
					"/>
				<path style="opacity:0.31;fill:#FFFFFF;" d="M629.369,198.869h-39.583c-0.805,0-1.457-0.652-1.457-1.457l0,0
					c0-0.805,0.652-1.457,1.457-1.457h39.583c0.805,0,1.457,0.652,1.457,1.457l0,0C630.826,198.217,630.174,198.869,629.369,198.869
					z"/>
			</g>
			<g>
				<polygon style="fill:#F7C148;" points="644.951,217.549 645.678,219.023 647.305,219.259 646.128,220.407 646.406,222.027 
					644.951,221.262 643.496,222.027 643.773,220.407 642.596,219.259 644.223,219.023 				"/>
				<polygon style="fill:#F7C148;" points="652.167,217.549 652.894,219.023 654.522,219.259 653.344,220.407 653.622,222.027 
					652.167,221.262 650.712,222.027 650.99,220.407 649.813,219.259 651.439,219.023 				"/>
				<polygon style="fill:#F7C148;" points="659.383,217.549 660.111,219.023 661.738,219.259 660.561,220.407 660.839,222.027 
					659.383,221.262 657.928,222.027 658.206,220.407 657.029,219.259 658.656,219.023 				"/>
				<polygon style="fill:#F7C148;" points="666.6,217.549 667.327,219.023 668.954,219.259 667.777,220.407 668.055,222.027 
					666.6,221.262 665.145,222.027 665.423,220.407 664.245,219.259 665.872,219.023 				"/>
				<polygon style="fill:#F7C148;" points="673.816,217.549 674.544,219.023 676.171,219.259 674.993,220.407 675.271,222.027 
					673.816,221.262 672.361,222.027 672.639,220.407 671.462,219.259 673.089,219.023 				"/>
			</g>
			<path style="fill:#854DCE;" d="M678.504,153.488h-96.316c-0.55,0-0.996,0.446-0.996,0.996v7.375H679.5v-7.376
				C679.5,153.934,679.054,153.488,678.504,153.488z"/>
			<g>
				<path style="fill:#FFFFFF;" d="M664.912,157.674c0,0.502-0.406,0.908-0.908,0.908c-0.502,0-0.908-0.407-0.908-0.908
					c0-0.502,0.407-0.908,0.908-0.908C664.506,156.765,664.912,157.172,664.912,157.674z"/>
				<path style="fill:#FFFFFF;" d="M669.426,157.674c0,0.502-0.407,0.908-0.909,0.908s-0.908-0.407-0.908-0.908
					c0-0.502,0.407-0.908,0.908-0.908S669.426,157.172,669.426,157.674z"/>
				<path style="fill:#FFFFFF;" d="M673.94,157.674c0,0.502-0.407,0.908-0.908,0.908c-0.502,0-0.909-0.407-0.909-0.908
					c0-0.502,0.407-0.908,0.909-0.908C673.533,156.765,673.94,157.172,673.94,157.674z"/>
			</g>
			<g>
				<path style="fill:#FFFFFF;" d="M675.737,166.781v31.136c0,0.527-0.426,0.952-0.952,0.952h-30.8
					c-0.515,0-0.941-0.426-0.941-0.952v-31.136c0-0.515,0.426-0.941,0.941-0.941h30.8
					C675.312,165.84,675.737,166.266,675.737,166.781z"/>
				<path style="fill:#6C3DB7;" d="M675.737,192.082v5.835c0,0.527-0.426,0.952-0.952,0.952h-15.277l0.65-6.787l7.19-7.952
					L675.737,192.082z"/>
				<path style="fill:#854DCE;" d="M671.459,198.869h-27.474c-0.515,0-0.941-0.426-0.941-0.952v-5.835l10.752-11.284
					L671.459,198.869z"/>
				<circle style="fill:#854DCE;" cx="667.623" cy="174.775" r="3.791"/>
			</g>
		</g>
		<g>
			<path style="fill:#FFFFFF;stroke:#D6D4FF;stroke-width:0.75;stroke-miterlimit:10;" d="M106.612,212.993h69.93l-8.068-5.969
				V183.49c0-1.017-0.825-1.842-1.842-1.842h-60.021c-1.017,0-1.842,0.825-1.842,1.842v27.662
				C104.771,212.169,105.595,212.993,106.612,212.993z"/>
			
				<rect x="108.687" y="186.411" transform="matrix(-1 -1.224647e-16 1.224647e-16 -1 249.3871 375.8859)" style="opacity:0.24;fill:#A4A4F7;" width="32.013" height="3.063"/>
			
				<rect x="108.687" y="190.988" transform="matrix(-1 -1.224647e-16 1.224647e-16 -1 249.3871 385.038)" style="opacity:0.24;fill:#A4A4F7;" width="32.013" height="3.063"/>
			
				<rect x="108.687" y="195.563" transform="matrix(-1 -1.224647e-16 1.224647e-16 -1 249.3871 394.1899)" style="opacity:0.24;fill:#A4A4F7;" width="32.013" height="3.063"/>
			
				<rect x="108.687" y="200.022" transform="matrix(-1 -1.224647e-16 1.224647e-16 -1 249.3871 403.1073)" style="opacity:0.24;fill:#A4A4F7;" width="32.013" height="3.063"/>
			
				<rect x="108.687" y="205.356" transform="matrix(-1 -1.224647e-16 1.224647e-16 -1 239.6993 413.7752)" style="opacity:0.24;fill:#A4A4F7;" width="22.325" height="3.063"/>
			<g>
				<path style="opacity:0.24;fill:#A4A4F7;" d="M165.062,186.855v20.925c0,0.354-0.286,0.64-0.64,0.64h-20.699
					c-0.346,0-0.632-0.286-0.632-0.64v-20.925c0-0.346,0.286-0.632,0.632-0.632h20.699
					C164.776,186.222,165.062,186.508,165.062,186.855z"/>
				<path style="fill:#6C3DB7;" d="M165.062,203.858v3.922c0,0.354-0.286,0.64-0.64,0.64h-10.267l0.436-4.561l4.832-5.344
					L165.062,203.858z"/>
				<path style="fill:#854DCE;" d="M162.187,208.419h-18.464c-0.346,0-0.632-0.286-0.632-0.64v-3.922l7.226-7.583L162.187,208.419z"
					/>
				<path style="fill:#854DCE;" d="M162.156,192.227c0,1.407-1.141,2.547-2.548,2.547c-1.407,0-2.548-1.141-2.548-2.547
					c0-1.407,1.141-2.548,2.548-2.548C161.016,189.68,162.156,190.82,162.156,192.227z"/>
			</g>
		</g>
		<g>
			<g>
				<g>
					<path style="fill:#9999F1;" d="M556.43,149.27c-1.139,2.857-4.378,4.249-7.235,3.11c-2.857-1.139-4.249-4.378-3.11-7.235
						c1.139-2.857,4.378-4.249,7.235-3.11C556.177,143.174,557.569,146.413,556.43,149.27z"/>
					
						<polyline style="fill:none;stroke:#FFFFFF;stroke-width:1.0564;stroke-linecap:round;stroke-linejoin:round;stroke-miterlimit:10;" points="
						548.885,146.542 550.134,149.329 554.319,146.742 					"/>
				</g>
				<g>
					<path style="fill:#9999F1;" d="M196.389,132.928c0.958,2.923-0.635,6.068-3.558,7.026c-2.923,0.958-6.068-0.635-7.026-3.558
						c-0.958-2.923,0.635-6.068,3.558-7.026C192.286,128.413,195.431,130.006,196.389,132.928z"/>
					
						<polyline style="fill:none;stroke:#FFFFFF;stroke-width:1.0564;stroke-linecap:round;stroke-linejoin:round;stroke-miterlimit:10;" points="
						188.85,135.673 191.596,137.011 193.148,132.342 					"/>
				</g>
				<g>
					<path style="fill:#9999F1;" d="M625.862,265.06c-0.345,4.69-4.428,8.213-9.119,7.867c-4.691-0.346-8.213-4.428-7.867-9.119
						c0.346-4.69,4.428-8.213,9.119-7.867C622.686,256.287,626.208,260.369,625.862,265.06z"/>
					
						<polyline style="fill:none;stroke:#FFFFFF;stroke-width:1.6155;stroke-linecap:round;stroke-linejoin:round;stroke-miterlimit:10;" points="
						613.602,264.556 616.708,268.045 621.619,262.345 					"/>
				</g>
				<path style="fill:#9999F1;" d="M599.736,264.132c0,1.131-0.917,2.048-2.048,2.048c-1.131,0-2.048-0.917-2.048-2.048
					c0-1.131,0.917-2.048,2.048-2.048C598.819,262.084,599.736,263,599.736,264.132z"/>
				<path style="opacity:0.3;fill:#9999F1;" d="M530.785,123.291c0,1.131-0.917,2.048-2.048,2.048c-1.131,0-2.048-0.917-2.048-2.048
					c0-1.131,0.917-2.048,2.048-2.048C529.868,121.243,530.785,122.16,530.785,123.291z"/>
				<path style="fill:#9999F1;" d="M167.907,236.399c0,1.805-1.463,3.268-3.268,3.268c-1.805,0-3.268-1.463-3.268-3.268
					c0-1.805,1.463-3.268,3.268-3.268C166.444,233.13,167.907,234.594,167.907,236.399z"/>
				<path style="opacity:0.3;fill:#9999F1;" d="M490.454,120.018c0,2.776-2.25,5.027-5.026,5.027c-2.776,0-5.027-2.251-5.027-5.027
					c0-2.776,2.251-5.027,5.027-5.027C488.204,114.991,490.454,117.242,490.454,120.018z"/>
				<path style="opacity:0.3;fill:#9999F1;" d="M144.388,273.675c0,2.776-2.25,5.027-5.026,5.027c-2.776,0-5.027-2.251-5.027-5.027
					c0-2.776,2.251-5.027,5.027-5.027C142.137,268.649,144.388,270.899,144.388,273.675z"/>
				<path style="opacity:0.3;fill:#9999F1;" d="M343.766,120.018c0,1.805-1.463,3.268-3.268,3.268c-1.805,0-3.268-1.463-3.268-3.268
					c0-1.805,1.463-3.268,3.268-3.268C342.303,116.75,343.766,118.213,343.766,120.018z"/>
				<path style="opacity:0.3;fill:#9999F1;" d="M373.69,141.638c0,1.805-1.463,3.268-3.268,3.268c-1.805,0-3.268-1.463-3.268-3.268
					c0-1.805,1.463-3.268,3.268-3.268C372.227,138.37,373.69,139.833,373.69,141.638z"/>
				<path style="opacity:0.2;fill:#9999F1;" d="M424.674,123.286c0,1.805-1.463,3.268-3.268,3.268c-1.805,0-3.268-1.463-3.268-3.268
					c0-1.805,1.463-3.268,3.268-3.268C423.211,120.018,424.674,121.481,424.674,123.286z"/>
				<g>
					<g>
						<g>
							<path style="fill:#9999F1;" d="M135.365,229.438c-0.36,0-0.653-0.293-0.653-0.653v-4.607c0-0.36,0.293-0.653,0.653-0.653
								c0.361,0,0.653,0.292,0.653,0.653v4.607C136.018,229.145,135.726,229.438,135.365,229.438z"/>
						</g>
						<g>
							<path style="fill:#9999F1;" d="M137.67,227.134h-4.608c-0.36,0-0.653-0.293-0.653-0.653c0-0.36,0.293-0.653,0.653-0.653
								h4.608c0.36,0,0.653,0.293,0.653,0.653C138.323,226.841,138.03,227.134,137.67,227.134z"/>
						</g>
					</g>
				</g>
				<g style="opacity:0.3;">
					<g>
						<g>
							<path style="fill:#9999F1;" d="M171.515,113.655c-0.36,0-0.653-0.293-0.653-0.653v-4.607c0-0.36,0.293-0.653,0.653-0.653
								c0.36,0,0.653,0.292,0.653,0.653v4.607C172.169,113.363,171.876,113.655,171.515,113.655z"/>
						</g>
						<g>
							<path style="fill:#9999F1;" d="M173.82,111.351h-4.608c-0.36,0-0.653-0.293-0.653-0.653c0-0.36,0.293-0.653,0.653-0.653
								h4.608c0.36,0,0.653,0.293,0.653,0.653C174.473,111.059,174.18,111.351,173.82,111.351z"/>
						</g>
					</g>
				</g>
				<g>
					<g>
						<g>
							<path style="fill:#9999F1;" d="M554.825,168.794c-0.36,0-0.653-0.293-0.653-0.653v-4.607c0-0.36,0.293-0.653,0.653-0.653
								c0.36,0,0.653,0.293,0.653,0.653v4.607C555.478,168.501,555.185,168.794,554.825,168.794z"/>
						</g>
						<g>
							<path style="fill:#9999F1;" d="M557.129,166.49h-4.608c-0.36,0-0.653-0.293-0.653-0.653c0-0.36,0.293-0.653,0.653-0.653
								h4.608c0.36,0,0.653,0.293,0.653,0.653C557.782,166.197,557.49,166.49,557.129,166.49z"/>
						</g>
					</g>
				</g>
				<g>
					<g>
						<g>
							<path style="fill:#9999F1;" d="M287.908,128.001c-0.36,0-0.653-0.293-0.653-0.653v-4.607c0-0.36,0.293-0.653,0.653-0.653
								c0.36,0,0.653,0.293,0.653,0.653v4.607C288.561,127.709,288.269,128.001,287.908,128.001z"/>
						</g>
						<g>
							<path style="fill:#9999F1;" d="M290.213,125.698h-4.608c-0.36,0-0.653-0.293-0.653-0.653c0-0.36,0.293-0.653,0.653-0.653
								h4.608c0.36,0,0.653,0.293,0.653,0.653C290.866,125.405,290.573,125.698,290.213,125.698z"/>
						</g>
					</g>
				</g>
			</g>
		</g>
		<path style="fill:#9999F1;" d="M557.512,74.757h-21.661c-0.762,0-1.378,0.616-1.378,1.378v21.661c0,0.762,0.616,1.378,1.378,1.378
			h21.661c0.762,0,1.378-0.616,1.378-1.378V76.135C558.89,75.373,558.274,74.757,557.512,74.757z M551.005,86.708v7.717h-8.646
			v-7.717h-2.666l6.989-7.202l6.989,7.202H551.005z"/>
		<g>
			<path style="fill:#383493;" d="M327.723,88.724v20.485c0,0.314-0.101,0.605-0.269,0.829c-0.257,0.381-0.694,0.616-1.176,0.616
				h-30.094c-0.392,0-0.739-0.157-0.997-0.392V91.244c0-0.694,0.571-1.254,1.266-1.254h21.146c0.694,0,1.254-0.571,1.254-1.266
				c0-0.694,0.56-1.266,1.254-1.266h6.35C327.152,87.458,327.723,88.029,327.723,88.724z"/>
			<path style="fill:#5146AF;" d="M327.454,110.037c-0.257,0.381-0.694,0.616-1.176,0.616h-30.094c-0.392,0-0.739-0.157-0.997-0.392
				c-0.123-0.123-0.235-0.269-0.302-0.426c-0.022-0.034-0.034-0.067-0.045-0.101l-6.698-15.288
				c-0.347-0.795,0.235-1.691,1.109-1.691h29.837c0.482,0,0.919,0.28,1.109,0.717l6.272,14.314L327.454,110.037z"/>
		</g>
		<path style="opacity:0.3;fill:#9999F1;" d="M222.762,78.352c-0.035-0.162-0.069-0.335-0.115-0.497
			c-0.139-0.67-0.323-1.317-0.543-1.952c-0.497-1.444-1.178-2.795-2.021-4.042l1.975-1.963l-4.724-4.724l-0.092,0.092l-1.871,1.883
			c-1.929-1.305-4.123-2.229-6.491-2.691v-2.783h-6.676v2.783c-2.368,0.462-4.562,1.386-6.491,2.691l-1.963-1.975l-4.724,4.724
			l1.975,1.963c-1.305,1.929-2.229,4.123-2.691,6.491h-2.783v6.675h2.795c0.45,2.368,1.374,4.562,2.679,6.491l-1.975,1.963
			l4.724,4.724l1.963-1.975c1.929,1.305,4.123,2.229,6.491,2.679v2.795h6.676V98.91c2.367-0.45,4.562-1.374,6.491-2.679l1.871,1.882
			l0.092,0.092l2.841-2.841l1.882-1.883l-1.882-1.871l-0.092-0.092c0.035-0.046,0.058-0.092,0.092-0.139
			c1.259-1.894,2.148-4.042,2.587-6.352h2.795v-6.675H222.762z M205.542,92.835c-6.156,0-11.145-4.989-11.145-11.145
			c0-6.156,4.989-11.145,11.145-11.145c6.156,0,11.145,4.989,11.145,11.145C216.687,87.845,211.698,92.835,205.542,92.835z"/>
		<polygon style="fill:#5146AF;" points="249.521,117.489 231.767,135.767 238.546,135.767 238.546,165.786 260.495,165.786 
			260.495,135.767 267.274,135.767 		"/>
		<polygon style="fill:#854DCE;" points="652.167,253.129 640.543,265.097 644.981,265.097 644.981,284.753 659.353,284.753 
			659.353,265.097 663.791,265.097 		"/>
		<g>
			<path style="fill:#5146AF;" d="M440.53,151.058c0.99,0,1.938,0.17,2.827,0.469c0.214-7.389,6.267-13.314,13.707-13.314
				c7.576,0,13.717,6.141,13.717,13.717c0,0.347-0.017,0.689-0.042,1.029c1.324-2.233,3.751-3.735,6.535-3.735
				c4.197,0,7.599,3.402,7.599,7.599c0,0.595-0.075,1.172-0.205,1.727c0.784-0.436,1.685-0.687,2.646-0.687
				c3.009,0,5.448,2.439,5.448,5.448c0,3.009-2.439,5.448-5.448,5.448c-3.009,0-42.952,0-46.784,0c-4.889,0-8.852-3.963-8.852-8.852
				C431.678,155.021,435.641,151.058,440.53,151.058z"/>
			<polygon style="fill:#FFFFFF;" points="457.647,146.542 451.58,152.788 453.897,152.788 453.897,163.047 461.397,163.047 
				461.397,152.788 463.714,152.788 			"/>
		</g>
		<polygon style="fill:#9999F1;" points="131.012,301.044 119.388,313.012 123.826,313.012 123.826,332.667 138.198,332.667 
			138.198,313.012 142.636,313.012 		"/>
	</g>
</g>
<g id="DESIGNED_BY_FREEPIK">
	<g>
		<g id="XMLID_1_">
			<g id="XMLID_20_">
				<path id="XMLID_28_" style="fill:#A5B7C6;" d="M385.104,473.813c-0.432,0.443-0.803,0.931-1.108,1.453l-0.465-0.241
					c-0.067-0.298-0.349-0.503-0.659-0.466c-0.331,0.039-0.567,0.339-0.529,0.67c0.039,0.331,0.339,0.568,0.67,0.529
					c0.066-0.008,0.127-0.026,0.184-0.052l0.451,0.234c-0.251,0.554-0.433,1.139-0.539,1.744l0.747,0.132
					c0.23-1.306,0.85-2.507,1.792-3.473L385.104,473.813z"/>
				<path id="XMLID_27_" style="fill:#A5B7C6;" d="M390.592,471.511c-0.171,0-0.341,0.006-0.51,0.017l-0.074-0.626
					c0.188-0.149,0.296-0.389,0.266-0.645c-0.046-0.393-0.402-0.674-0.795-0.628c-0.393,0.046-0.674,0.402-0.628,0.795
					c0.03,0.254,0.189,0.461,0.404,0.564l0.074,0.624c-0.714,0.116-1.403,0.332-2.06,0.646l0.327,0.684
					c0.934-0.447,1.942-0.673,2.995-0.673c0.496,0,0.993,0.053,1.475,0.158l0.161-0.741
					C391.692,471.569,391.142,471.511,390.592,471.511z"/>
				<path id="XMLID_26_" style="fill:#A5B7C6;" d="M397.194,474.058c0.331-0.04,0.566-0.341,0.526-0.672
					c-0.04-0.331-0.341-0.566-0.672-0.526c-0.309,0.038-0.535,0.304-0.53,0.609l-0.416,0.363c-0.418-0.43-0.889-0.813-1.408-1.139
					l-0.404,0.641c1.134,0.715,2.021,1.726,2.563,2.925l0.69-0.313c-0.251-0.554-0.567-1.072-0.942-1.545l0.402-0.351
					C397.065,474.063,397.129,474.066,397.194,474.058z"/>
				<path id="XMLID_25_" style="fill:#A5B7C6;" d="M390.044,481.719c-0.386,0.023-0.775,0.035-1.157,0.035
					c-0.88,0-1.733-0.061-2.478-0.179c-0.39-0.062-0.846-0.155-1.27-0.292c1.046,1.861,3.069,3.125,5.388,3.125
					c2.855,0,5.262-1.916,5.95-4.504c-0.682,0.449-1.505,0.825-2.459,1.123C392.839,481.394,391.463,481.634,390.044,481.719z"/>
				<path id="XMLID_21_" style="fill:#A5B7C6;" d="M390.592,473.027c-3.352,0-6.08,2.666-6.08,5.944
					c0,0.425,0.046,0.849,0.137,1.261c0.673,0.483,2.706,0.89,5.348,0.731c2.879-0.173,5.297-0.957,6.672-2.159
					c-0.006-0.195-0.021-0.39-0.045-0.582C396.244,475.26,393.65,473.027,390.592,473.027z M388.432,479.542
					c-1.02,0-1.85-0.83-1.85-1.85c0-1.02,0.83-1.85,1.85-1.85c1.02,0,1.85,0.83,1.85,1.85
					C390.282,478.712,389.452,479.542,388.432,479.542z M393.17,478.633c-0.75,0-1.36-0.61-1.36-1.36s0.61-1.361,1.36-1.361
					c0.75,0,1.361,0.61,1.361,1.361S393.92,478.633,393.17,478.633z"/>
			</g>
			<path id="XMLID_18_" style="fill:#A5B7C6;" d="M406.595,474.894c-0.295-0.116-0.805-0.309-1.382-0.237
				c-0.551,0.069-0.844,0.341-0.844,1.007v0.866h2.228v1.717h-2.228v5.455h-1.932v-5.455h-1.34v-1.717h1.34v-0.888
				c0-1.68,0.896-2.783,2.568-2.783c0.643,0,1.157,0.122,1.59,0.308L406.595,474.894z"/>
			<path id="XMLID_16_" style="fill:#A5B7C6;" d="M411.298,478.226c-0.177-0.03-0.358-0.046-0.526-0.046
				c-0.896,0-1.51,0.548-1.51,1.614v3.908h-1.932v-7.172h1.873v0.785c0.451-0.673,1.14-0.977,2.021-0.977
				c0.414,0,0.848,0.128,1.094,0.337L411.298,478.226z"/>
			<path id="XMLID_13_" style="fill:#A5B7C6;" d="M418.965,480.104c0,0.222-0.015,0.489-0.037,0.651h-5.085
				c0.207,1.036,0.933,1.488,1.843,1.488c0.622,0,1.295-0.252,1.813-0.688l1.133,1.243c-0.814,0.748-1.85,1.088-3.057,1.088
				c-2.198,0-3.723-1.495-3.723-3.753c0-2.258,1.48-3.797,3.627-3.797C417.544,476.337,418.958,477.869,418.965,480.104z
				 M413.851,479.438h3.175c-0.177-0.918-0.733-1.436-1.562-1.436C414.554,478.002,414.021,478.55,413.851,479.438z"/>
			<path id="XMLID_10_" style="fill:#A5B7C6;" d="M426.618,480.104c0,0.222-0.015,0.489-0.037,0.651h-5.085
				c0.207,1.036,0.933,1.488,1.843,1.488c0.622,0,1.295-0.252,1.814-0.688l1.132,1.243c-0.814,0.748-1.85,1.088-3.057,1.088
				c-2.198,0-3.723-1.495-3.723-3.753c0-2.258,1.48-3.797,3.627-3.797C425.197,476.337,426.611,477.869,426.618,480.104z
				 M421.504,479.438h3.175c-0.178-0.918-0.733-1.436-1.562-1.436C422.207,478.002,421.674,478.55,421.504,479.438z"/>
			<path id="XMLID_7_" style="fill:#A5B7C6;" d="M434.964,480.112c0,2.154-1.495,3.775-3.471,3.775
				c-0.962,0-1.643-0.378-2.109-0.933v3.708h-1.924v-10.133h1.887v0.792c0.466-0.585,1.155-0.984,2.139-0.984
				C433.469,476.337,434.964,477.958,434.964,480.112z M429.287,480.112c0,1.132,0.748,1.976,1.843,1.976
				c1.14,0,1.85-0.881,1.85-1.976c0-1.095-0.71-1.976-1.85-1.976C430.035,478.135,429.287,478.979,429.287,480.112z"/>
			<path id="XMLID_4_" style="fill:#A5B7C6;" d="M438.068,474.183c0,0.696-0.54,1.229-1.236,1.229c-0.696,0-1.229-0.533-1.229-1.229
				c0-0.696,0.533-1.243,1.229-1.243C437.527,472.94,438.068,473.487,438.068,474.183z M437.809,483.701h-1.932v-7.172h1.932
				V483.701z"/>
			<path id="XMLID_2_" style="fill:#A5B7C6;" d="M441.032,479.083l2.701-2.554h2.368l-3.479,3.375l3.501,3.797h-2.376l-2.716-2.901
				v2.901H439.1v-10.658h1.932V479.083z"/>
		</g>
		<g>
			<path style="fill:#A5B7C6;" d="M309.412,483.636v-1.055c-0.527,0.718-1.391,1.23-2.387,1.23c-1.846,0-3.149-1.406-3.149-3.706
				c0-2.256,1.289-3.721,3.149-3.721c0.952,0,1.816,0.469,2.387,1.245v-3.765h1.099v9.77H309.412z M309.412,481.717v-3.208
				c-0.395-0.615-1.245-1.143-2.124-1.143c-1.421,0-2.27,1.172-2.27,2.739c0,1.567,0.85,2.724,2.27,2.724
				C308.168,482.831,309.017,482.333,309.412,481.717z"/>
			<path style="fill:#A5B7C6;" d="M311.932,480.091c0-2.051,1.465-3.706,3.486-3.706c2.139,0,3.398,1.67,3.398,3.794v0.279h-5.727
				c0.088,1.333,1.025,2.446,2.549,2.446c0.805,0,1.626-0.322,2.182-0.893l0.527,0.718c-0.703,0.703-1.655,1.084-2.812,1.084
				C313.44,483.812,311.932,482.303,311.932,480.091z M315.404,477.294c-1.509,0-2.256,1.274-2.314,2.358h4.643
				C317.718,478.597,317.015,477.294,315.404,477.294z"/>
			<path style="fill:#A5B7C6;" d="M319.607,482.699l0.571-0.791c0.469,0.542,1.362,1.011,2.329,1.011c1.084,0,1.67-0.513,1.67-1.216
				c0-1.714-4.38-0.659-4.38-3.281c0-1.098,0.952-2.036,2.636-2.036c1.201,0,2.051,0.454,2.622,1.026l-0.513,0.762
				c-0.424-0.513-1.201-0.894-2.109-0.894c-0.967,0-1.567,0.483-1.567,1.113c0,1.552,4.38,0.527,4.38,3.281
				c0,1.187-0.952,2.138-2.783,2.138C321.306,483.812,320.325,483.46,319.607,482.699z"/>
			<path style="fill:#A5B7C6;" d="M326.477,474.818c0-0.41,0.337-0.747,0.732-0.747c0.41,0,0.747,0.337,0.747,0.747
				c0,0.41-0.337,0.732-0.747,0.732C326.814,475.55,326.477,475.228,326.477,474.818z M326.667,483.636v-7.075h1.099v7.075H326.667z
				"/>
			<path style="fill:#A5B7C6;" d="M329.582,485.453l0.556-0.82c0.586,0.703,1.289,0.967,2.3,0.967c1.172,0,2.27-0.571,2.27-2.124
				v-1.011c-0.513,0.718-1.377,1.26-2.373,1.26c-1.845,0-3.149-1.377-3.149-3.662c0-2.27,1.289-3.677,3.149-3.677
				c0.952,0,1.802,0.469,2.373,1.245v-1.069h1.098v6.87c0,2.344-1.641,3.076-3.369,3.076
				C331.237,486.507,330.417,486.273,329.582,485.453z M334.709,481.6v-3.091c-0.381-0.615-1.231-1.143-2.109-1.143
				c-1.421,0-2.27,1.128-2.27,2.695c0,1.553,0.849,2.695,2.27,2.695C333.478,482.757,334.328,482.216,334.709,481.6z"/>
			<path style="fill:#A5B7C6;" d="M342.413,483.636v-4.629c0-1.245-0.63-1.641-1.582-1.641c-0.865,0-1.685,0.527-2.095,1.099v5.17
				h-1.099v-7.075h1.099v1.025c0.498-0.586,1.465-1.201,2.519-1.201c1.48,0,2.256,0.747,2.256,2.285v4.966H342.413z"/>
			<path style="fill:#A5B7C6;" d="M344.932,480.091c0-2.051,1.465-3.706,3.486-3.706c2.138,0,3.398,1.67,3.398,3.794v0.279h-5.727
				c0.088,1.333,1.025,2.446,2.549,2.446c0.806,0,1.626-0.322,2.183-0.893l0.527,0.718c-0.703,0.703-1.655,1.084-2.812,1.084
				C346.441,483.812,344.932,482.303,344.932,480.091z M348.404,477.294c-1.509,0-2.256,1.274-2.314,2.358h4.643
				C350.718,478.597,350.015,477.294,348.404,477.294z"/>
			<path style="fill:#A5B7C6;" d="M358.35,483.636v-1.055c-0.527,0.718-1.392,1.23-2.388,1.23c-1.845,0-3.149-1.406-3.149-3.706
				c0-2.256,1.289-3.721,3.149-3.721c0.952,0,1.817,0.469,2.388,1.245v-3.765h1.098v9.77H358.35z M358.35,481.717v-3.208
				c-0.396-0.615-1.245-1.143-2.124-1.143c-1.421,0-2.27,1.172-2.27,2.739c0,1.567,0.849,2.724,2.27,2.724
				C357.105,482.831,357.954,482.333,358.35,481.717z"/>
			<path style="fill:#A5B7C6;" d="M364.692,483.636v-9.77h1.098v3.765c0.572-0.776,1.421-1.245,2.388-1.245
				c1.845,0,3.149,1.465,3.149,3.721c0,2.299-1.304,3.706-3.149,3.706c-0.996,0-1.86-0.513-2.388-1.23v1.055H364.692z
				 M367.9,482.831c1.436,0,2.286-1.157,2.286-2.724c0-1.568-0.85-2.739-2.286-2.739c-0.864,0-1.728,0.527-2.109,1.143v3.208
				C366.172,482.333,367.036,482.831,367.9,482.831z"/>
			<path style="fill:#A5B7C6;" d="M372.529,485.409c0.161,0.073,0.425,0.117,0.601,0.117c0.483,0,0.806-0.161,1.055-0.747
				l0.469-1.069l-2.959-7.148h1.187l2.358,5.8l2.344-5.8h1.201l-3.545,8.51c-0.425,1.025-1.143,1.421-2.08,1.435
				c-0.234,0-0.601-0.044-0.806-0.103L372.529,485.409z"/>
		</g>
	</g>
</g>
</svg>
