<svg width="315" height="121" viewBox="0 0 315 121" fill="none" xmlns="http://www.w3.org/2000/svg">
<path d="M31.3324 74C28.6625 74 27.0396 73.7906 26.4637 73.3718C25.9402 72.953 25.4429 71.5657 24.9717 69.2098L22.3018 55.9387H12.4073L9.18771 74H7.38157C4.8687 74 3.27197 73.8691 2.5914 73.6074C1.91083 73.2933 1.57055 72.6127 1.57055 71.5657C1.57055 70.4663 5.54927 52.4311 13.5067 17.4603H21.0453L33.9238 74H31.3324ZM16.8834 31.7523L13.9779 47.0651L13.3497 48.4001H21.438C21.3856 48.3477 21.2547 48.1121 21.0453 47.6933C20.8359 47.2222 20.7312 46.9604 20.7312 46.908L17.6687 31.7523H16.8834ZM57.5722 65.1264L56.787 62.7706V31.8308C60.2945 31.8308 62.3362 32.0402 62.9121 32.459C63.5403 32.8255 63.8544 34.1866 63.8544 36.5424V74C60.7657 74 58.8287 73.9215 58.0434 73.7644C57.2581 73.555 56.8393 72.9268 56.787 71.8798L51.7612 74.5497C47.6254 74.5497 44.4058 73.5288 42.1023 71.4871C40.6365 70.2307 39.7989 66.7755 39.5895 61.1215C39.4848 59.3939 39.4324 56.5931 39.4324 52.7191V31.8308C42.94 31.8308 44.9817 32.0402 45.5575 32.459C46.1334 32.8255 46.4213 34.1866 46.4213 36.5424V52.562C46.4213 58.6872 46.5522 62.2471 46.814 63.2417C47.1281 64.2364 47.4422 65.1002 47.7563 65.8332C48.2798 67.0896 49.353 67.7702 50.9759 67.8749L57.5722 65.1264ZM87.1875 31.8308C87.1875 34.8148 86.8996 36.6733 86.3237 37.4062C85.8002 38.0868 84.2034 38.4271 81.5335 38.4271H79.2562L79.963 40.3903V55.9387C79.963 60.3886 80.12 63.4512 80.4341 65.1264C80.8006 66.7493 81.5335 67.6655 82.6329 67.8749H88.601V74L82.2403 74.3926C79.6227 74.3926 77.8951 74.1309 77.0575 73.6074C76.2198 73.0838 75.5916 72.665 75.1728 72.3509C74.754 72.0368 74.3875 71.4086 74.0734 70.4663C73.7593 69.4716 73.5237 68.6863 73.3667 68.1104C73.2096 67.4822 73.0787 66.3828 72.974 64.8123C72.9217 63.1894 72.8955 61.8544 72.8955 60.8074V40.3903L73.5237 38.4271H69.3618V31.8308H73.5237L72.8955 28.9253V24.9204C76.4031 24.9204 78.4448 25.1036 79.0206 25.4701C79.6489 25.7842 79.963 27.0144 79.963 29.1609L79.3347 31.8308H87.1875ZM93.7175 53.1117C93.7175 53.1117 93.7175 51.4888 93.7175 48.243C93.7175 44.9972 93.7961 42.8246 93.9531 41.7252C94.1102 40.6259 94.2934 39.5527 94.5028 38.5056C94.7122 37.4062 94.9478 36.621 95.2096 36.1498C95.5237 35.6263 95.8901 35.0242 96.3089 34.3437C96.7801 33.6631 97.3036 33.1919 97.8795 32.9302C98.4554 32.6684 99.1359 32.3805 99.9212 32.0664C101.23 31.5429 103.141 31.2811 105.654 31.2811C108.167 31.2811 110.182 31.5952 111.7 32.2234C113.271 32.7993 114.475 33.4799 115.313 34.2651C116.203 34.9981 116.831 36.4639 117.197 38.6627C117.564 40.8091 117.773 42.7199 117.825 44.3952C117.93 46.0704 117.982 48.3477 117.982 51.2271V57.1166C117.982 60.4671 117.904 62.6921 117.747 63.7914C117.59 64.8908 117.407 65.9902 117.197 67.0896C116.988 68.189 116.726 69.0004 116.412 69.5239C116.15 69.9951 115.784 70.5971 115.313 71.3301C114.894 72.0106 114.37 72.508 113.742 72.8221C113.166 73.0838 112.486 73.3718 111.7 73.6859C110.444 74.2618 108.769 74.5497 106.675 74.5497C104.58 74.5497 102.958 74.4712 101.806 74.3141C100.706 74.1571 99.7118 73.8168 98.8218 73.2933C97.9842 72.7697 97.2774 72.2724 96.7016 71.8012C96.1257 71.3301 95.6284 70.5448 95.2096 69.4454C94.8431 68.2937 94.5552 67.3252 94.3458 66.5399C94.1363 65.7546 94.0055 64.472 93.9531 62.6921C93.7961 59.708 93.7175 56.5146 93.7175 53.1117ZM105.811 37.9559C103.455 37.9559 102.015 38.9244 101.492 40.8614C100.968 42.7461 100.706 46.0442 100.706 50.7559C100.706 55.4152 100.733 58.4516 100.785 59.8651C100.837 61.2262 101.021 62.6921 101.335 64.2626C101.649 65.7808 102.146 66.7755 102.827 67.2466C103.56 67.6655 104.554 67.8749 105.811 67.8749C108.167 67.8749 109.606 66.8802 110.13 64.8908C110.653 62.9015 110.915 59.551 110.915 54.8393C110.915 50.1277 110.889 47.0913 110.837 45.7301C110.784 44.369 110.601 42.9555 110.287 41.4897C109.973 40.0238 109.449 39.0815 108.716 38.6627C108.036 38.1915 107.067 37.9559 105.811 37.9559ZM147.418 33.4013V69.2098C147.418 71.618 147.156 73.0315 146.633 73.4503C146.162 73.8168 144.539 74 141.764 74H140.036V17.4603H141.843C144.355 17.4603 145.926 17.6435 146.554 18.01C147.182 18.3764 147.994 19.6329 148.989 21.7793L157.548 41.3326H159.119L169.641 17.4603H170.819C173.646 17.4603 175.295 17.6697 175.766 18.0885C176.29 18.455 176.552 19.8423 176.552 22.2504V74H174.824C171.997 74 170.348 73.8168 169.877 73.4503C169.406 73.0315 169.17 71.618 169.17 69.2098L169.092 33.4799H168.856L163.045 47.5363L160.925 51.4626H155.742L153.622 47.5363L147.654 33.4013H147.418ZM198.513 41.5682L198.591 39.4479C198.591 38.715 198.513 38.3224 198.356 38.27C198.199 38.2177 198.016 38.113 197.806 37.9559C197.597 37.7465 197.309 37.6942 196.942 37.7989C196.628 37.9036 196.236 37.9298 195.764 37.8774L191.524 38.4271C190.425 38.5841 189.482 38.6627 188.697 38.6627C187.912 38.6627 187.31 38.4794 186.891 38.113C186.472 37.7465 186.053 36.0713 185.634 33.0872L194.744 31.2811C198.461 31.2811 200.79 31.569 201.733 32.1449C202.675 32.6684 203.355 33.1134 203.774 33.4799C204.193 33.8463 204.481 34.5792 204.638 35.6786C204.9 37.0398 205.031 39.1862 205.031 42.1179V74C201.994 74 200.084 73.8429 199.298 73.5288C198.513 73.2147 198.094 72.4556 198.042 71.2515L191.524 74.5497C190.058 74.5497 188.959 74.5235 188.226 74.4712C187.545 74.4712 186.839 74.2618 186.106 73.8429C185.425 73.4241 184.954 73.0053 184.692 72.5865C184.483 72.1677 184.273 71.2777 184.064 69.9166C183.802 68.2937 183.671 64.9693 183.671 59.9436V54.5252C183.671 48.6095 188.828 45.5469 199.141 45.3375L198.513 43.4528V41.5682ZM191.053 67.8749C191.105 67.8749 193.749 66.8802 198.984 64.8908L198.199 62.6135V53.2688L198.827 51.4626C196.681 51.515 194.796 51.7244 193.173 52.0909C191.55 52.4573 190.739 52.9547 190.739 53.5829L190.66 63.9485C190.66 66.5661 190.791 67.8749 191.053 67.8749ZM217.619 27.8259C216.363 27.8259 215.263 27.3547 214.321 26.4124C213.379 25.4177 212.907 24.2922 212.907 23.0357C212.907 21.7269 213.379 20.6275 214.321 19.7376C215.263 18.8476 216.363 18.4026 217.619 18.4026C218.875 18.4026 219.975 18.8476 220.917 19.7376C221.86 20.6275 222.331 21.7269 222.331 23.0357C222.331 24.2922 221.86 25.4177 220.917 26.4124C219.975 27.3547 218.875 27.8259 217.619 27.8259ZM214.164 69.6025V31.8308C217.671 31.8308 219.713 32.0402 220.289 32.459C220.865 32.8255 221.153 34.1866 221.153 36.5424V74.3141C217.645 74.3141 215.603 74.1309 215.028 73.7644C214.452 73.3456 214.164 71.9583 214.164 69.6025ZM238.387 22.2504V74.3141C234.88 74.3141 232.838 74.1309 232.262 73.7644C231.686 73.3456 231.398 71.9583 231.398 69.6025V17.4603C234.853 17.4603 236.869 17.6697 237.445 18.0885C238.073 18.455 238.387 19.8423 238.387 22.2504Z" fill="black"/>
<path d="M140.021 108.733C139.901 108.733 139.781 108.721 139.661 108.697C139.564 108.697 139.468 108.685 139.372 108.661L138.147 108.048C137.955 107.952 137.858 107.748 137.858 107.436C137.858 106.763 138.063 106.426 138.471 106.426C138.591 106.426 138.783 106.522 139.048 106.715C139.312 106.907 139.492 107.003 139.588 107.003H139.624C139.841 107.003 140.141 106.991 140.526 106.967C140.91 106.943 141.391 106.859 141.967 106.715C143.337 106.354 144.67 105.742 145.968 104.877C146.184 104.732 147.133 103.819 148.815 102.137C148.935 101.945 149.068 101.705 149.212 101.416C149.356 101.104 149.512 100.744 149.68 100.335C149.704 100.047 149.416 99.4942 148.815 98.6773C148.383 98.1006 148.13 97.7762 148.058 97.7041C147.962 97.6321 147.842 97.548 147.698 97.4518C147.554 97.3557 147.362 97.2596 147.121 97.1635L146.581 96.9112L146.112 96.9472C145.92 96.8271 145.68 96.755 145.391 96.731C145.031 96.731 144.742 96.6829 144.526 96.5868C144.43 96.5628 144.31 96.5268 144.166 96.4787C143.926 96.3826 143.781 96.1904 143.733 95.902L143.697 95.866C143.673 95.5776 143.781 95.0971 144.022 94.4243C144.286 94.2561 144.586 94.0639 144.923 93.8476C145.259 93.6314 145.644 93.3791 146.076 93.0907C146.292 92.9706 146.569 92.8024 146.905 92.5861C147.265 92.3458 147.662 92.0335 148.094 91.649L148.707 91.1084C148.731 91.0844 148.815 91.0243 148.959 90.9282C149.128 90.808 149.248 90.6519 149.32 90.4596L149.68 89.919L149.861 89.5946C150.005 89.3303 150.077 89.1621 150.077 89.09L149.969 88.4052V88.3692C149.969 88.225 149.824 88.1049 149.536 88.0087C149.008 87.8646 148.683 87.7564 148.563 87.6844C148.371 87.5642 148.034 87.396 147.554 87.1798C147.073 86.9395 146.461 86.6512 145.716 86.3148C144.562 85.7861 143.649 85.2455 142.976 84.6929C142.76 84.5006 142.472 84.1883 142.111 83.7558C141.967 83.6356 141.895 83.4554 141.895 83.2151C141.895 82.9989 141.967 82.7946 142.111 82.6024C142.256 82.3861 142.4 82.278 142.544 82.278C142.592 82.278 142.664 82.302 142.76 82.3501C143.049 82.5664 143.313 82.8547 143.553 83.2151C143.889 83.3593 144.466 83.7197 145.283 84.2964L145.608 84.4766C145.944 84.6448 146.629 84.9331 147.662 85.3416C148.455 85.678 148.971 85.9663 149.212 86.2066L150.545 87.0356C151.122 87.396 151.41 87.8405 151.41 88.3692C151.41 88.9218 151.158 89.6307 150.653 90.4957C150.149 91.3367 149.464 92.1776 148.599 93.0186C148.431 93.1868 148.167 93.3911 147.806 93.6314C147.446 93.8716 146.989 94.184 146.436 94.5685L145.608 95.1451C145.872 95.1451 146.292 95.2172 146.869 95.3614C148.118 95.866 149.02 96.5748 149.572 97.4879L150.473 98.461C150.834 98.9656 150.978 99.6024 150.906 100.371C150.882 100.924 150.714 101.465 150.401 101.993L149.716 103.11L149.68 103.219C149.32 103.603 148.863 104.072 148.311 104.624C147.782 105.153 147.145 105.766 146.4 106.462C145.055 107.472 143.625 108.132 142.111 108.445C141.679 108.541 141.282 108.613 140.922 108.661C140.586 108.709 140.285 108.733 140.021 108.733ZM140.778 103.291C140.562 103.291 140.393 103.086 140.273 102.678C140.273 102.582 140.261 102.462 140.237 102.318C140.213 102.149 140.177 101.945 140.129 101.705C140.081 101.465 140.033 101.248 139.985 101.056C139.961 100.864 139.961 100.684 139.985 100.515C139.961 100.443 139.949 100.371 139.949 100.299C139.949 100.227 139.949 100.155 139.949 100.083C139.949 99.9628 139.949 99.8547 139.949 99.7585C139.973 99.6384 139.997 99.5183 140.021 99.3981C140.093 98.8455 140.129 98.473 140.129 98.2808C140.129 98.1847 140.165 98.0045 140.237 97.7402C140.309 97.4518 140.405 97.0674 140.526 96.5868C140.718 95.914 140.874 95.2773 140.994 94.6766C141.114 94.0759 141.222 93.4992 141.318 92.9465C141.415 92.5621 141.511 92.0575 141.607 91.4328C141.727 90.808 141.859 90.0752 142.003 89.2342C142.027 88.9458 142.075 88.5494 142.147 88.0448C142.244 87.5162 142.364 86.8794 142.508 86.1345C142.652 85.5338 142.892 85.2335 143.229 85.2335C143.493 85.2335 143.625 85.4137 143.625 85.7741C143.625 85.8462 143.625 85.9183 143.625 85.9904C143.625 86.0625 143.613 86.1345 143.589 86.2066C143.589 86.4469 143.517 86.9635 143.373 87.7565L143.085 89.3423C143.012 90.0872 142.508 92.6462 141.571 97.0193C141.475 97.3317 141.367 97.7882 141.246 98.3889C141.15 98.7734 141.114 99.3861 141.138 100.227C141.138 100.347 141.15 100.576 141.174 100.912C141.222 101.224 141.27 101.645 141.318 102.173V102.462C141.318 103.014 141.138 103.291 140.778 103.291ZM150.276 120.519C148.739 120.519 147.97 119.642 147.97 117.888C147.97 114.908 150.793 111.532 156.44 107.76C156.56 107.712 156.704 107.604 156.872 107.436C156.848 106.739 156.848 106.102 156.872 105.525C156.896 104.949 156.944 104.432 157.016 103.976C156.824 104.168 156.62 104.36 156.404 104.552C156.211 104.744 155.995 104.937 155.755 105.129C155.082 105.657 154.469 105.922 153.917 105.922C152.715 105.922 152.115 104.792 152.115 102.534C152.115 100.035 152.391 98.1246 152.944 96.8031C153.064 96.5868 153.232 96.4787 153.448 96.4787C153.929 96.4787 154.169 96.779 154.169 97.3798C154.169 97.8363 154.061 98.5211 153.845 99.4342C153.556 100.612 153.412 101.513 153.412 102.137C153.412 103.531 153.712 104.228 154.313 104.228C154.794 104.228 155.406 103.795 156.151 102.93C156.44 102.618 156.704 102.306 156.944 101.993C157.185 101.681 157.389 101.368 157.557 101.056L157.953 100.371L158.854 98.4971L159.143 97.8483C159.263 97.6321 159.419 97.5239 159.611 97.5239C159.972 97.5239 160.152 97.6921 160.152 98.0285C160.152 98.0766 160.128 98.1487 160.08 98.2448L160.008 98.3529V98.5692C159.599 99.3861 159.239 100.491 158.927 101.885C158.638 103.279 158.41 104.973 158.242 106.967L160.188 106.318C160.524 106.318 160.693 106.51 160.693 106.895C160.693 107.111 160.585 107.243 160.368 107.291C159.84 107.46 159.083 107.676 158.098 107.94C158.001 108.733 157.905 109.43 157.809 110.031C157.713 110.631 157.617 111.136 157.521 111.544C156.944 113.899 156.091 115.894 154.962 117.527C153.544 119.522 151.982 120.519 150.276 120.519ZM150.312 119.51C151.562 119.51 152.799 118.549 154.025 116.626C154.553 115.785 154.986 114.92 155.322 114.031C155.683 113.142 155.947 112.241 156.115 111.328C156.139 111.016 156.139 110.667 156.115 110.283C156.019 109.85 155.863 109.634 155.647 109.634C155.551 109.634 155.442 109.67 155.322 109.742L155.25 109.706C151.069 112.542 148.979 115.281 148.979 117.924C148.979 118.981 149.423 119.51 150.312 119.51ZM169.831 107.327C169.471 107.327 169.29 107.015 169.29 106.39C169.29 105.982 169.399 105.73 169.615 105.633C169.855 105.465 170.179 105.273 170.588 105.057C171.02 104.841 171.537 104.6 172.138 104.336C172.546 104.216 173.123 104.036 173.868 103.795C175.021 103.315 176.03 102.702 176.895 101.957C177.256 101.693 177.748 101.2 178.373 100.479C178.565 100.167 178.661 99.8066 178.661 99.3981C178.661 98.8455 178.541 98.413 178.301 98.1006C178.085 97.7642 177.808 97.4879 177.472 97.2716L176.463 96.6229C176.295 96.4787 176.078 96.2985 175.814 96.0822C175.55 95.866 175.249 95.6257 174.913 95.3614C174.625 95.2412 174.228 94.9649 173.724 94.5324C173.267 94.22 172.811 93.5833 172.354 92.6222C172.018 91.9253 171.765 91.3246 171.597 90.82C171.429 90.3155 171.345 89.8109 171.345 89.3063C171.345 88.1769 171.669 87.2398 172.318 86.495C172.75 85.9663 173.219 85.4137 173.724 84.837C174.252 84.2603 174.817 83.6476 175.418 82.9989C176.331 82.23 177.304 81.7254 178.337 81.4851C178.986 81.3169 179.635 81.2328 180.283 81.2328C180.548 81.2328 180.68 81.4731 180.68 81.9536C180.68 82.6745 180.488 83.0349 180.103 83.0349C179.599 83.0349 179.058 83.107 178.481 83.2512C177.208 83.5876 175.994 84.4165 174.841 85.7381C174.673 85.9303 174.432 86.2066 174.12 86.5671C173.832 86.9034 173.483 87.3119 173.075 87.7925C172.738 88.4172 172.57 88.8257 172.57 89.0179C172.57 89.2342 172.63 89.5586 172.75 89.9911C172.871 90.4236 173.039 90.8681 173.255 91.3246C173.616 92.0695 174 92.6462 174.408 93.0547L175.49 93.7034C175.73 93.8957 175.97 94.0999 176.211 94.3162C176.475 94.5324 176.751 94.7607 177.04 95.001C177.4 95.2412 177.76 95.4935 178.121 95.7578C178.481 95.9981 178.83 96.3345 179.166 96.767C179.575 97.3197 179.779 98.0646 179.779 99.0017C179.779 99.9147 179.562 100.756 179.13 101.525C178.818 102.053 178.241 102.69 177.4 103.435C176.871 103.915 176.331 104.336 175.778 104.696C175.249 105.033 174.709 105.321 174.156 105.561L172.354 106.102L170.011 107.291L169.831 107.327ZM189.959 106.21C189.839 106.21 189.73 106.162 189.634 106.066C188.986 105.393 188.649 104.408 188.625 103.11C188.625 103.014 188.637 102.906 188.661 102.786C188.685 102.642 188.697 102.486 188.697 102.318L188.733 101.561V101.453C188.733 101.02 188.577 100.864 188.265 100.984C187.784 101.32 187.135 101.813 186.318 102.462C185.526 103.086 184.564 103.855 183.435 104.768C182.955 105.225 182.342 105.453 181.597 105.453C181.164 105.453 180.792 105.225 180.48 104.768C180.191 104.288 180.083 103.831 180.155 103.399C180.227 102.774 180.48 102.101 180.912 101.38C181.345 100.636 181.873 99.9027 182.498 99.1819C183.147 98.437 183.832 97.7882 184.552 97.2356C185.297 96.6589 186.006 96.2504 186.679 96.0101C186.943 95.914 187.195 95.8419 187.436 95.7939C187.676 95.7458 187.916 95.7218 188.157 95.7218C189.19 95.7218 189.706 96.0822 189.706 96.8031C189.706 97.0434 189.61 97.1635 189.418 97.1635C189.346 97.1635 189.274 97.1635 189.202 97.1635C189.13 97.1395 189.058 97.1034 188.986 97.0554C188.553 96.6949 188.157 96.5147 187.796 96.5147C187.436 96.5147 186.907 96.731 186.21 97.1635C185.658 97.4999 185.117 97.9204 184.588 98.425C184.06 98.9296 183.555 99.4942 183.075 100.119C182.618 100.72 182.258 101.26 181.993 101.741C181.729 102.197 181.573 102.606 181.525 102.966C181.501 103.062 181.489 103.183 181.489 103.327C181.489 103.711 181.645 103.903 181.957 103.903C182.342 103.903 183.063 103.555 184.12 102.858C186.643 101.176 188.397 99.6865 189.382 98.3889C189.622 98.0766 189.839 97.6561 190.031 97.1275C190.151 96.7911 190.403 96.6229 190.788 96.6229C191.22 96.6229 191.436 96.8631 191.436 97.3437C191.436 97.7282 191.256 98.2087 190.896 98.7854C190.319 100.539 190.031 101.753 190.031 102.426C190.079 103.459 190.331 104.288 190.788 104.913C190.86 104.985 190.896 105.081 190.896 105.201C190.896 105.417 190.788 105.633 190.571 105.85C190.355 106.09 190.151 106.21 189.959 106.21ZM196.452 107.94C195.852 107.94 195.551 107.58 195.551 106.859C195.551 103.279 195.804 99.4702 196.308 95.4335C196.068 95.3854 195.816 95.3494 195.551 95.3253C195.311 95.2773 195.071 95.2292 194.83 95.1812C194.158 95.0851 193.821 94.8928 193.821 94.6045C193.821 94.3162 193.965 94.1359 194.254 94.0639H194.218C194.001 94.0639 194.037 94.0518 194.326 94.0278C194.614 93.9798 194.987 93.9317 195.443 93.8836C195.9 93.8356 196.26 93.8116 196.524 93.8116C196.669 92.9706 196.957 91.9734 197.389 90.82C197.63 90.1232 197.822 89.5225 197.966 89.0179C198.134 88.4893 198.266 88.0688 198.363 87.7565C198.483 87.2759 198.795 87.0356 199.3 87.0356C199.516 87.0356 199.6 87.1437 199.552 87.36C199.36 88.0328 199.119 88.9098 198.831 89.9911C198.543 91.0483 198.23 92.3098 197.894 93.7755C198.11 93.7755 198.375 93.7755 198.687 93.7755C199.023 93.7755 199.408 93.7875 199.84 93.8116C200.273 93.8356 200.645 93.8596 200.958 93.8836C201.294 93.8836 201.558 93.8836 201.75 93.8836C201.967 93.8836 202.075 93.9677 202.075 94.1359C202.075 94.2801 201.979 94.4363 201.787 94.6045C201.618 94.7727 201.426 94.8568 201.21 94.8568C200.922 94.8568 200.489 94.9048 199.912 95.001C199.336 95.073 198.603 95.1932 197.714 95.3614C197.353 98.3169 197.173 102.33 197.173 107.4C197.173 107.76 196.933 107.94 196.452 107.94ZM199.412 120.519C197.874 120.519 197.106 119.642 197.106 117.888C197.106 114.908 199.929 111.532 205.575 107.76C205.696 107.712 205.84 107.604 206.008 107.436C205.984 106.739 205.984 106.102 206.008 105.525C206.032 104.949 206.08 104.432 206.152 103.976C205.96 104.168 205.756 104.36 205.539 104.552C205.347 104.744 205.131 104.937 204.891 105.129C204.218 105.657 203.605 105.922 203.053 105.922C201.851 105.922 201.25 104.792 201.25 102.534C201.25 100.035 201.527 98.1246 202.079 96.8031C202.2 96.5868 202.368 96.4787 202.584 96.4787C203.065 96.4787 203.305 96.779 203.305 97.3798C203.305 97.8363 203.197 98.5211 202.98 99.4342C202.692 100.612 202.548 101.513 202.548 102.137C202.548 103.531 202.848 104.228 203.449 104.228C203.93 104.228 204.542 103.795 205.287 102.93C205.575 102.618 205.84 102.306 206.08 101.993C206.32 101.681 206.525 101.368 206.693 101.056L207.089 100.371L207.99 98.4971L208.279 97.8483C208.399 97.6321 208.555 97.5239 208.747 97.5239C209.108 97.5239 209.288 97.6921 209.288 98.0285C209.288 98.0766 209.264 98.1487 209.216 98.2448L209.144 98.3529V98.5692C208.735 99.3861 208.375 100.491 208.062 101.885C207.774 103.279 207.546 104.973 207.378 106.967L209.324 106.318C209.66 106.318 209.828 106.51 209.828 106.895C209.828 107.111 209.72 107.243 209.504 107.291C208.975 107.46 208.219 107.676 207.233 107.94C207.137 108.733 207.041 109.43 206.945 110.031C206.849 110.631 206.753 111.136 206.657 111.544C206.08 113.899 205.227 115.894 204.098 117.527C202.68 119.522 201.118 120.519 199.412 120.519ZM199.448 119.51C200.698 119.51 201.935 118.549 203.161 116.626C203.689 115.785 204.122 114.92 204.458 114.031C204.819 113.142 205.083 112.241 205.251 111.328C205.275 111.016 205.275 110.667 205.251 110.283C205.155 109.85 204.999 109.634 204.783 109.634C204.686 109.634 204.578 109.67 204.458 109.742L204.386 109.706C200.205 112.542 198.115 115.281 198.115 117.924C198.115 118.981 198.559 119.51 199.448 119.51ZM220.123 106.21C220.003 106.21 219.895 106.162 219.799 106.066C219.15 105.393 218.814 104.408 218.79 103.11C218.79 103.014 218.802 102.906 218.826 102.786C218.85 102.642 218.862 102.486 218.862 102.318L218.898 101.561V101.453C218.898 101.02 218.741 100.864 218.429 100.984C217.949 101.32 217.3 101.813 216.483 102.462C215.69 103.086 214.729 103.855 213.599 104.768C213.119 105.225 212.506 105.453 211.761 105.453C211.329 105.453 210.956 105.225 210.644 104.768C210.356 104.288 210.247 103.831 210.32 103.399C210.392 102.774 210.644 102.101 211.076 101.38C211.509 100.636 212.038 99.9027 212.662 99.1819C213.311 98.437 213.996 97.7882 214.717 97.2356C215.462 96.6589 216.17 96.2504 216.843 96.0101C217.108 95.914 217.36 95.8419 217.6 95.7939C217.84 95.7458 218.081 95.7218 218.321 95.7218C219.354 95.7218 219.871 96.0822 219.871 96.8031C219.871 97.0434 219.775 97.1635 219.582 97.1635C219.51 97.1635 219.438 97.1635 219.366 97.1635C219.294 97.1395 219.222 97.1034 219.15 97.0554C218.717 96.6949 218.321 96.5147 217.961 96.5147C217.6 96.5147 217.071 96.731 216.375 97.1635C215.822 97.4999 215.281 97.9204 214.753 98.425C214.224 98.9296 213.72 99.4942 213.239 100.119C212.782 100.72 212.422 101.26 212.158 101.741C211.893 102.197 211.737 102.606 211.689 102.966C211.665 103.062 211.653 103.183 211.653 103.327C211.653 103.711 211.809 103.903 212.122 103.903C212.506 103.903 213.227 103.555 214.284 102.858C216.807 101.176 218.561 99.6865 219.546 98.3889C219.787 98.0766 220.003 97.6561 220.195 97.1275C220.315 96.7911 220.568 96.6229 220.952 96.6229C221.385 96.6229 221.601 96.8631 221.601 97.3437C221.601 97.7282 221.421 98.2087 221.06 98.7854C220.483 100.539 220.195 101.753 220.195 102.426C220.243 103.459 220.496 104.288 220.952 104.913C221.024 104.985 221.06 105.081 221.06 105.201C221.06 105.417 220.952 105.633 220.736 105.85C220.52 106.09 220.315 106.21 220.123 106.21ZM224.346 105.922C223.889 105.922 223.661 105.694 223.661 105.237C223.685 104.228 223.793 103.014 223.986 101.597C224.106 100.684 224.214 99.9147 224.31 99.29C224.406 98.6653 224.466 98.1967 224.49 97.8843C224.538 97.548 224.706 97.3798 224.995 97.3798C225.259 97.3798 225.391 97.5359 225.391 97.8483C225.391 98.7133 225.391 99.4222 225.391 99.9748C225.391 100.503 225.379 100.876 225.355 101.092V101.164C225.355 101.404 225.451 101.525 225.643 101.525C225.74 101.525 225.836 101.453 225.932 101.308C226.797 99.9628 227.734 99.29 228.743 99.29C229.2 99.29 229.536 99.6024 229.752 100.227C229.8 100.347 229.86 100.576 229.932 100.912C230.029 101.224 230.125 101.645 230.221 102.173C230.293 102.486 230.449 102.642 230.689 102.642C230.834 102.642 231.026 102.558 231.266 102.39C231.386 102.318 231.566 102.185 231.807 101.993C232.071 101.801 232.395 101.549 232.78 101.236C234.414 99.9628 235.399 99.326 235.735 99.326C236.312 99.326 236.757 100.227 237.069 102.029C237.357 103.567 237.67 104.336 238.006 104.336C238.102 104.336 238.306 104.372 238.619 104.444C238.907 104.468 239.087 104.468 239.159 104.444C239.207 104.42 239.255 104.408 239.304 104.408C239.352 104.384 239.4 104.372 239.448 104.372C239.76 104.372 239.916 104.516 239.916 104.804C239.916 105.141 239.652 105.417 239.123 105.633C238.739 105.802 238.258 105.85 237.682 105.778C237.129 105.778 236.672 105.405 236.312 104.66C236.168 104.324 235.952 103.627 235.663 102.57C235.471 101.801 235.267 101.416 235.051 101.416C234.762 101.416 234.342 101.573 233.789 101.885C233.236 102.197 232.684 102.558 232.131 102.966C231.578 103.375 231.134 103.759 230.798 104.12C230.701 104.24 230.521 104.3 230.257 104.3C229.728 104.3 229.428 104.18 229.356 103.939C228.899 102.185 228.515 101.308 228.202 101.308C227.41 101.308 226.701 101.813 226.076 102.822C225.908 103.086 225.74 103.435 225.571 103.867C225.403 104.3 225.223 104.829 225.031 105.453C224.935 105.694 224.851 105.79 224.778 105.742C224.658 105.862 224.514 105.922 224.346 105.922Z" fill="black"/>
</svg>
