<?xml version="1.0" encoding="utf-8"?>
<!-- Generator: Adobe Illustrator 27.5.0, SVG Export Plug-In . SVG Version: 6.00 Build 0)  -->
<svg version="1.1" xmlns="http://www.w3.org/2000/svg" xmlns:xlink="http://www.w3.org/1999/xlink" x="0px" y="0px"
	 viewBox="0 0 500 500" style="enable-background:new 0 0 500 500;" xml:space="preserve">
<g id="BACKGROUND">
	<rect style="fill:#F9FBFC;" width="500" height="500"/>
</g>
<g id="OBJECTS">
	<g>
		<path style="fill:#D4EBF8;" d="M363.135,87.015c-1.113,0-2.226,0.072-3.34,0.179c-13.305,1.472-24.168,12.173-25.801,25.46
			c-1.329,10.719,3.268,21.277,11.976,27.561c2.548,1.83,4.612,4.18,6.048,6.872h-3.366v2.407h-0.561v2.503h0.561v1.86h-0.561v2.503
			h0.561v1.86h-0.561v2.503h0.561v1.86h-0.561v2.503h0.608c0.234,2.086,1.984,3.713,4.132,3.713h2.243v1.136
			c0,1.596,1.294,2.889,2.889,2.889h10.329c1.596,0,2.889-1.294,2.889-2.889v-1.136h2.243c2.148,0,3.897-1.627,4.131-3.713h0.608
			v-2.503h-0.561v-1.86h0.561v-2.503h-0.561v-1.86h0.561v-2.503h-0.561v-1.86h0.561v-2.503h-0.561v-2.407h-3.332
			c1.508-2.691,3.626-5.095,6.281-7.069c7.487-5.53,11.94-14.364,11.94-23.629C392.492,100.194,379.313,87.015,363.135,87.015z"/>
		<rect x="71.254" y="104.357" style="fill:#D4EBF8;" width="57.828" height="43.073"/>
		<rect x="136.75" y="141.727" style="fill:#D4EBF8;" width="57.828" height="32.382"/>
		
			<ellipse transform="matrix(0.9264 -0.3766 0.3766 0.9264 -52.3466 146.2462)" style="fill:#D4EBF8;" cx="347.814" cy="206.986" rx="26.171" ry="26.171"/>
		<path style="fill:#D4EBF8;" d="M306.826,151.901c-0.263-4.382-1.522-8.591-3.614-12.343l3.58-1.996
			c-1.795-3.22-4.126-6.141-6.915-8.62l-2.726,3.067c-3.15-2.799-6.947-4.965-11.27-6.198l1.117-3.925l-0.051-0.015
			c-2.998-0.848-6.025-1.255-9.003-1.254c-0.648,0-1.293,0.019-1.936,0.057l0.242,4.092c-4.382,0.259-8.593,1.515-12.346,3.604
			l-1.993-3.582c-3.221,1.792-6.144,4.121-8.626,6.908l3.065,2.729c-2.802,3.148-4.97,6.944-6.206,11.265l-3.925-1.12l-0.022,0.077
			c-0.848,2.998-1.255,6.025-1.255,9.003c-0.001,0.639,0.019,1.276,0.055,1.91l4.093-0.239c0.255,4.383,1.507,8.595,3.593,12.35
			l-3.583,1.99c1.79,3.223,4.116,6.148,6.901,8.631l2.731-3.063c3.146,2.804,6.94,4.975,11.26,6.214l-1.124,3.925l0.103,0.029
			c2.998,0.848,6.025,1.255,9.003,1.254c0.665,0,1.329-0.02,1.989-0.06l-0.249-4.091c4.382-0.266,8.589-1.53,12.34-3.625
			l1.999,3.579c3.218-1.797,6.138-4.13,8.615-6.922l-3.07-2.723c2.797-3.152,4.961-6.951,6.19-11.275l3.925,1.114l0.007-0.026
			c0.849-2.998,1.255-6.025,1.255-9.003c0-0.657-0.02-1.312-0.059-1.963L306.826,151.901z M270.79,178.971L270.79,178.971
			l0.202-0.712L270.79,178.971z M294.791,158.396c-2.175,7.704-9.199,12.733-16.821,12.735c-1.575,0-3.176-0.214-4.773-0.666
			c-7.705-2.175-12.733-9.199-12.735-16.821c0-1.575,0.215-3.176,0.666-4.773c2.175-7.705,9.198-12.733,16.821-12.735
			c1.575,0,3.176,0.214,4.773,0.666c7.704,2.175,12.733,9.199,12.735,16.821C295.456,155.198,295.242,156.799,294.791,158.396z"/>
		
			<ellipse transform="matrix(0.229 -0.9734 0.9734 0.229 142.5923 383.6644)" style="fill:#D4EBF8;" cx="313.493" cy="101.818" rx="7.721" ry="7.721"/>
		<g>
			<path style="fill:#D4EBF8;" d="M458.683,406.244c-140.372,0-280.745,0-421.117,0c-23.037-38.498-13.847-86.198,17.227-109.582
				c24.099-18.136,58.697-19.641,87.666-3.914c-1.468-10.81,3.856-21.429,13.307-26.613c9.839-5.396,22.205-3.832,30.526,3.914
				c1.776-4.024,12.955-28.281,39.919-36.789c24.442-7.712,52.132,0.584,70.446,21.134c13.528-9.581,31.243-11.083,46.181-3.914
				c14.899,7.15,24.8,21.853,25.83,38.354c28.001-11.765,59.467-8.387,80.621,9.393
				C477.887,322.262,484.024,369.572,458.683,406.244z"/>
			
				<ellipse transform="matrix(0.2298 -0.9732 0.9732 0.2298 -181.7146 310.567)" style="fill:#D4EBF8;" cx="105.352" cy="270.087" rx="69.393" ry="69.393"/>
			<circle style="fill:#D4EBF8;" cx="227.742" cy="220.191" r="69.393"/>
			
				<ellipse transform="matrix(0.5969 -0.8023 0.8023 0.5969 -111.4503 207.2684)" style="fill:#D4EBF8;" cx="150.554" cy="214.553" rx="22.196" ry="22.196"/>
		</g>
		<linearGradient id="SVGID_1_" gradientUnits="userSpaceOnUse" x1="246.6961" y1="292.0867" x2="246.6961" y2="410.8296">
			<stop  offset="0" style="stop-color:#FBD15B"/>
			<stop  offset="0.3708" style="stop-color:#FF8578"/>
			<stop  offset="1" style="stop-color:#4333F1"/>
		</linearGradient>
		<path style="fill:url(#SVGID_1_);" d="M456.265,338.773c0.17-1.192,0.263-2.409,0.263-3.649c0-14.18-11.495-25.675-25.675-25.675
			c-3.498,0-6.832,0.702-9.871,1.969c-2.027-11.897-12.38-20.956-24.855-20.956c-9.598,0-17.942,5.362-22.204,13.253
			c-19.895-9.394-44.667-8.47-65.968,3.095c1.286-9.47-3.378-18.774-11.658-23.315c-8.62-4.728-19.454-3.357-26.744,3.429
			c-1.556-3.526-11.35-24.777-34.973-32.23c-21.414-6.756-45.673,0.512-61.717,18.516c-11.851-8.394-27.372-9.709-40.459-3.429
			c-7.819,3.753-14.049,9.89-17.996,17.308c-6.809-13.785-21.003-23.27-37.418-23.27c-23.04,0-41.717,18.677-41.717,41.717
			c0,3.003,0.324,5.929,0.927,8.752c-22.49,21.743-26.587,61.133-5.287,91.957h333.807h21.515h81.728
			c5.355-7.892,8.485-17.416,8.485-27.671C476.446,362.233,468.499,347.754,456.265,338.773z"/>
		<g>
			<g>
				
					<linearGradient id="SVGID_00000125561469064252857290000011215883348294858416_" gradientUnits="userSpaceOnUse" x1="947.0973" y1="356.8345" x2="947.0973" y2="396.4413" gradientTransform="matrix(1 0 0 1 -546.8982 0)">
					<stop  offset="0" style="stop-color:#435DF1"/>
					<stop  offset="0.327" style="stop-color:#4333F1"/>
					<stop  offset="1" style="stop-color:#4C008C"/>
				</linearGradient>
				<path style="fill:url(#SVGID_00000125561469064252857290000011215883348294858416_);" d="M413.011,396.441h-11.417
					c0-6.121-4.03-12.153-7.044-17.295c-0.096-0.163-0.192-0.33-0.289-0.493c-2.596-4.486-5.97-8.65-6.969-13.867
					c-0.288-1.517-0.347-3.161,0.364-4.532c0.757-1.463,2.295-2.4,3.892-2.809C410.565,352.57,414.541,377.963,413.011,396.441z"/>
				<path style="fill:#5148FF;" d="M408.103,396.441h-0.489c-0.042-2.588-0.314-5.176-0.732-7.726
					c-0.506-3.085-1.267-6.12-2.262-9.076c-1.982-5.911-5.013-11.463-8.984-16.313c-0.326-0.414-0.038-0.635,0.305-0.268
					c4.344,4.595,7.659,10.213,9.666,16.25c1.008,3.019,1.727,6.133,2.128,9.285C408.065,391.199,408.22,393.824,408.103,396.441z"
					/>
			</g>
			
				<linearGradient id="SVGID_00000022560546745340675710000009365780972821328781_" gradientUnits="userSpaceOnUse" x1="1341.7047" y1="365.2503" x2="1341.7047" y2="396.4413" gradientTransform="matrix(-1 0 0 1 1785.3271 0)">
				<stop  offset="0" style="stop-color:#435DF1"/>
				<stop  offset="0.327" style="stop-color:#4333F1"/>
				<stop  offset="1" style="stop-color:#4C008C"/>
			</linearGradient>
			<path style="fill:url(#SVGID_00000022560546745340675710000009365780972821328781_);" d="M433.369,396.441h11.62
				c0-14.896,16.852-29.525,4.146-31.106c-4.521-0.565-7.746,1.752-10.045,5.353C433.369,379.621,433.369,396.441,433.369,396.441z"
				/>
			
				<linearGradient id="SVGID_00000084488286480990681690000010312966271407795355_" gradientUnits="userSpaceOnUse" x1="1368.5948" y1="326.1192" x2="1368.5948" y2="396.4413" gradientTransform="matrix(-1 0 0 1 1785.3271 0)">
				<stop  offset="0" style="stop-color:#435DF1"/>
				<stop  offset="0.327" style="stop-color:#4333F1"/>
				<stop  offset="1" style="stop-color:#4C008C"/>
			</linearGradient>
			<path style="fill:url(#SVGID_00000084488286480990681690000010312966271407795355_);" d="M420.651,396.441h14.261
				c2.324-21.455,1.689-75.242-29.379-69.959C381.697,330.533,420.042,361.519,420.651,396.441z"/>
			<g>
				<path style="fill:#5148FF;" d="M412.854,338.33c1.88,2.108,3.435,4.483,4.807,6.946c1.371,2.457,2.527,5.042,3.499,7.689
					c0.984,2.641,1.829,5.34,2.521,8.083c0.699,2.737,1.295,5.499,1.772,8.292c0.984,5.569,1.581,11.213,1.956,16.871
					c0.216,3.41,0.356,6.819,0.387,10.229h0.971c0.127-3.429,0.121-6.864,0-10.299c-0.222-5.715-0.756-11.435-1.759-17.087
					c-0.489-2.826-1.124-5.632-1.879-8.4c-0.743-2.775-1.663-5.505-2.749-8.172c-0.521-1.34-1.143-2.641-1.759-3.943
					c-0.673-1.276-1.321-2.559-2.095-3.772c-1.505-2.451-3.207-4.8-5.238-6.839C412.676,337.283,412.276,337.645,412.854,338.33z"/>
			</g>
			<g>
				
					<linearGradient id="SVGID_00000001647506093765552060000010035720677983466624_" gradientUnits="userSpaceOnUse" x1="1372.2952" y1="371.5143" x2="1372.2952" y2="396.4413" gradientTransform="matrix(-1 0 0 1 1785.3271 0)">
					<stop  offset="0" style="stop-color:#435DF1"/>
					<stop  offset="0.327" style="stop-color:#4333F1"/>
					<stop  offset="1" style="stop-color:#4C008C"/>
				</linearGradient>
				<path style="fill:url(#SVGID_00000001647506093765552060000010035720677983466624_);" d="M409.443,396.441h11.837
					c0,0,3.121-24.944-10.276-24.927C398.81,371.523,406.953,386.937,409.443,396.441z"/>
				<g>
					<path style="fill:#5148FF;" d="M412.971,377.673c1.76,5.611,2.507,11.488,2.922,17.34c0.025,0.473,0.05,0.955,0.075,1.428
						h1.029c-0.017-0.506-0.042-1.004-0.075-1.502c-0.432-5.918-1.419-11.853-3.594-17.407
						C413.145,377.101,412.822,377.233,412.971,377.673z"/>
				</g>
			</g>
			<g>
				<path style="fill:#5148FF;" d="M437.813,396.441h0.743c0.273-2.26,0.616-4.521,1.041-6.756c0.648-3.124,1.448-6.21,2.508-9.213
					c0.279-0.749,0.597-1.479,0.889-2.216c0.152-0.368,0.286-0.743,0.457-1.105l0.533-1.067l0.527-1.073
					c0.178-0.356,0.349-0.718,0.571-1.048l1.251-2.038c0.26-0.419,0.051-0.591-0.241-0.165l-1.359,1.994
					c-0.241,0.33-0.426,0.686-0.616,1.041l-0.584,1.06l-0.578,1.067c-0.184,0.356-0.33,0.73-0.502,1.098
					c-0.318,0.743-0.66,1.473-0.959,2.222c-1.156,3.016-2.019,6.134-2.673,9.296C438.385,391.825,438.048,394.13,437.813,396.441z"
					/>
			</g>
		</g>
		<g>
			<g>
				
					<linearGradient id="SVGID_00000093148984427479399240000004876224606302160553_" gradientUnits="userSpaceOnUse" x1="580.5445" y1="355.8539" x2="580.5445" y2="399.9135" gradientTransform="matrix(1 0 0 1 -546.8982 0)">
					<stop  offset="0" style="stop-color:#435DF1"/>
					<stop  offset="0.327" style="stop-color:#4333F1"/>
					<stop  offset="1" style="stop-color:#4C008C"/>
				</linearGradient>
				<path style="fill:url(#SVGID_00000093148984427479399240000004876224606302160553_);" d="M47.899,399.914H35.198
					c0-6.809-4.483-13.519-7.836-19.24c-0.107-0.181-0.214-0.367-0.321-0.549c-2.888-4.99-6.641-9.622-7.753-15.426
					c-0.321-1.688-0.386-3.516,0.405-5.041c0.842-1.628,2.553-2.669,4.33-3.125C45.178,351.11,49.601,379.358,47.899,399.914z"/>
				<path style="fill:#5148FF;" d="M42.439,399.914h-0.544c-0.046-2.879-0.349-5.758-0.814-8.594
					c-0.563-3.432-1.409-6.809-2.516-10.096c-2.204-6.576-5.576-12.752-9.994-18.147c-0.363-0.46-0.042-0.707,0.34-0.298
					c4.832,5.111,8.52,11.361,10.752,18.077c1.121,3.358,1.921,6.823,2.367,10.329C42.397,394.082,42.569,397.002,42.439,399.914z"
					/>
			</g>
			
				<linearGradient id="SVGID_00000134248099207070209380000012833546106512983973_" gradientUnits="userSpaceOnUse" x1="1703.3757" y1="365.2159" x2="1703.3757" y2="399.9135" gradientTransform="matrix(-1 0 0 1 1785.3271 0)">
				<stop  offset="0" style="stop-color:#435DF1"/>
				<stop  offset="0.327" style="stop-color:#4333F1"/>
				<stop  offset="1" style="stop-color:#4C008C"/>
			</linearGradient>
			<path style="fill:url(#SVGID_00000134248099207070209380000012833546106512983973_);" d="M70.545,399.914h12.926
				c0-16.571,18.746-32.845,4.612-34.603c-5.029-0.629-8.617,1.949-11.174,5.954C70.545,381.203,70.545,399.914,70.545,399.914z"/>
			
				<linearGradient id="SVGID_00000004514329732671178480000018348302978524762537_" gradientUnits="userSpaceOnUse" x1="1733.2888" y1="321.6856" x2="1733.2888" y2="399.9135" gradientTransform="matrix(-1 0 0 1 1785.3271 0)">
				<stop  offset="0" style="stop-color:#435DF1"/>
				<stop  offset="0.327" style="stop-color:#4333F1"/>
				<stop  offset="1" style="stop-color:#4C008C"/>
			</linearGradient>
			<path style="fill:url(#SVGID_00000004514329732671178480000018348302978524762537_);" d="M56.397,399.914h15.864
				c2.585-23.867,1.879-83.701-32.682-77.824C13.064,326.596,55.719,361.065,56.397,399.914z"/>
			<g>
				<path style="fill:#5148FF;" d="M47.724,335.27c2.091,2.345,3.821,4.987,5.347,7.727c1.526,2.734,2.811,5.608,3.892,8.554
					c1.095,2.938,2.034,5.94,2.804,8.992c0.777,3.044,1.441,6.117,1.971,9.225c1.095,6.195,1.759,12.474,2.176,18.767
					c0.24,3.793,0.396,7.586,0.431,11.379h1.081c0.141-3.814,0.134-7.635,0-11.457c-0.247-6.357-0.84-12.721-1.957-19.008
					c-0.544-3.143-1.25-6.265-2.091-9.345c-0.826-3.087-1.851-6.124-3.058-9.091c-0.579-1.49-1.271-2.938-1.956-4.386
					c-0.749-1.42-1.469-2.847-2.331-4.196c-1.674-2.726-3.567-5.34-5.827-7.607C47.526,334.104,47.081,334.507,47.724,335.27z"/>
			</g>
			<g>
				
					<linearGradient id="SVGID_00000088831586825477607030000008908402615724117182_" gradientUnits="userSpaceOnUse" x1="1737.4053" y1="372.1841" x2="1737.4053" y2="399.9135" gradientTransform="matrix(-1 0 0 1 1785.3271 0)">
					<stop  offset="0" style="stop-color:#435DF1"/>
					<stop  offset="0.327" style="stop-color:#4333F1"/>
					<stop  offset="1" style="stop-color:#4C008C"/>
				</linearGradient>
				<path style="fill:url(#SVGID_00000088831586825477607030000008908402615724117182_);" d="M43.93,399.914h13.167
					c0,0,3.472-27.748-11.431-27.729C32.101,372.193,41.159,389.341,43.93,399.914z"/>
				<g>
					<path style="fill:#5148FF;" d="M47.854,379.036c1.958,6.242,2.789,12.78,3.25,19.289c0.028,0.526,0.055,1.062,0.083,1.588
						h1.145c-0.019-0.563-0.046-1.117-0.083-1.671c-0.48-6.584-1.579-13.186-3.998-19.363
						C48.048,378.398,47.688,378.546,47.854,379.036z"/>
				</g>
			</g>
			<g>
				<path style="fill:#5148FF;" d="M75.489,399.914h0.826c0.304-2.515,0.685-5.029,1.158-7.516c0.72-3.475,1.611-6.908,2.79-10.249
					c0.311-0.833,0.664-1.646,0.989-2.465c0.17-0.41,0.318-0.826,0.509-1.229l0.593-1.187l0.586-1.194
					c0.198-0.395,0.388-0.798,0.636-1.165l1.392-2.267c0.29-0.466,0.057-0.657-0.268-0.184l-1.511,2.218
					c-0.269,0.367-0.473,0.763-0.685,1.158l-0.65,1.18l-0.643,1.187c-0.205,0.396-0.367,0.812-0.558,1.222
					c-0.353,0.826-0.735,1.639-1.067,2.472c-1.286,3.355-2.246,6.823-2.974,10.341C76.125,394.778,75.751,397.342,75.489,399.914z"
					/>
			</g>
		</g>
		<g>
			<g>
				
					<linearGradient id="SVGID_00000121962968032392415250000011848206678174418599_" gradientUnits="userSpaceOnUse" x1="48.373" y1="368.7044" x2="48.373" y2="472.4202" gradientTransform="matrix(0.9947 0.1032 -0.1032 0.9947 55.604 -95.6363)">
					<stop  offset="0" style="stop-color:#26E6FF"/>
					<stop  offset="0.4856" style="stop-color:#4189FF"/>
					<stop  offset="0.8345" style="stop-color:#534CFF"/>
					<stop  offset="1" style="stop-color:#5A35FF"/>
				</linearGradient>
				<path style="fill:url(#SVGID_00000121962968032392415250000011848206678174418599_);" d="M93.383,334.18
					c-5.628-2.986-13.488,9.138-13.488,9.138c2.704-8.263,11.812-29.496,3.891-34.752c-6.429-4.266-13.458,3.945-15.824,10.315
					c1.891-7.343,9.756-30.196,2.197-33.249c-6.604-2.667-11.437,8.178-12.352,14.455c-0.782-6.512-1.768-28.587-13.933-25.734
					c-11.714,3.028-5.013,23.329-1.93,30.736c-3.51-4.396-12.31-13.409-16.885-6.425c-7.416,11.32,20.51,29.724,20.51,29.724
					c-0.001,0.001-16.733-5.43-16.605,4.826c0.18,14.51,17.041,21.924,29.44,22.708c-17.727-1.548-16.011,14.792-3.405,21.196
					c10.597,5.383,23.526,4.482,33.464-1.997C95.134,368.023,101.935,338.718,93.383,334.18z"/>
				
					<linearGradient id="SVGID_00000095325805004431947400000001319759512974458263_" gradientUnits="userSpaceOnUse" x1="13.4104" y1="427.754" x2="98.1457" y2="427.754" gradientTransform="matrix(0.9947 0.1032 -0.1032 0.9947 55.604 -95.6363)">
					<stop  offset="0" style="stop-color:#5277FF"/>
					<stop  offset="1" style="stop-color:#30009F"/>
				</linearGradient>
				<path style="fill:url(#SVGID_00000095325805004431947400000001319759512974458263_);" d="M86.573,353.435
					c-0.714,2.232-1.54,4.433-2.433,6.572c-0.691,1.654-1.493,3.251-2.355,4.79c-5.498-7.125-10.489-14.639-14.927-22.468
					c1.405-2.004,2.761-4.075,3.95-6.206c1.309-2.345,2.539-4.835,3.636-7.325c1.096-2.49,2.077-5.045,2.944-7.618
					c0.867-2.572,1.649-5.165,2.221-7.796c-0.664,2.603-1.535,5.153-2.49,7.672c-0.955,2.52-2.021,5.011-3.199,7.424
					c-1.178,2.413-2.488,4.81-3.867,7.051c-1.183,1.923-2.513,3.785-3.886,5.57c-3.443-6.096-6.582-12.546-9.256-19.017
					c1.252-2.395,2.482-4.795,3.484-7.331c0.581-1.287,1.027-2.65,1.554-3.958c0.446-1.354,0.939-2.692,1.352-4.038
					c0.822-2.679,1.625-5.429,2.281-8.172c0.656-2.741,1.242-5.496,1.65-8.274c-0.501,2.755-1.178,5.474-1.924,8.172
					c-0.746,2.699-1.638,5.394-2.545,8.008c-0.455,1.312-0.991,2.613-1.478,3.928c-0.568,1.267-1.054,2.588-1.673,3.826
					c-0.974,2.214-2.132,4.299-3.316,6.361c-5.022-12.964-8.761-25.893-11.45-39.524c2.335,13.756,5.746,26.833,10.44,39.981
					c-2.211-0.572-4.423-1.297-6.596-2.283c-2.501-1.135-4.986-2.465-7.384-4.046c-2.393-1.578-4.764-3.344-7.032-5.307
					c-2.269-1.964-4.472-4.106-6.543-6.472c2.013,2.455,4.169,4.697,6.401,6.764c2.231,2.067,4.575,3.942,6.955,5.633
					c2.385,1.694,4.871,3.142,7.391,4.395c2.408,1.197,4.882,2.085,7.374,2.788c2.751,6.688,5.653,13.076,8.882,19.547
					c-2.101,0.496-4.315,0.767-6.542,0.702c-2.58-0.075-5.278-0.475-7.925-1.157c-2.653-0.684-5.335-1.639-7.969-2.823
					c-2.636-1.185-5.258-2.584-7.804-4.277c2.514,1.8,5.12,3.314,7.751,4.614c2.63,1.299,5.321,2.373,8.002,3.173
					c2.675,0.798,5.42,1.316,8.076,1.496c2.373,0.16,4.76-0.043,7.051-0.517c4.265,8.009,9.095,15.716,14.444,23.046
					c-1.941,0.527-3.929,0.957-5.975,1.211c-2.56,0.318-5.187,0.491-7.85,0.442c-2.658-0.049-5.377-0.243-8.107-0.632
					c-2.731-0.389-5.492-0.94-8.263-1.726c2.773,0.903,5.547,1.572,8.3,2.076c2.752,0.504,5.502,0.811,8.2,0.967
					c2.704,0.157,5.382,0.088,8.005-0.134c2.22-0.188,4.387-0.58,6.512-1.086c6.373,8.517,13.361,16.639,21.065,23.987
					c0.918-0.999,1.378-1.498,2.297-2.495c-7.781-7.034-14.876-14.851-21.378-23.071c0.878-1.751,1.682-3.549,2.351-5.399
					c0.806-2.231,1.54-4.505,2.16-6.798c0.619-2.29,1.196-4.6,1.702-6.905c0.506-2.305,0.973-4.615,1.348-6.927
					c-0.47,2.287-1.031,4.563-1.631,6.828C87.956,348.944,87.285,351.204,86.573,353.435z"/>
			</g>
		</g>
		<g>
			<g>
				
					<linearGradient id="SVGID_00000003072853640242638310000012735191519838769041_" gradientUnits="userSpaceOnUse" x1="277.7602" y1="356.2467" x2="277.7602" y2="459.9625" gradientTransform="matrix(-0.9947 0.1032 0.1032 0.9947 483.4567 -95.6363)">
					<stop  offset="0" style="stop-color:#26E6FF"/>
					<stop  offset="0.4856" style="stop-color:#4189FF"/>
					<stop  offset="0.8345" style="stop-color:#534CFF"/>
					<stop  offset="1" style="stop-color:#5A35FF"/>
				</linearGradient>
				<path style="fill:url(#SVGID_00000003072853640242638310000012735191519838769041_);" d="M216.221,345.461
					c5.628-2.986,13.487,9.138,13.487,9.138c-2.704-8.263-11.812-29.496-3.891-34.752c6.429-4.266,13.458,3.945,15.824,10.315
					c-1.891-7.343-9.756-30.196-2.197-33.248c6.604-2.667,11.436,8.178,12.352,14.455c0.782-6.512,1.768-28.587,13.933-25.734
					c11.714,3.028,5.013,23.329,1.93,30.736c3.51-4.396,12.31-13.409,16.885-6.425c7.416,11.32-20.51,29.724-20.51,29.724
					c0.001,0.001,16.733-5.43,16.605,4.826c-0.18,14.51-17.041,21.924-29.44,22.708c17.727-1.548,16.011,14.792,3.405,21.196
					c-10.597,5.383-23.526,4.482-33.463-1.997C214.469,379.304,207.669,349.999,216.221,345.461z"/>
				
					<linearGradient id="SVGID_00000173128367254613787950000015030878006869119647_" gradientUnits="userSpaceOnUse" x1="242.7976" y1="415.2964" x2="327.533" y2="415.2964" gradientTransform="matrix(-0.9947 0.1032 0.1032 0.9947 483.4567 -95.6363)">
					<stop  offset="0" style="stop-color:#5277FF"/>
					<stop  offset="1" style="stop-color:#30009F"/>
				</linearGradient>
				<path style="fill:url(#SVGID_00000173128367254613787950000015030878006869119647_);" d="M223.031,364.716
					c0.713,2.232,1.54,4.433,2.433,6.572c0.691,1.654,1.493,3.251,2.355,4.79c5.498-7.125,10.489-14.639,14.927-22.468
					c-1.405-2.004-2.761-4.075-3.95-6.205c-1.309-2.345-2.539-4.835-3.636-7.325c-1.096-2.49-2.077-5.045-2.944-7.618
					c-0.867-2.572-1.649-5.165-2.221-7.796c0.664,2.603,1.535,5.153,2.49,7.672c0.955,2.52,2.021,5.011,3.199,7.424
					c1.178,2.413,2.488,4.81,3.867,7.051c1.184,1.923,2.513,3.785,3.886,5.57c3.443-6.096,6.582-12.546,9.256-19.017
					c-1.252-2.395-2.482-4.795-3.484-7.331c-0.581-1.287-1.027-2.65-1.554-3.958c-0.446-1.354-0.939-2.692-1.352-4.038
					c-0.822-2.679-1.625-5.429-2.281-8.172c-0.656-2.741-1.242-5.496-1.65-8.274c0.501,2.755,1.178,5.474,1.924,8.172
					c0.746,2.699,1.638,5.394,2.545,8.008c0.455,1.312,0.991,2.613,1.478,3.928c0.568,1.267,1.054,2.588,1.673,3.826
					c0.975,2.214,2.132,4.299,3.316,6.361c5.022-12.964,8.761-25.893,11.45-39.524c-2.335,13.756-5.746,26.833-10.439,39.982
					c2.211-0.572,4.423-1.297,6.597-2.283c2.501-1.135,4.986-2.465,7.384-4.046c2.393-1.578,4.764-3.344,7.032-5.307
					c2.269-1.964,4.471-4.106,6.543-6.472c-2.013,2.455-4.169,4.697-6.401,6.764c-2.231,2.067-4.575,3.942-6.955,5.633
					c-2.385,1.694-4.871,3.142-7.391,4.395c-2.408,1.197-4.882,2.085-7.374,2.788c-2.751,6.688-5.653,13.076-8.882,19.547
					c2.101,0.496,4.315,0.767,6.541,0.703c2.58-0.075,5.278-0.475,7.926-1.157c2.653-0.684,5.335-1.639,7.969-2.822
					c2.636-1.185,5.259-2.584,7.804-4.277c-2.514,1.8-5.12,3.314-7.751,4.614c-2.63,1.299-5.321,2.373-8.002,3.173
					c-2.675,0.798-5.42,1.316-8.076,1.496c-2.373,0.16-4.76-0.043-7.051-0.517c-4.265,8.009-9.095,15.716-14.444,23.046
					c1.941,0.527,3.929,0.957,5.975,1.211c2.56,0.318,5.187,0.491,7.85,0.442c2.658-0.049,5.377-0.243,8.107-0.632
					c2.731-0.389,5.492-0.94,8.263-1.726c-2.773,0.903-5.547,1.572-8.3,2.076c-2.752,0.504-5.501,0.811-8.2,0.967
					c-2.704,0.157-5.382,0.088-8.005-0.134c-2.22-0.188-4.387-0.58-6.512-1.086c-6.373,8.517-13.361,16.639-21.065,23.987
					c-0.918-0.999-1.378-1.498-2.297-2.495c7.781-7.034,14.876-14.851,21.378-23.071c-0.878-1.751-1.682-3.549-2.351-5.399
					c-0.807-2.231-1.54-4.505-2.16-6.798c-0.619-2.29-1.196-4.6-1.702-6.905c-0.506-2.305-0.973-4.615-1.348-6.927
					c0.469,2.287,1.03,4.563,1.631,6.828C221.647,360.225,222.318,362.486,223.031,364.716z"/>
			</g>
		</g>
		<g>
			<g>
				
					<linearGradient id="SVGID_00000087410902283994530500000013247657033615951805_" gradientUnits="userSpaceOnUse" x1="84.5044" y1="406.2065" x2="84.5044" y2="474.0114" gradientTransform="matrix(-0.9038 0.428 0.428 0.9038 331.0413 -83.6836)">
					<stop  offset="0" style="stop-color:#26E6FF"/>
					<stop  offset="0.4856" style="stop-color:#4189FF"/>
					<stop  offset="0.8345" style="stop-color:#534CFF"/>
					<stop  offset="1" style="stop-color:#5A35FF"/>
				</linearGradient>
				<path style="fill:url(#SVGID_00000087410902283994530500000013247657033615951805_);" d="M424.058,361.444
					c2.821-3.064,10.302,2.702,10.302,2.702c-3.463-4.506-13.694-15.618-9.953-20.58c3.036-4.027,9.155-0.493,11.999,2.92
					c-2.762-4.116-12.578-16.497-8.582-20.021c3.492-3.08,8.829,2.556,10.758,6.227c-0.933-4.185-5.124-18.009,2.997-18.894
					c7.88-0.679,8.162,13.294,7.871,18.53c1.209-3.473,4.675-10.943,9.014-7.631c7.033,5.367-6.184,22.784-6.184,22.784
					c0.001,0.001,9.136-6.985,11.287-0.634c3.043,8.985-5.741,17.221-13.215,20.4c10.593-4.807,13.087,5.64,6.707,12.328
					c-5.363,5.622-13.53,7.877-21.065,6.043C430.335,382.69,419.772,366.1,424.058,361.444z"/>
				
					<linearGradient id="SVGID_00000127723816696187325100000003667915174651465901_" gradientUnits="userSpaceOnUse" x1="61.6485" y1="444.8112" x2="117.0407" y2="444.8112" gradientTransform="matrix(-0.9038 0.428 0.428 0.9038 331.0413 -83.6836)">
					<stop  offset="0" style="stop-color:#5277FF"/>
					<stop  offset="1" style="stop-color:#30009F"/>
				</linearGradient>
				<path style="fill:url(#SVGID_00000127723816696187325100000003667915174651465901_);" d="M432.443,371.835
					c0.925,1.221,1.913,2.398,2.928,3.523c0.785,0.87,1.627,1.68,2.493,2.441c1.841-5.588,3.285-11.305,4.319-17.097
					c-1.301-0.93-2.588-1.912-3.784-2.967c-1.316-1.161-2.617-2.429-3.834-3.726c-1.217-1.297-2.377-2.659-3.471-4.057
					c-1.094-1.397-2.139-2.826-3.064-4.324c0.975,1.46,2.066,2.843,3.203,4.189c1.137,1.346,2.335,2.65,3.586,3.882
					c1.25,1.232,2.579,2.425,3.917,3.507c1.148,0.928,2.372,1.788,3.607,2.59c0.797-4.507,1.331-9.166,1.573-13.736
					c-1.292-1.205-2.573-2.417-3.742-3.763c-0.638-0.667-1.209-1.411-1.819-2.102c-0.569-0.738-1.164-1.456-1.711-2.195
					c-1.089-1.473-2.182-2.994-3.183-4.543c-1-1.547-1.961-3.119-2.816-4.743c0.908,1.59,1.916,3.119,2.963,4.62
					c1.047,1.502,2.182,2.97,3.31,4.384c0.566,0.71,1.179,1.396,1.765,2.1c0.626,0.658,1.212,1.366,1.863,1.995
					c1.082,1.153,2.249,2.187,3.427,3.201c0.278-9.085-0.227-17.868-1.532-26.857c1.55,8.988,2.29,17.792,2.254,26.919
					c1.239-0.833,2.445-1.761,3.571-2.841c1.296-1.243,2.539-2.603,3.673-4.1c1.133-1.493,2.21-3.097,3.182-4.8
					c0.972-1.704,1.864-3.504,2.627-5.412c-0.708,1.951-1.549,3.802-2.476,5.562c-0.926,1.759-1.964,3.425-3.064,4.985
					c-1.102,1.563-2.32,2.996-3.602,4.316c-1.224,1.261-2.557,2.347-3.94,3.322c-0.242,4.721-0.643,9.291-1.227,13.982
					c1.403-0.15,2.827-0.465,4.186-0.989c1.575-0.607,3.151-1.44,4.635-2.436c1.487-0.998,2.933-2.17,4.3-3.473
					c1.368-1.303,2.68-2.736,3.882-4.333c-1.159,1.656-2.436,3.156-3.776,4.529c-1.339,1.373-2.765,2.62-4.244,3.695
					c-1.476,1.073-3.055,1.99-4.654,2.678c-1.428,0.615-2.944,1.008-4.46,1.214c-0.888,5.865-2.191,11.667-3.896,17.348
					c1.311-0.097,2.63-0.264,3.947-0.552c1.647-0.36,3.305-0.825,4.936-1.434c1.628-0.608,3.262-1.318,4.861-2.152
					c1.599-0.833,3.182-1.773,4.719-2.86c-1.513,1.16-3.078,2.175-4.666,3.084c-1.587,0.909-3.216,1.696-4.845,2.379
					c-1.633,0.684-3.299,1.224-4.965,1.658c-1.41,0.367-2.831,0.596-4.251,0.746c-2.078,6.636-4.621,13.163-7.773,19.368
					c-0.783-0.416-1.175-0.624-1.959-1.039c3.268-6.028,5.944-12.39,8.165-18.871c-0.922-0.889-1.809-1.823-2.623-2.818
					c-0.982-1.2-1.929-2.443-2.809-3.722c-0.88-1.277-1.737-2.576-2.55-3.888c-0.813-1.311-1.603-2.634-2.337-3.978
					c0.787,1.308,1.627,2.589,2.49,3.855C430.613,369.367,431.518,370.615,432.443,371.835z"/>
			</g>
		</g>
		<g>
			<g>
				
					<linearGradient id="SVGID_00000174601308081031199280000016194987534150297494_" gradientUnits="userSpaceOnUse" x1="72.0311" y1="438.1011" x2="72.0311" y2="485.6593" gradientTransform="matrix(-0.9853 -0.171 -0.171 0.9853 609.4049 -71.7563)">
					<stop  offset="0" style="stop-color:#26E6FF"/>
					<stop  offset="0.4856" style="stop-color:#4189FF"/>
					<stop  offset="0.8345" style="stop-color:#534CFF"/>
					<stop  offset="1" style="stop-color:#5A35FF"/>
				</linearGradient>
				<path style="fill:url(#SVGID_00000174601308081031199280000016194987534150297494_);" d="M444.052,369.762
					c2.855-0.617,4.813,5.713,4.813,5.713c-0.164-3.983-1.537-14.488,2.612-15.82c3.368-1.081,5.447,3.417,5.698,6.523
					c0.08-3.476-0.543-14.54,3.173-14.946c3.246-0.354,4.028,5.033,3.65,7.918c1.156-2.776,4.341-12.395,9.354-9.62
					c4.792,2.795-0.694,10.919-2.977,13.803c2.097-1.503,7.103-4.384,8.252-0.732c1.862,5.919-12.754,10.562-12.754,10.562
					c0,0.001,8.06-0.311,6.726,4.198c-1.887,6.381-10.251,7.552-15.82,6.353c8.015,1.525,5.223,8.522-1.138,9.778
					c-5.347,1.055-10.94-0.953-14.518-5.05C439.063,384.478,439.713,370.699,444.052,369.762z"/>
				
					<linearGradient id="SVGID_00000048485050420689538950000003562962049504631477_" gradientUnits="userSpaceOnUse" x1="56.0001" y1="465.1783" x2="94.8518" y2="465.1783" gradientTransform="matrix(-0.9853 -0.171 -0.171 0.9853 609.4049 -71.7563)">
					<stop  offset="0" style="stop-color:#5277FF"/>
					<stop  offset="1" style="stop-color:#30009F"/>
				</linearGradient>
				<path style="fill:url(#SVGID_00000048485050420689538950000003562962049504631477_);" d="M444.658,379.107
					c0.037,1.074,0.127,2.148,0.255,3.203c0.099,0.816,0.254,1.62,0.442,2.407c3.314-2.459,6.452-5.153,9.386-8.055
					c-0.37-1.059-0.711-2.142-0.97-3.23c-0.285-1.198-0.518-2.45-0.692-3.685c-0.174-1.235-0.288-2.485-0.35-3.728
					c-0.062-1.243-0.084-2.485-0.009-3.717c-0.031,1.232,0.035,2.465,0.143,3.696c0.108,1.231,0.267,2.463,0.487,3.674
					c0.219,1.211,0.499,2.433,0.828,3.593c0.283,0.996,0.637,1.984,1.021,2.942c2.279-2.261,4.468-4.716,6.454-7.239
					c-0.254-1.213-0.498-2.425-0.624-3.669c-0.096-0.64-0.123-1.297-0.193-1.94c-0.028-0.653-0.079-1.305-0.094-1.95
					c-0.029-1.285-0.041-2.598,0.012-3.891c0.052-1.291,0.136-2.58,0.303-3.857c-0.122,1.278-0.162,2.562-0.169,3.846
					c-0.007,1.284,0.051,2.585,0.125,3.851c0.037,0.636,0.112,1.277,0.163,1.917c0.093,0.63,0.143,1.273,0.262,1.897
					c0.154,1.098,0.405,2.163,0.671,3.22c3.831-5.095,7.092-10.335,9.977-16.015c-2.744,5.779-5.878,11.125-9.588,16.343
					c1.047,0.023,2.113-0.021,3.195-0.186c1.245-0.189,2.507-0.466,3.763-0.866c1.253-0.398,2.519-0.882,3.764-1.466
					c1.246-0.584,2.485-1.255,3.694-2.041c-1.194,0.833-2.425,1.553-3.667,2.188c-1.242,0.634-2.51,1.17-3.771,1.619
					c-1.264,0.451-2.541,0.78-3.809,1.019c-1.212,0.228-2.414,0.312-3.602,0.312c-2.047,2.609-4.124,5.066-6.354,7.519
					c0.865,0.481,1.809,0.876,2.799,1.125c1.148,0.288,2.388,0.448,3.642,0.477c1.256,0.029,2.558-0.059,3.868-0.253
					c1.311-0.194,2.642-0.485,3.977-0.915c-1.334,0.481-2.672,0.824-3.995,1.07c-1.323,0.246-2.644,0.384-3.926,0.403
					c-1.28,0.019-2.556-0.094-3.75-0.346c-1.067-0.225-2.095-0.612-3.047-1.106c-2.88,3.003-5.971,5.802-9.245,8.37
					c0.791,0.474,1.615,0.912,2.486,1.279c1.09,0.459,2.228,0.863,3.409,1.173c1.179,0.31,2.403,0.563,3.656,0.731
					c1.254,0.169,2.541,0.27,3.861,0.268c-1.336,0.053-2.644,0.003-3.921-0.118c-1.277-0.121-2.529-0.328-3.739-0.595
					c-1.213-0.267-2.386-0.632-3.516-1.056c-0.956-0.36-1.863-0.803-2.738-1.29c-3.873,2.964-7.969,5.678-12.284,7.961
					c-0.281-0.555-0.421-0.832-0.703-1.387c4.31-2.135,8.415-4.7,12.308-7.518c-0.169-0.882-0.3-1.776-0.365-2.675
					c-0.078-1.085-0.118-2.18-0.106-3.269c0.012-1.088,0.046-2.179,0.109-3.259s0.146-2.158,0.268-3.225
					c-0.078,1.068-0.114,2.142-0.131,3.216C444.607,376.953,444.622,378.034,444.658,379.107z"/>
			</g>
		</g>
		<g>
			<g>
				
					<linearGradient id="SVGID_00000086679429363063756380000012025052782075809692_" gradientUnits="userSpaceOnUse" x1="862.8568" y1="332.7739" x2="862.8568" y2="372.3807" gradientTransform="matrix(1 0 0 1 -546.8982 0)">
					<stop  offset="0" style="stop-color:#435DF1"/>
					<stop  offset="0.327" style="stop-color:#4333F1"/>
					<stop  offset="1" style="stop-color:#4C008C"/>
				</linearGradient>
				<path style="fill:url(#SVGID_00000086679429363063756380000012025052782075809692_);" d="M328.771,372.381h-11.417
					c0-6.121-4.03-12.153-7.044-17.295c-0.096-0.163-0.192-0.33-0.289-0.493c-2.596-4.486-5.97-8.65-6.969-13.867
					c-0.288-1.518-0.347-3.161,0.364-4.532c0.757-1.463,2.295-2.4,3.892-2.809C326.325,328.509,330.301,353.902,328.771,372.381z"/>
				<path style="fill:#5148FF;" d="M323.862,372.381h-0.489c-0.042-2.588-0.313-5.176-0.732-7.726
					c-0.506-3.085-1.267-6.121-2.262-9.076c-1.982-5.911-5.013-11.463-8.984-16.313c-0.326-0.414-0.037-0.635,0.305-0.268
					c4.344,4.595,7.659,10.213,9.666,16.25c1.008,3.018,1.727,6.133,2.128,9.285C323.825,367.138,323.98,369.764,323.862,372.381z"
					/>
			</g>
			
				<linearGradient id="SVGID_00000132065854022950537500000013581151975710811318_" gradientUnits="userSpaceOnUse" x1="1425.9452" y1="341.1897" x2="1425.9452" y2="372.3807" gradientTransform="matrix(-1 0 0 1 1785.3271 0)">
				<stop  offset="0" style="stop-color:#435DF1"/>
				<stop  offset="0.327" style="stop-color:#4333F1"/>
				<stop  offset="1" style="stop-color:#4C008C"/>
			</linearGradient>
			<path style="fill:url(#SVGID_00000132065854022950537500000013581151975710811318_);" d="M349.128,372.381h11.62
				c0-14.896,16.852-29.525,4.146-31.106c-4.521-0.565-7.746,1.752-10.045,5.353C349.128,355.561,349.128,372.381,349.128,372.381z"
				/>
			
				<linearGradient id="SVGID_00000024003933778074837060000014496799502452162704_" gradientUnits="userSpaceOnUse" x1="1452.8353" y1="302.0586" x2="1452.8353" y2="372.3807" gradientTransform="matrix(-1 0 0 1 1785.3271 0)">
				<stop  offset="0" style="stop-color:#435DF1"/>
				<stop  offset="0.327" style="stop-color:#4333F1"/>
				<stop  offset="1" style="stop-color:#4C008C"/>
			</linearGradient>
			<path style="fill:url(#SVGID_00000024003933778074837060000014496799502452162704_);" d="M336.41,372.381h14.261
				c2.324-21.455,1.689-75.242-29.379-69.959C297.456,306.473,335.801,337.458,336.41,372.381z"/>
			<g>
				<path style="fill:#5148FF;" d="M328.613,314.27c1.88,2.108,3.435,4.483,4.807,6.946c1.371,2.457,2.527,5.042,3.499,7.689
					c0.984,2.641,1.829,5.34,2.521,8.083c0.698,2.737,1.295,5.499,1.771,8.292c0.984,5.568,1.581,11.213,1.956,16.871
					c0.216,3.41,0.356,6.819,0.387,10.229h0.972c0.127-3.429,0.121-6.864,0-10.299c-0.222-5.715-0.756-11.435-1.759-17.086
					c-0.489-2.826-1.124-5.632-1.879-8.401c-0.743-2.775-1.664-5.505-2.749-8.172c-0.521-1.34-1.143-2.641-1.759-3.943
					c-0.673-1.276-1.321-2.559-2.095-3.772c-1.505-2.451-3.207-4.8-5.238-6.839C328.435,313.222,328.035,313.584,328.613,314.27z"/>
			</g>
			<g>
				
					<linearGradient id="SVGID_00000058548194133435226860000008746423885930337213_" gradientUnits="userSpaceOnUse" x1="1456.5356" y1="347.4537" x2="1456.5356" y2="372.3807" gradientTransform="matrix(-1 0 0 1 1785.3271 0)">
					<stop  offset="0" style="stop-color:#435DF1"/>
					<stop  offset="0.327" style="stop-color:#4333F1"/>
					<stop  offset="1" style="stop-color:#4C008C"/>
				</linearGradient>
				<path style="fill:url(#SVGID_00000058548194133435226860000008746423885930337213_);" d="M325.203,372.381h11.837
					c0,0,3.121-24.944-10.276-24.927C314.569,347.462,322.712,362.876,325.203,372.381z"/>
				<g>
					<path style="fill:#5148FF;" d="M328.73,353.613c1.76,5.611,2.507,11.488,2.922,17.34c0.025,0.473,0.05,0.955,0.075,1.428h1.029
						c-0.017-0.506-0.042-1.004-0.075-1.503c-0.432-5.918-1.419-11.853-3.594-17.406C328.905,353.04,328.581,353.173,328.73,353.613
						z"/>
				</g>
			</g>
			<g>
				<path style="fill:#5148FF;" d="M353.573,372.381h0.743c0.273-2.26,0.616-4.521,1.041-6.756c0.648-3.124,1.448-6.21,2.508-9.213
					c0.279-0.749,0.597-1.479,0.889-2.216c0.152-0.368,0.286-0.743,0.457-1.105l0.533-1.067l0.527-1.073
					c0.178-0.356,0.349-0.718,0.572-1.048l1.251-2.038c0.26-0.419,0.051-0.591-0.241-0.165l-1.359,1.994
					c-0.241,0.33-0.426,0.686-0.616,1.041l-0.584,1.06l-0.578,1.067c-0.184,0.356-0.33,0.73-0.502,1.098
					c-0.318,0.743-0.66,1.473-0.959,2.222c-1.156,3.016-2.019,6.134-2.673,9.296C354.145,367.765,353.808,370.069,353.573,372.381z"
					/>
			</g>
		</g>
		<g>
			
				<linearGradient id="SVGID_00000025431453998826648560000016449450330366898333_" gradientUnits="userSpaceOnUse" x1="165.7943" y1="408.9448" x2="165.7943" y2="337.2196">
				<stop  offset="0" style="stop-color:#F9FBFC"/>
				<stop  offset="1" style="stop-color:#BEE1F4"/>
			</linearGradient>
			<path style="fill:url(#SVGID_00000025431453998826648560000016449450330366898333_);" d="M38.573,390.443
				c11.665-2.222,20.083,6.538,20.638,7.093c0.513-1.795,5.598-18.331,22.091-24.185c10.426-3.718,19.613-1.068,22.775,0
				c-2.094-5.64-0.983-11.922,2.863-16.409c4.145-4.828,10.853-6.794,17.092-4.956c7.05-10.896,19.998-16.537,32.731-14.272
				c12.563,2.265,22.647,11.794,25.638,24.228c3.803-5.683,10.64-8.546,17.092-7.136c5.768,1.24,10.383,5.641,12.135,11.409
				c7.862-8.204,19.784-11.281,30.594-7.819c9.63,3.029,16.986,10.793,19.694,20.426c7.738-6.113,18.154-8.423,27.838-5.374
				c14.488,4.56,23.613,19.937,20.456,35.498c-15.869,0-31.737,0-47.606,0h-19.782H20.755
				C22.506,399.502,29.685,392.109,38.573,390.443z"/>
			
				<linearGradient id="SVGID_00000011734873963068899230000001503152753018466749_" gradientUnits="userSpaceOnUse" x1="329.5894" y1="412.925" x2="329.5894" y2="341.2">
				<stop  offset="0" style="stop-color:#F9FBFC"/>
				<stop  offset="1" style="stop-color:#BEE1F4"/>
			</linearGradient>
			<path style="fill:url(#SVGID_00000011734873963068899230000001503152753018466749_);" d="M202.368,394.423
				c11.665-2.222,20.083,6.538,20.638,7.093c0.513-1.795,5.598-18.331,22.091-24.185c10.426-3.718,19.613-1.068,22.775,0
				c-2.094-5.64-0.983-11.922,2.862-16.409c4.145-4.828,10.853-6.794,17.092-4.957c7.05-10.896,19.998-16.537,32.731-14.272
				c12.563,2.265,22.647,11.793,25.638,24.228c3.803-5.683,10.64-8.546,17.092-7.136c5.768,1.24,10.383,5.641,12.135,11.409
				c7.863-8.204,19.784-11.281,30.594-7.819c9.63,3.029,16.986,10.793,19.694,20.426c7.738-6.113,18.154-8.423,27.838-5.374
				c14.488,4.561,23.613,19.937,20.456,35.498c-15.868,0-31.737,0-47.606,0h-19.782H184.55
				C186.301,403.482,193.48,396.09,202.368,394.423z"/>
		</g>
		<rect x="63.905" y="223.783" style="fill:#E6E7E8;" width="160.386" height="189.437"/>
		<g>
			<rect x="70.361" y="246.378" style="fill:#F9FBFC;" width="160.386" height="160.386"/>
			
				<linearGradient id="SVGID_00000004530593679166838270000009542846091464524448_" gradientUnits="userSpaceOnUse" x1="124.2164" y1="186.2337" x2="176.8924" y2="277.4713">
				<stop  offset="0" style="stop-color:#3478FF"/>
				<stop  offset="1" style="stop-color:#482EBD"/>
			</linearGradient>
			
				<rect x="70.361" y="217.327" style="fill:url(#SVGID_00000004530593679166838270000009542846091464524448_);" width="160.386" height="29.051"/>
			<path style="fill:#E1E4F9;" d="M93.29,265.506h30.574c2.099,0,3.801,1.702,3.801,3.801v30.574c0,2.099-1.702,3.801-3.801,3.801
				H93.29c-2.099,0-3.801-1.702-3.801-3.801v-30.574C89.489,267.207,91.191,265.506,93.29,265.506z"/>
			<g>
				<path style="fill:#E1E4F9;" d="M165.841,304.182h-30.574c-2.372,0-4.301-1.93-4.301-4.301v-30.574
					c0-2.371,1.929-4.301,4.301-4.301h30.574c2.372,0,4.301,1.93,4.301,4.301v30.574
					C170.143,302.252,168.213,304.182,165.841,304.182z M135.267,266.006c-1.82,0-3.301,1.48-3.301,3.301v30.574
					c0,1.82,1.481,3.301,3.301,3.301h30.574c1.82,0,3.301-1.48,3.301-3.301v-30.574c0-1.82-1.481-3.301-3.301-3.301H135.267z"/>
			</g>
			<path style="fill:#E1E4F9;" d="M177.245,265.506h30.574c2.099,0,3.801,1.702,3.801,3.801v30.574c0,2.099-1.702,3.801-3.801,3.801
				h-30.574c-2.099,0-3.801-1.702-3.801-3.801v-30.574C173.444,267.207,175.145,265.506,177.245,265.506z"/>
			<g>
				<path style="fill:#E1E4F9;" d="M123.864,346.159H93.29c-2.371,0-4.301-1.93-4.301-4.301v-30.574c0-2.371,1.93-4.301,4.301-4.301
					h30.574c2.372,0,4.301,1.93,4.301,4.301v30.574C128.165,344.229,126.236,346.159,123.864,346.159z M93.29,307.983
					c-1.82,0-3.301,1.48-3.301,3.301v30.574c0,1.82,1.481,3.301,3.301,3.301h30.574c1.82,0,3.301-1.48,3.301-3.301v-30.574
					c0-1.82-1.481-3.301-3.301-3.301H93.29z"/>
			</g>
			<path style="fill:#E1E4F9;" d="M135.267,307.483h30.574c2.099,0,3.801,1.702,3.801,3.801v30.574c0,2.099-1.702,3.801-3.801,3.801
				h-30.574c-2.099,0-3.801-1.702-3.801-3.801v-30.574C131.466,309.185,133.168,307.483,135.267,307.483z"/>
			<g>
				<path style="fill:#E1E4F9;" d="M207.819,346.159h-30.574c-2.372,0-4.301-1.93-4.301-4.301v-30.574
					c0-2.371,1.929-4.301,4.301-4.301h30.574c2.372,0,4.301,1.93,4.301,4.301v30.574C212.12,344.229,210.19,346.159,207.819,346.159
					z M177.245,307.983c-1.82,0-3.301,1.48-3.301,3.301v30.574c0,1.82,1.481,3.301,3.301,3.301h30.574
					c1.82,0,3.301-1.48,3.301-3.301v-30.574c0-1.82-1.481-3.301-3.301-3.301H177.245z"/>
			</g>
			<path style="fill:#E1E4F9;" d="M123.864,352.46c0.442,0,0.801,0.359,0.801,0.801v30.574c0,0.442-0.359,0.801-0.801,0.801H93.29
				c-0.442,0-0.801-0.359-0.801-0.801v-30.574c0-0.442,0.359-0.801,0.801-0.801H123.864 M123.864,349.46H93.29
				c-2.099,0-3.801,1.702-3.801,3.801v30.574c0,2.099,1.702,3.801,3.801,3.801h30.574c2.099,0,3.801-1.702,3.801-3.801v-30.574
				C127.665,351.162,125.963,349.46,123.864,349.46L123.864,349.46z"/>
			<g>
				<path style="fill:#E1E4F9;" d="M165.841,388.137h-30.574c-2.372,0-4.301-1.93-4.301-4.301v-30.574
					c0-2.372,1.929-4.302,4.301-4.302h30.574c2.372,0,4.301,1.93,4.301,4.302v30.574
					C170.143,386.207,168.213,388.137,165.841,388.137z M135.267,349.96c-1.82,0-3.301,1.481-3.301,3.302v30.574
					c0,1.82,1.481,3.301,3.301,3.301h30.574c1.82,0,3.301-1.48,3.301-3.301v-30.574c0-1.82-1.481-3.302-3.301-3.302H135.267z"/>
			</g>
			<path style="fill:#E1E4F9;" d="M177.245,349.46h30.574c2.099,0,3.801,1.702,3.801,3.801v30.574c0,2.099-1.702,3.801-3.801,3.801
				h-30.574c-2.099,0-3.801-1.702-3.801-3.801v-30.574C173.444,351.162,175.145,349.46,177.245,349.46z"/>
			<g>
				<g>
					<g>
						<circle style="fill:#3D348B;" cx="212.395" cy="231.852" r="6.626"/>
						
							<linearGradient id="SVGID_00000101084578700846633810000012403528741096971671_" gradientUnits="userSpaceOnUse" x1="208.9879" y1="220.1913" x2="215.8012" y2="220.1913">
							<stop  offset="0" style="stop-color:#FF697D"/>
							<stop  offset="1" style="stop-color:#DE2276"/>
						</linearGradient>
						<path style="fill:url(#SVGID_00000101084578700846633810000012403528741096971671_);" d="M212.395,205.123
							c-1.882,0-3.407,1.525-3.407,3.407v23.323c0,1.881,1.525,3.407,3.407,3.407c1.881,0,3.407-1.525,3.407-3.407V208.53
							C215.801,206.648,214.276,205.123,212.395,205.123z"/>
					</g>
				</g>
				<g>
					<g>
						<circle style="fill:#3D348B;" cx="88.714" cy="231.852" r="6.626"/>
						
							<linearGradient id="SVGID_00000098183166486017340580000018194676952447858352_" gradientUnits="userSpaceOnUse" x1="85.3074" y1="220.1913" x2="92.1208" y2="220.1913">
							<stop  offset="0" style="stop-color:#FF697D"/>
							<stop  offset="1" style="stop-color:#DE2276"/>
						</linearGradient>
						<path style="fill:url(#SVGID_00000098183166486017340580000018194676952447858352_);" d="M88.714,205.123
							c-1.882,0-3.407,1.525-3.407,3.407v23.323c0,1.881,1.525,3.407,3.407,3.407c1.881,0,3.407-1.525,3.407-3.407V208.53
							C92.121,206.648,90.596,205.123,88.714,205.123z"/>
					</g>
				</g>
				<g>
					<g>
						<circle style="fill:#3D348B;" cx="119.634" cy="231.852" r="6.626"/>
						
							<linearGradient id="SVGID_00000034773025912787738050000002993606984768470452_" gradientUnits="userSpaceOnUse" x1="116.2276" y1="220.1913" x2="123.0409" y2="220.1913">
							<stop  offset="0" style="stop-color:#FF697D"/>
							<stop  offset="1" style="stop-color:#DE2276"/>
						</linearGradient>
						<path style="fill:url(#SVGID_00000034773025912787738050000002993606984768470452_);" d="M119.634,205.123
							c-1.881,0-3.407,1.525-3.407,3.407v23.323c0,1.881,1.525,3.407,3.407,3.407c1.881,0,3.407-1.525,3.407-3.407V208.53
							C123.041,206.648,121.516,205.123,119.634,205.123z"/>
					</g>
				</g>
				<g>
					<g>
						<circle style="fill:#3D348B;" cx="150.554" cy="231.852" r="6.626"/>
						
							<linearGradient id="SVGID_00000098193294111674635120000008001344352683364276_" gradientUnits="userSpaceOnUse" x1="147.1477" y1="220.1913" x2="153.961" y2="220.1913">
							<stop  offset="0" style="stop-color:#FF697D"/>
							<stop  offset="1" style="stop-color:#DE2276"/>
						</linearGradient>
						<path style="fill:url(#SVGID_00000098193294111674635120000008001344352683364276_);" d="M150.554,205.123
							c-1.881,0-3.407,1.525-3.407,3.407v23.323c0,1.881,1.525,3.407,3.407,3.407c1.882,0,3.407-1.525,3.407-3.407V208.53
							C153.961,206.648,152.436,205.123,150.554,205.123z"/>
					</g>
				</g>
				<g>
					<g>
						<circle style="fill:#3D348B;" cx="181.475" cy="231.852" r="6.626"/>
						
							<linearGradient id="SVGID_00000100375405743153417540000009743409417533536186_" gradientUnits="userSpaceOnUse" x1="178.0678" y1="220.1913" x2="184.8811" y2="220.1913">
							<stop  offset="0" style="stop-color:#FF697D"/>
							<stop  offset="1" style="stop-color:#DE2276"/>
						</linearGradient>
						<path style="fill:url(#SVGID_00000100375405743153417540000009743409417533536186_);" d="M181.475,205.123
							c-1.882,0-3.407,1.525-3.407,3.407v23.323c0,1.881,1.525,3.407,3.407,3.407c1.881,0,3.407-1.525,3.407-3.407V208.53
							C184.881,206.648,183.356,205.123,181.475,205.123z"/>
					</g>
				</g>
			</g>
			
				<linearGradient id="SVGID_00000026844860245905193010000017333117978476050846_" gradientUnits="userSpaceOnUse" x1="95.5026" y1="367.7276" x2="121.6515" y2="367.7276">
				<stop  offset="0" style="stop-color:#FF697D"/>
				<stop  offset="1" style="stop-color:#DE2276"/>
			</linearGradient>
			<path style="fill:url(#SVGID_00000026844860245905193010000017333117978476050846_);" d="M121.277,359.748l-2.064-2.063
				c-0.499-0.499-1.308-0.499-1.807,0l-13.245,13.244l-4.411-4.44c-0.241-0.242-0.563-0.376-0.904-0.377
				c-0.341-0.001-0.664,0.133-0.905,0.374l-2.064,2.063c-0.499,0.499-0.5,1.304-0.002,1.805l7.378,7.415
				c0.241,0.242,0.563,0.376,0.904,0.376c0.341,0,0.664-0.133,0.905-0.374l16.215-16.216c0.238-0.238,0.374-0.567,0.374-0.903
				C121.651,360.315,121.515,359.986,121.277,359.748z"/>
		</g>
		<path style="fill:#D4EBF8;" d="M451.289,420.187H303.31c-1.997,0-3.631-1.634-3.631-3.631l0,0c0-1.997,1.634-3.631,3.631-3.631
			h147.979c1.997,0,3.631,1.634,3.631,3.631l0,0C454.92,418.553,453.286,420.187,451.289,420.187z"/>
		<path style="fill:#D4EBF8;" d="M220.66,424.074h-72.833c-1.997,0-3.631-1.634-3.631-3.631l0,0c0-1.997,1.634-3.631,3.631-3.631
			h72.833c1.997,0,3.631,1.634,3.631,3.631l0,0C224.291,422.44,222.657,424.074,220.66,424.074z"/>
		
			<ellipse transform="matrix(0.1592 -0.9872 0.9872 0.1592 -28.7112 470.6457)" style="fill:#E6E7E8;" cx="261.967" cy="252.18" rx="94.746" ry="94.746"/>
		<g>
			<path style="fill:#112B46;" d="M430.286,399.264c2.778,5.88,3.916,10.221,3.916,10.221s-24.369,5.657-27.102,3.057
				c-2.722-2.6,11.961-10.41,11.961-10.41S425.466,402.243,430.286,399.264z"/>
			<path style="fill:#112B46;" d="M352.265,406.764c1.631,6.892,0.586,11.25,0.586,11.25s-25.962,1.044-28.287-2.343
				c-2.313-3.385,15.095-8.388,15.095-8.388S346.457,408.849,352.265,406.764z"/>
			
				<linearGradient id="SVGID_00000106858444012357420710000012650832673350974851_" gradientUnits="userSpaceOnUse" x1="407.8757" y1="432.9603" x2="407.8757" y2="350.2595">
				<stop  offset="0" style="stop-color:#435DF1"/>
				<stop  offset="0.327" style="stop-color:#4333F1"/>
				<stop  offset="1" style="stop-color:#4C008C"/>
			</linearGradient>
			<path style="fill:url(#SVGID_00000106858444012357420710000012650832673350974851_);" d="M418.805,304.769
				c0.915-0.156,1.83-0.324,2.756-0.513c-3.191,18.12-10.332,35.281-12.285,43.504c-2.789,11.738,5.133,28.006,13.49,39.008
				c3.269,4.296,5.735,8.725,7.52,12.497c-4.82,2.979-11.225,2.868-11.225,2.868s-12.062-9.183-23.264-24.212
				c-8-10.723-9.886-22.606-10.332-28.118c3.593-4.318,7.509-8.614,11.749-12.809C411.329,323.012,416.763,311.05,418.805,304.769z"
				/>
			
				<linearGradient id="SVGID_00000059994387871556957250000013590489173266768539_" gradientUnits="userSpaceOnUse" x1="339.1603" y1="356.1669" x2="418.8048" y2="356.1669">
				<stop  offset="0" style="stop-color:#435DF1"/>
				<stop  offset="0.327" style="stop-color:#4333F1"/>
				<stop  offset="1" style="stop-color:#4C008C"/>
			</linearGradient>
			<path style="fill:url(#SVGID_00000059994387871556957250000013590489173266768539_);" d="M418.805,304.769
				c-2.042,6.282-7.476,18.243-21.59,32.224c-4.24,4.195-8.156,8.491-11.749,12.809c-18.968,22.706-28.062,46.316-32.816,58.802
				c-7.353-0.156-13.489-1.362-13.489-1.362c6.438-46.439,34.924-90.89,43.594-103.51
				C389.203,305.159,403.217,307.424,418.805,304.769z"/>
			
				<linearGradient id="SVGID_00000168108952745478094780000010983063667515746724_" gradientUnits="userSpaceOnUse" x1="365.1302" y1="223.7543" x2="371.7468" y2="241.0702">
				<stop  offset="0" style="stop-color:#FF697D"/>
				<stop  offset="1" style="stop-color:#DE2276"/>
			</linearGradient>
			<path style="fill:url(#SVGID_00000168108952745478094780000010983063667515746724_);" d="M380.667,224.31
				c-2.176,2.622-4.854,6.94-7.286,13.947c-1.127,3.247-2.276,6.326-3.448,9.149h-11.091v-14.784
				C367.724,231.54,376.16,227.077,380.667,224.31z"/>
			<g>
				
					<linearGradient id="SVGID_00000036932102791370869020000004170603911000488070_" gradientUnits="userSpaceOnUse" x1="271.965" y1="147.43" x2="271.965" y2="336.93">
					<stop  offset="0" style="stop-color:#3478FF"/>
					<stop  offset="1" style="stop-color:#482EBD"/>
				</linearGradient>
				<path style="fill:url(#SVGID_00000036932102791370869020000004170603911000488070_);" d="M366.71,242.18
					c0,8.96-1.25,17.63-3.58,25.85c-1.34,4.69-3.02,9.23-5.02,13.59c-14.99,32.61-47.96,55.31-86.14,55.31
					c-52.25,0-94.75-42.51-94.75-94.75s42.5-94.75,94.75-94.75C324.21,147.43,366.71,189.94,366.71,242.18z"/>
				
					<ellipse transform="matrix(0.7071 -0.7071 0.7071 0.7071 -91.5892 263.2427)" style="fill:#878CF0;" cx="271.967" cy="242.179" rx="85.946" ry="85.946"/>
				<circle style="fill:#F9FBFC;" cx="271.967" cy="242.179" r="82.312"/>
				<path style="fill:#3D348B;" d="M277.398,242.179c0,2.999-2.432,5.431-5.431,5.431s-5.431-2.431-5.431-5.431
					s2.432-5.431,5.431-5.431S277.398,239.18,277.398,242.179z"/>
				<g>
					<path style="fill:#3D348B;" d="M272.887,244.679c-1.381,0-2.5-1.119-2.5-2.5V183.7c0-1.381,1.119-2.5,2.5-2.5
						c1.381,0,2.5,1.119,2.5,2.5v58.479C275.387,243.56,274.268,244.679,272.887,244.679z"/>
				</g>
				<g>
					<path style="fill:#3D348B;" d="M272.887,244.679h-45.146c-1.381,0-2.5-1.119-2.5-2.5s1.119-2.5,2.5-2.5h45.146
						c1.381,0,2.5,1.119,2.5,2.5S274.268,244.679,272.887,244.679z"/>
				</g>
				<g>
					<g>
						<path style="fill:#7678ED;" d="M272.887,172.73c-0.552,0-1-0.448-1-1v-6.476c0-0.552,0.448-1,1-1c0.552,0,1,0.448,1,1v6.476
							C273.887,172.283,273.439,172.73,272.887,172.73z"/>
					</g>
					<g>
						<path style="fill:#7678ED;" d="M237.54,181.709c-0.346,0-0.682-0.179-0.867-0.5l-3.238-5.609
							c-0.276-0.479-0.112-1.09,0.366-1.366c0.477-0.276,1.089-0.112,1.366,0.366l3.238,5.609c0.276,0.479,0.112,1.09-0.366,1.366
							C237.882,181.666,237.71,181.709,237.54,181.709z"/>
					</g>
					<g>
						<path style="fill:#7678ED;" d="M211.415,207.158c-0.169,0-0.341-0.043-0.499-0.134l-5.608-3.238
							c-0.478-0.276-0.642-0.888-0.366-1.366c0.276-0.479,0.887-0.643,1.366-0.366l5.608,3.238c0.478,0.276,0.642,0.888,0.366,1.366
							C212.097,206.979,211.761,207.158,211.415,207.158z"/>
					</g>
					<g>
						<path style="fill:#7678ED;" d="M201.518,242.26h-6.476c-0.552,0-1-0.448-1-1c0-0.552,0.448-1,1-1h6.476c0.552,0,1,0.448,1,1
							C202.518,241.812,202.07,242.26,201.518,242.26z"/>
					</g>
					<g>
						<path style="fill:#7678ED;" d="M204.889,280.846c-0.346,0-0.682-0.179-0.867-0.5c-0.276-0.479-0.112-1.09,0.366-1.366
							l5.608-3.238c0.477-0.276,1.089-0.113,1.366,0.366c0.276,0.479,0.112,1.09-0.366,1.366l-5.608,3.238
							C205.231,280.803,205.059,280.846,204.889,280.846z"/>
					</g>
					<g>
						<path style="fill:#7678ED;" d="M232.707,309.339c-0.169,0-0.342-0.043-0.499-0.134c-0.479-0.276-0.642-0.888-0.366-1.366
							l3.238-5.608c0.276-0.478,0.888-0.643,1.366-0.366c0.479,0.276,0.642,0.888,0.366,1.366l-3.238,5.608
							C233.389,309.16,233.053,309.339,232.707,309.339z"/>
					</g>
					<g>
						<path style="fill:#7678ED;" d="M271.048,320.105c-0.552,0-1-0.447-1-1v-6.477c0-0.553,0.448-1,1-1c0.552,0,1,0.447,1,1v6.477
							C272.048,319.658,271.6,320.105,271.048,320.105z"/>
					</g>
					<g>
						<path style="fill:#7678ED;" d="M309.635,310.259c-0.346,0-0.682-0.179-0.867-0.5l-3.238-5.608
							c-0.276-0.478-0.112-1.09,0.366-1.366c0.477-0.277,1.089-0.112,1.366,0.366l3.238,5.608c0.276,0.479,0.112,1.09-0.366,1.366
							C309.977,310.216,309.804,310.259,309.635,310.259z"/>
					</g>
					<g>
						<path style="fill:#7678ED;" d="M338.126,282.439c-0.17,0-0.341-0.043-0.499-0.134l-5.608-3.237
							c-0.478-0.276-0.642-0.888-0.366-1.366c0.276-0.478,0.886-0.644,1.366-0.366l5.608,3.237c0.478,0.276,0.642,0.888,0.366,1.366
							C338.808,282.259,338.472,282.439,338.126,282.439z"/>
					</g>
					<g>
						<path style="fill:#7678ED;" d="M348.893,244.1h-6.476c-0.552,0-1-0.448-1-1c0-0.552,0.448-1,1-1h6.476c0.552,0,1,0.448,1,1
							C349.893,243.652,349.445,244.1,348.893,244.1z"/>
					</g>
					<g>
						<path style="fill:#7678ED;" d="M333.439,208.751c-0.346,0-0.682-0.179-0.867-0.5c-0.276-0.479-0.112-1.09,0.366-1.366
							l5.608-3.238c0.479-0.277,1.09-0.112,1.366,0.366c0.276,0.479,0.112,1.09-0.366,1.366l-5.608,3.238
							C333.781,208.708,333.609,208.751,333.439,208.751z"/>
					</g>
					<g>
						<path style="fill:#7678ED;" d="M307.988,182.628c-0.169,0-0.342-0.043-0.499-0.134c-0.479-0.276-0.642-0.888-0.366-1.366
							l3.238-5.608c0.276-0.479,0.888-0.644,1.366-0.366c0.479,0.276,0.642,0.888,0.366,1.366l-3.238,5.608
							C308.669,182.449,308.333,182.628,307.988,182.628z"/>
					</g>
				</g>
			</g>
			<path style="fill:#E6E7E8;" d="M363.13,268.03c-1.34,4.69-3.02,9.23-5.02,13.59c-5.28-0.33-12.33-0.315-18.828-6.675
				c-8.22-8.046-7.874-11.821-13.504-18.991c-5.63-7.17-8.538-8.633-7.168-17.953l3.7,1.86l17.98,24.44L363.13,268.03z"/>
			
				<linearGradient id="SVGID_00000052065930792882147200000015797427801442626974_" gradientUnits="userSpaceOnUse" x1="379.2574" y1="216.8" x2="379.2574" y2="311.8094">
				<stop  offset="0" style="stop-color:#FF697D"/>
				<stop  offset="1" style="stop-color:#DE2276"/>
			</linearGradient>
			<path style="fill:url(#SVGID_00000052065930792882147200000015797427801442626974_);" d="M422.4,309.403
				c-0.93,0.19-3.524,1.021-4.444,1.181c-15.58,2.65-29.6,0.39-36.05-1.04c-2.41-0.53-3.76-0.95-3.76-0.95
				c2.35-10.19,3.544-25.333,3.164-32.673c-0.26-5.13-0.88-9.28-1.41-12.1c-2.03,3.13-4.25,6.24-6.49,8.87
				c-3.84,4.51-9.06,6.68-14.43,6.96c-3.05,0.16-6.14-0.28-9.06-1.25c-1.15-0.38-2.28-0.84-3.36-1.39
				c-1.85-0.92-3.58-2.06-5.12-3.41c-2.28-1.98-4.41-4.32-6.31-6.7c1.39-2.11,4.49-6.36,8.54-8.84c2.8,1.98,5.58,3.4,8.09,4.39
				c1.23,0.48,2.39,0.87,3.45,1.16c0.34,0.1,0.67,0.19,0.99,0.27c3.22,0.77,6.38-2.21,9.45-7.52c1.45-2.51,2.88-5.54,4.28-8.95
				c1.18-2.83,2.32-5.91,3.45-9.15c2.43-7.01,5.11-11.33,7.29-13.95c2.63-3.16,4.56-3.88,4.56-3.88s2.07-0.61,4.5-1.33l1.06-0.31
				c3.04-0.91,6.29-1.87,6.66-1.98c0.03-0.01,0.04-0.01,0.04-0.01c3.38,3.71,9.29,6.43,14.58,13.23c8.2,10.56,8.05,26.25,10.7,51.17
				C423.55,288.65,423.75,301.673,422.4,309.403z"/>
			<path style="fill:#E6E7E8;" d="M381.31,275.92c-0.26-5.13-0.88-9.28-1.41-12.1c5.19-8.9,11.11-19.24,11.11-19.24
				S396.53,266.66,381.31,275.92z"/>
			<path style="fill:#FFC8AF;" d="M397.45,216.81c-0.72,0.21-12.22,3.62-12.22,3.62l-1.33-2.73l-1-2.07
				c-2.1,1.25-4.68,1.34-4.68,1.34c-6-5.49-6.51-13.5-6.41-17.06c0-0.06,0.06-0.12,0.17-0.18c0.72-0.4,3.49-0.81,3.79-0.88
				c1.89-0.44,3.82-0.53,5.76-0.53c1.51-0.01,3.27,0.08,4.68,0.75c1.2,0.58,1.79,1.91,2.47,3c1.62,2.59,3.06,5.22,4.56,7.88
				c0.67,1.19,1.58,2.2,2.11,3.42C395.53,213.77,396.89,216.81,397.45,216.81z"/>
			<path style="fill:#FFC8AF;" d="M343.668,258.062c-4.05,2.477-7.152,6.728-8.536,8.837c-5.378-6.751-8.915-13.769-8.915-13.769
				s-4.195-3.615-6.416-7.119c-2.209-3.492-1.629-11.771,1.227-12.184c2.856-0.413,8.982,7.877,8.982,7.877s-0.29-5.2,0.29-5.367
				c0.58-0.179,2.566,1.395,3.905,4.251c1.339,2.856-0.87,6.907-0.87,6.907C336.46,252.104,340.076,255.54,343.668,258.062z"/>
			<path style="fill:#112B46;" d="M383.633,202.711c-0.708-0.012-1.284,0.413-1.385,1.233c-0.076,0.615,0.692,2.363-0.563,2.184
				c-0.917-0.131-1.277-1.901-1.78-2.511c-0.93-1.129-1.976-1.257-3.252-1.184c-0.814,0.046-1,0.019-1.479-0.654
				c-0.371-0.521-0.632-1.446-1.152-1.804c-0.666-0.458-1.719-0.072-2.444-0.028c-1.28,0.077-2.561-0.442-3.676-1.038
				c-3.171-1.697-4.486-6.951-1.089-9.24c1.683-1.134,3.785-0.839,5.402,0.213c1.002,0.652,2.039,0.931,3.218,0.354
				c0.778-0.381,1.381-0.948,2.212-1.251c1.081-0.394,1.792-0.281,2.737,0.37c1.059,0.729,1.826,1.474,3.179,1.037
				c1.981-0.639,3.894-1.417,5.262,0.581c0.498,0.728,0.898,1.479,1.69,1.938c0.661,0.383,1.487,0.405,2.18,0.753
				c0.895,0.449,1.811,1.327,2.256,2.219c0.85,1.705,0.518,4.249,0.362,6.11c-0.194,2.31-0.411,4.617-0.551,6.932
				c-0.078,1.35,0.033,2.522,0.312,3.57c-2.131-0.111-7.092-3.148-8.765-6.089c-0.648-1.14-0.581-3.092-2.086-3.589
				C384.02,202.749,383.822,202.715,383.633,202.711z"/>
			<path style="fill:#F4B69D;" d="M383.259,205.955c0.46-0.398,0.443-0.597-0.016-1.002c-0.37-0.326-0.539-0.895,0.05-1.199
				c0.673-0.347,1.33,0.538,1.514,1.085c0.274,0.815,0.153,1.411-0.704,1.695C383.73,206.656,383.034,206.49,383.259,205.955z"/>
			<path style="fill:#F4B69D;" d="M385.828,205.123c0.22,1.197-0.101,2.367-1.182,2.601c-1.081,0.235,1.01,1.559,2.193,0.979
				c0,0-0.411-0.808-0.601-1.595C386.048,206.321,385.828,205.123,385.828,205.123z"/>
			
				<linearGradient id="SVGID_00000107546550674215608820000004458399376979128250_" gradientUnits="userSpaceOnUse" x1="340.2897" y1="261.8372" x2="340.2897" y2="275.8448">
				<stop  offset="0" style="stop-color:#FF697D"/>
				<stop  offset="1" style="stop-color:#DE2276"/>
			</linearGradient>
			<polygon style="fill:url(#SVGID_00000107546550674215608820000004458399376979128250_);" points="342.417,256.399 
				347.153,259.496 337.298,270.407 333.427,265.69 			"/>
			<path style="fill:#F4B69D;" d="M383.9,217.7l-1-2.07c-2.1,1.25-4.68,1.34-4.68,1.34s5.17-2.38,6.12-3.23
				c0.96-0.84,1.32-1.72,1.63-1.83C386.26,211.82,385.71,216.21,383.9,217.7z"/>
			<polygon style="fill:#E6E7E8;" points="346.698,260 347.615,260.514 339.199,271.497 337.719,269.941 			"/>
			
				<linearGradient id="SVGID_00000096039227181135675880000012011169524074448291_" gradientUnits="userSpaceOnUse" x1="390.5937" y1="214.517" x2="390.5937" y2="221.4637">
				<stop  offset="0" style="stop-color:#FF697D"/>
				<stop  offset="1" style="stop-color:#DE2276"/>
			</linearGradient>
			<polygon style="fill:url(#SVGID_00000096039227181135675880000012011169524074448291_);" points="382.81,221.464 
				383.544,218.412 396.449,214.517 398.378,217.7 			"/>
		</g>
		<g>
			<rect x="140.453" y="132.806" style="fill:#878CF0;" width="58.379" height="33.221"/>
			<polygon style="fill:#737EE5;" points="140.453,166.027 169.643,143.446 198.832,166.027 			"/>
			<polygon style="fill:#929CF7;" points="198.832,132.806 169.643,155.529 140.453,132.806 			"/>
		</g>
		<g>
			<g>
				<g>
					<path style="fill:#D4EBF8;" d="M110.397,196.069h-21.21c-0.829,0-1.5-0.672-1.5-1.5v-42.271c0-0.828,0.671-1.5,1.5-1.5h32.33
						c0.829,0,1.5,0.672,1.5,1.5v28.23c0,0.338-0.114,0.666-0.324,0.932l-11.12,14.04
						C111.288,195.86,110.855,196.069,110.397,196.069z M90.687,193.069h18.984l10.346-13.063v-26.208h-29.33V193.069z"/>
				</g>
				<g>
					<path style="fill:#D4EBF8;" d="M110.396,196.069c-0.165,0-0.331-0.027-0.493-0.083c-0.603-0.21-1.007-0.778-1.007-1.417v-14.04
						c0-0.828,0.671-1.5,1.5-1.5h11.12c0.575,0,1.1,0.329,1.351,0.847c0.25,0.519,0.183,1.134-0.175,1.585l-11.12,14.04
						C111.282,195.867,110.846,196.069,110.396,196.069z M111.897,182.029v8.23l6.519-8.23H111.897z"/>
				</g>
			</g>
			<g>
				<rect x="95.097" y="158.353" style="fill:#D4EBF8;" width="20.86" height="3"/>
			</g>
			<g>
				<rect x="95.097" y="164.071" style="fill:#D4EBF8;" width="20.86" height="3"/>
			</g>
			<g>
				<rect x="95.097" y="169.79" style="fill:#D4EBF8;" width="16.527" height="3"/>
			</g>
		</g>
		<g>
			<path style="fill:#D4EBF8;" d="M448.177,254.245c-0.096-1.597-0.555-3.13-1.317-4.498l1.305-0.727
				c-0.654-1.173-1.503-2.238-2.52-3.141l-0.993,1.118c-1.148-1.02-2.531-1.809-4.107-2.259l0.407-1.43l-0.019-0.005
				c-1.092-0.309-2.196-0.457-3.281-0.457c-0.236,0-0.471,0.007-0.705,0.021l0.088,1.491c-1.597,0.094-3.131,0.552-4.499,1.313
				l-0.726-1.305c-1.174,0.653-2.239,1.502-3.143,2.517l1.117,0.994c-1.021,1.147-1.811,2.53-2.262,4.105l-1.43-0.408l-0.008,0.028
				c-0.309,1.092-0.457,2.195-0.457,3.28c0,0.233,0.007,0.465,0.02,0.696l1.491-0.087c0.093,1.597,0.549,3.132,1.309,4.5
				l-1.306,0.725c0.652,1.174,1.5,2.24,2.515,3.145l0.995-1.116c1.146,1.022,2.529,1.813,4.103,2.265l-0.41,1.43l0.038,0.011
				c1.092,0.309,2.195,0.457,3.281,0.457c0.242,0,0.484-0.007,0.725-0.022l-0.091-1.491c1.597-0.097,3.13-0.557,4.496-1.321
				l0.728,1.304c1.173-0.655,2.237-1.505,3.139-2.522l-1.118-0.992c1.019-1.149,1.808-2.533,2.256-4.108l1.43,0.406l0.003-0.009
				c0.309-1.092,0.457-2.196,0.457-3.281c0-0.239-0.007-0.478-0.021-0.715L448.177,254.245z M435.046,264.109L435.046,264.109
				l0.073-0.26L435.046,264.109z M443.792,256.612c-0.793,2.807-3.352,4.64-6.129,4.64c-0.574,0-1.157-0.078-1.739-0.243
				c-2.808-0.793-4.64-3.352-4.64-6.129c0-0.574,0.078-1.157,0.243-1.739c0.792-2.808,3.352-4.64,6.129-4.641
				c0.574,0,1.157,0.078,1.739,0.243c2.807,0.793,4.64,3.352,4.64,6.129C444.034,255.447,443.956,256.03,443.792,256.612z"/>
			<polygon style="fill:#D4EBF8;" points="467.129,244.584 467.129,244.584 467.129,244.584 			"/>
			<path style="fill:#D4EBF8;" d="M466.486,249.704l-0.993,0.194c-0.151-0.772-0.419-1.51-0.796-2.191l0.883-0.489
				c-0.638-1.153-1.545-2.159-2.664-2.916l-0.564,0.833c-0.633-0.428-1.339-0.769-2.112-0.992l0.278-0.962l-0.044-0.013
				c-0.769-0.218-1.547-0.322-2.311-0.322c-0.539,0-1.072,0.052-1.592,0.152l0.191,0.993c-0.773,0.149-1.512,0.415-2.194,0.79
				l-0.486-0.883c-1.155,0.635-2.163,1.539-2.923,2.657l0.831,0.565c-0.43,0.632-0.77,1.339-0.995,2.11l-0.962-0.281l-0.019,0.066
				c-0.218,0.769-0.322,1.546-0.322,2.311c0,0.531,0.05,1.056,0.147,1.569l0.992-0.188c0.147,0.773,0.41,1.513,0.784,2.196
				l-0.884,0.483h0c0.632,1.157,1.533,2.167,2.649,2.93l0.567-0.828c0.63,0.431,1.338,0.771,2.109,0.999l-0.284,0.963h0l0.088,0.026
				c0.769,0.218,1.546,0.322,2.311,0.322c0.555,0,1.103-0.055,1.637-0.161l-0.197-0.994c0.772-0.153,1.509-0.423,2.189-0.802
				l0.492,0.883c1.151-0.642,2.155-1.551,2.909-2.673l-0.836-0.562c0.426-0.634,0.767-1.34,0.989-2.113l0.961,0.275l0.006-0.022
				c0.218-0.769,0.322-1.547,0.322-2.311C466.642,250.771,466.589,250.231,466.486,249.704z M458.169,256.367
				c-0.454,0-0.915-0.062-1.376-0.192c-2.222-0.626-3.671-2.653-3.672-4.85c0-0.454,0.062-0.915,0.192-1.376
				c0.626-2.222,2.653-3.671,4.85-3.672c0.454,0,0.915,0.062,1.376,0.192c2.221,0.626,3.671,2.653,3.672,4.85
				c0,0.454-0.062,0.915-0.192,1.377C462.392,254.917,460.365,256.366,458.169,256.367z"/>
		</g>
		<g>
			<g>
				<path style="fill:#D4EBF8;" d="M267.919,118.564c-9.234,0-16.747-7.513-16.747-16.746c0-9.234,7.513-16.747,16.747-16.747
					c9.234,0,16.747,7.513,16.747,16.747C284.665,111.052,277.152,118.564,267.919,118.564z M267.919,88.071
					c-7.58,0-13.747,6.167-13.747,13.747s6.166,13.746,13.747,13.746c7.58,0,13.747-6.166,13.747-13.746
					S275.499,88.071,267.919,88.071z"/>
			</g>
			<g>
				<path style="fill:#D4EBF8;" d="M263.54,109.18c-0.37,0-0.74-0.136-1.03-0.41c-0.602-0.569-0.629-1.519-0.059-2.12l4.65-4.92
					V91.227c0-0.828,0.671-1.5,1.5-1.5c0.829,0,1.5,0.672,1.5,1.5v11.1c0,0.383-0.147,0.752-0.41,1.03l-5.06,5.354
					C264.335,109.023,263.938,109.18,263.54,109.18z"/>
			</g>
		</g>
		<g>
			<path style="fill:#FC637C;" d="M221.565,106.266c-5.71,0-10.35,4.64-10.35,10.36c0,10.27,10.35,22.8,10.35,22.8
				s10.36-12.53,10.36-22.8C231.925,110.906,227.285,106.266,221.565,106.266z M221.565,122.096c-3.02,0-5.47-2.45-5.47-5.47
				c0-3.02,2.45-5.47,5.47-5.47c3.03,0,5.48,2.45,5.48,5.47C227.045,119.646,224.595,122.096,221.565,122.096z"/>
		</g>
		<g>
			<path style="fill:#D4EBF8;" d="M441.237,213.076l-11.126-16.689v-22.415c0.619,0,1.121-0.502,1.121-1.121
				c0-0.619-0.502-1.121-1.121-1.121h-8.966c-0.619,0-1.121,0.502-1.121,1.121c0,0.619,0.502,1.121,1.121,1.121v22.415
				l-11.126,16.689c-0.993,1.49,0.075,3.485,1.865,3.485h27.488C441.162,216.561,442.23,214.566,441.237,213.076z"/>
			<path style="fill:#F9FBFC;" d="M417.861,205.354l-5.293,7.94c-0.293,0.439,0.022,1.026,0.549,1.026h25.021
				c0.527,0,0.842-0.588,0.549-1.026l-5.293-7.94H417.861z"/>
		</g>
		<g>
			
				<linearGradient id="SVGID_00000106837014074288738360000013317017804261478046_" gradientUnits="userSpaceOnUse" x1="86.993" y1="93.4231" x2="120.1014" y2="150.7686">
				<stop  offset="0" style="stop-color:#FBD15B"/>
				<stop  offset="1" style="stop-color:#FE9373"/>
			</linearGradient>
			
				<rect x="74.633" y="100.559" style="fill:url(#SVGID_00000106837014074288738360000013317017804261478046_);" width="57.828" height="43.073"/>
			<g>
				<polyline style="fill:#F9FBFC;" points="93.255,112.118 126.242,112.118 126.242,109.118 93.255,109.118 				"/>
				<polyline style="fill:#F9FBFC;" points="93.255,118.679 126.242,118.679 126.242,115.679 93.255,115.679 				"/>
				<polygon style="fill:#F9FBFC;" points="78.39,113.781 82.343,118.099 88.88,110.311 86.583,108.382 82.245,113.549 
					80.603,111.756 78.39,113.781 				"/>
				<polyline style="fill:#F9FBFC;" points="93.255,125.24 126.242,125.24 126.242,122.24 93.255,122.24 				"/>
				<polyline style="fill:#F9FBFC;" points="93.255,131.801 112.897,131.801 112.897,128.801 93.255,128.801 				"/>
			</g>
		</g>
		<rect x="213.526" y="346.935" style="fill:#E6E7E8;" width="57.828" height="43.073"/>
		<g>
			
				<linearGradient id="SVGID_00000014621403326144870090000009906615735153853837_" gradientUnits="userSpaceOnUse" x1="230.1419" y1="335.5437" x2="263.2504" y2="392.8892">
				<stop  offset="0" style="stop-color:#878CF0"/>
				<stop  offset="1" style="stop-color:#685ED7"/>
			</linearGradient>
			
				<rect x="217.782" y="342.68" style="fill:url(#SVGID_00000014621403326144870090000009906615735153853837_);" width="57.828" height="43.073"/>
			<g>
				<polyline style="fill:#F9FBFC;" points="236.403,354.239 269.391,354.239 269.391,351.239 236.403,351.239 				"/>
				<polyline style="fill:#F9FBFC;" points="236.403,360.799 269.391,360.799 269.391,357.799 236.403,357.799 				"/>
				<polygon style="fill:#F9FBFC;" points="221.539,355.902 225.492,360.219 232.029,352.432 229.732,350.503 225.394,355.67 
					223.752,353.876 221.539,355.902 				"/>
				<polyline style="fill:#F9FBFC;" points="236.403,367.36 269.391,367.36 269.391,364.36 236.403,364.36 				"/>
				<polyline style="fill:#F9FBFC;" points="236.403,373.921 256.046,373.921 256.046,370.921 236.403,370.921 				"/>
			</g>
		</g>
		
			<ellipse transform="matrix(0.2298 -0.9732 0.9732 0.2298 35.5807 246.281)" style="fill:#D4EBF8;" cx="173.385" cy="100.661" rx="7.721" ry="7.721"/>
		
			<ellipse transform="matrix(0.2305 -0.9731 0.9731 0.2305 76.182 664.3743)" style="fill:#D4EBF8;" cx="458.166" cy="284.018" rx="7.721" ry="7.721"/>
		<path style="fill:#D4EBF8;" d="M55.748,196.525c0,2.302-1.866,4.168-4.168,4.168c-2.302,0-4.168-1.866-4.168-4.168
			c0-2.302,1.866-4.168,4.168-4.168C53.882,192.357,55.748,194.223,55.748,196.525z"/>
		<path style="fill:#D4EBF8;" d="M413.807,123.74c0,2.302-1.866,4.168-4.168,4.168c-2.302,0-4.168-1.866-4.168-4.168
			c0-2.302,1.866-4.168,4.168-4.168C411.941,119.572,413.807,121.438,413.807,123.74z"/>
		<g>
			
				<linearGradient id="SVGID_00000172438434236579453650000002645443086868995482_" gradientUnits="userSpaceOnUse" x1="360.0318" y1="167.6967" x2="376.1393" y2="167.6967">
				<stop  offset="0" style="stop-color:#3478FF"/>
				<stop  offset="1" style="stop-color:#482EBD"/>
			</linearGradient>
			<path style="fill:url(#SVGID_00000172438434236579453650000002645443086868995482_);" d="M362.921,169.922h10.329
				c1.596,0,2.889-1.294,2.889-2.889v-1.561h-16.107v1.561C360.032,168.628,361.325,169.922,362.921,169.922z"/>
			
				<radialGradient id="SVGID_00000054959433783768604280000003931301121627291549_" cx="357.6264" cy="108.5334" r="42.6932" gradientUnits="userSpaceOnUse">
				<stop  offset="0" style="stop-color:#FBD15B"/>
				<stop  offset="1" style="stop-color:#FE9373"/>
			</radialGradient>
			<path style="fill:url(#SVGID_00000054959433783768604280000003931301121627291549_);" d="M379.225,144.189
				c1.508-2.693,3.627-5.099,6.284-7.074c7.487-5.53,11.94-14.364,11.94-23.629c0-16.195-13.179-29.374-29.357-29.374
				c-1.113,0-2.226,0.072-3.34,0.18c-13.305,1.472-24.167,12.173-25.801,25.46c-1.329,10.719,3.268,21.277,11.976,27.561
				c2.55,1.831,4.614,4.184,6.051,6.877"/>
			<path style="fill:#F79663;" d="M370.22,144.502l6.013-20.459c0.401-1.365-1.082-2.512-2.303-1.781l-5.838,3.5l-5.855-3.502
				c-1.221-0.73-2.703,0.418-2.301,1.783l6.031,20.46c0.174,0.589,0.792,0.926,1.382,0.753c0.589-0.174,0.926-0.792,0.753-1.382
				l-5.551-18.834l5.544,3.316l5.527-3.313l-5.535,18.832c-0.173,0.589,0.164,1.208,0.754,1.381
				C369.428,145.429,370.047,145.092,370.22,144.502L370.22,144.502z"/>
			
				<linearGradient id="SVGID_00000157994653321996567130000016323335657131028912_" gradientUnits="userSpaceOnUse" x1="353.6105" y1="155.0399" x2="382.5607" y2="155.0399">
				<stop  offset="0" style="stop-color:#3478FF"/>
				<stop  offset="1" style="stop-color:#482EBD"/>
			</linearGradient>
			<path style="fill:url(#SVGID_00000157994653321996567130000016323335657131028912_);" d="M378.382,165.896h-20.593
				c-2.308,0-4.179-1.871-4.179-4.179v-17.534h28.95v17.534C382.561,164.025,380.69,165.896,378.382,165.896z"/>
			
				<linearGradient id="SVGID_00000018197809345454090410000002954927168478653624_" gradientUnits="userSpaceOnUse" x1="353.0491" y1="154.3871" x2="383.122" y2="154.3871">
				<stop  offset="0" style="stop-color:#435DF1"/>
				<stop  offset="0.327" style="stop-color:#4333F1"/>
				<stop  offset="1" style="stop-color:#4C008C"/>
			</linearGradient>
			<path style="fill:url(#SVGID_00000018197809345454090410000002954927168478653624_);" d="M353.049,157.82h30.073v-2.503h-30.073
				V157.82z M353.049,162.183h30.073v-2.503h-30.073V162.183z M353.049,153.457h30.073v-2.503h-30.073V153.457z M353.049,146.591
				v2.503h30.073v-2.503H353.049z"/>
		</g>
		<g>
			<rect x="181.788" y="326.357" style="fill:#56548C;" width="4.911" height="7.806"/>
			<path style="fill:#56548C;" d="M191.508,327.877h-14.527c-1.581,0-2.863-1.282-2.863-2.863v-0.487
				c0-1.581,1.282-2.862,2.863-2.862h14.527c1.581,0,2.862,1.282,2.862,2.862v0.487C194.37,326.596,193.088,327.877,191.508,327.877
				z"/>
			<rect x="180.341" y="329.447" style="fill:#FBD15B;" width="7.806" height="7.806"/>
			
				<linearGradient id="SVGID_00000101105746230670546460000000892535771167825548_" gradientUnits="userSpaceOnUse" x1="162.0407" y1="337.3204" x2="206.4475" y2="414.2353">
				<stop  offset="0" style="stop-color:#FBD15B"/>
				<stop  offset="1" style="stop-color:#FE9373"/>
			</linearGradient>
			<circle style="fill:url(#SVGID_00000101105746230670546460000000892535771167825548_);" cx="184.244" cy="375.778" r="44.399"/>
			<circle style="fill:#B1B2F3;" cx="184.244" cy="375.778" r="37.31"/>
			<circle style="fill:#F9FBFC;" cx="184.244" cy="375.778" r="35.541"/>
			<path style="fill:#56548C;" d="M189.611,375.778c0,2.964-2.403,5.367-5.367,5.367c-2.964,0-5.367-2.403-5.367-5.367
				c0-2.964,2.403-5.367,5.367-5.367C187.208,370.411,189.611,372.814,189.611,375.778z"/>
			<path style="fill:#56548C;" d="M184.38,379.193h-0.272c-0.954,0-1.734-0.78-1.734-1.734v-26.782c0-0.954,0.78-1.734,1.734-1.734
				h0.272c0.954,0,1.734,0.781,1.734,1.734v26.782C186.114,378.413,185.334,379.193,184.38,379.193z"/>
			<g>
				<circle style="fill:#B1B2F3;" cx="184.244" cy="344.311" r="1.992"/>
				<circle style="fill:#B1B2F3;" cx="184.244" cy="407.244" r="1.992"/>
			</g>
			<g>
				<path style="fill:#B1B2F3;" d="M152.778,373.786c1.1,0,1.992,0.892,1.992,1.992c0,1.1-0.892,1.992-1.992,1.992
					c-1.1,0-1.992-0.892-1.992-1.992C150.786,374.678,151.678,373.786,152.778,373.786z"/>
				<circle style="fill:#B1B2F3;" cx="215.711" cy="375.778" r="1.992"/>
			</g>
		</g>
	</g>
</g>
<g id="Designed_By_Freepik">
	<g>
		<g id="XMLID_1_">
			<g id="XMLID_24_">
				<path id="XMLID_32_" style="fill:#A5B7C6;" d="M260.104,467.949c-0.432,0.443-0.803,0.931-1.108,1.453l-0.465-0.241
					c-0.067-0.298-0.349-0.503-0.659-0.466c-0.331,0.039-0.568,0.339-0.529,0.67c0.039,0.331,0.339,0.568,0.67,0.529
					c0.066-0.008,0.127-0.026,0.184-0.052l0.451,0.234c-0.251,0.554-0.433,1.139-0.539,1.744l0.747,0.132
					c0.23-1.306,0.85-2.507,1.792-3.473L260.104,467.949z"/>
				<path id="XMLID_31_" style="fill:#A5B7C6;" d="M265.592,465.647c-0.171,0-0.341,0.006-0.51,0.017l-0.074-0.626
					c0.188-0.149,0.296-0.389,0.266-0.645c-0.046-0.393-0.402-0.674-0.795-0.628c-0.393,0.046-0.674,0.402-0.628,0.795
					c0.03,0.254,0.189,0.461,0.404,0.564l0.074,0.624c-0.714,0.116-1.403,0.332-2.06,0.646l0.327,0.684
					c0.934-0.447,1.942-0.673,2.995-0.673c0.496,0,0.993,0.053,1.475,0.158l0.161-0.741
					C266.692,465.706,266.142,465.647,265.592,465.647z"/>
				<path id="XMLID_30_" style="fill:#A5B7C6;" d="M272.194,468.194c0.331-0.04,0.566-0.342,0.526-0.672
					c-0.04-0.331-0.341-0.566-0.672-0.526c-0.309,0.038-0.535,0.304-0.53,0.609l-0.416,0.363c-0.418-0.43-0.889-0.813-1.408-1.139
					l-0.404,0.641c1.134,0.715,2.021,1.726,2.563,2.925l0.691-0.313c-0.251-0.554-0.568-1.072-0.942-1.545l0.402-0.351
					C272.065,468.199,272.129,468.202,272.194,468.194z"/>
				<path id="XMLID_29_" style="fill:#A5B7C6;" d="M265.044,475.855c-0.386,0.023-0.775,0.035-1.157,0.035
					c-0.88,0-1.733-0.061-2.478-0.179c-0.39-0.062-0.846-0.155-1.27-0.292c1.046,1.861,3.069,3.125,5.388,3.125
					c2.855,0,5.262-1.916,5.95-4.504c-0.682,0.449-1.505,0.825-2.459,1.123C267.839,475.53,266.463,475.77,265.044,475.855z"/>
				<path id="XMLID_25_" style="fill:#A5B7C6;" d="M265.592,467.163c-3.352,0-6.08,2.666-6.08,5.943
					c0,0.426,0.046,0.849,0.137,1.261c0.673,0.483,2.706,0.89,5.348,0.731c2.879-0.173,5.297-0.957,6.672-2.159
					c-0.006-0.195-0.021-0.39-0.045-0.582C271.244,469.396,268.65,467.163,265.592,467.163z M263.432,473.678
					c-1.02,0-1.85-0.83-1.85-1.85c0-1.02,0.83-1.85,1.85-1.85c1.02,0,1.85,0.83,1.85,1.85
					C265.282,472.848,264.452,473.678,263.432,473.678z M268.17,472.769c-0.75,0-1.36-0.61-1.36-1.36c0-0.75,0.61-1.361,1.36-1.361
					c0.75,0,1.361,0.61,1.361,1.361C269.53,472.159,268.92,472.769,268.17,472.769z"/>
			</g>
			<path id="XMLID_22_" style="fill:#A5B7C6;" d="M281.595,469.03c-0.295-0.116-0.805-0.309-1.382-0.237
				c-0.551,0.069-0.844,0.341-0.844,1.007v0.866h2.228v1.717h-2.228v5.455h-1.932v-5.455h-1.34v-1.717h1.34v-0.888
				c0-1.68,0.896-2.783,2.568-2.783c0.642,0,1.157,0.122,1.59,0.308L281.595,469.03z"/>
			<path id="XMLID_20_" style="fill:#A5B7C6;" d="M286.298,472.362c-0.177-0.03-0.358-0.046-0.526-0.046
				c-0.896,0-1.51,0.548-1.51,1.613v3.908h-1.932v-7.172h1.873v0.785c0.451-0.673,1.14-0.977,2.021-0.977
				c0.414,0,0.848,0.128,1.094,0.337L286.298,472.362z"/>
			<path id="XMLID_16_" style="fill:#A5B7C6;" d="M293.965,474.24c0,0.222-0.015,0.489-0.037,0.651h-5.085
				c0.207,1.036,0.933,1.488,1.843,1.488c0.622,0,1.295-0.252,1.813-0.688l1.133,1.243c-0.814,0.748-1.85,1.088-3.057,1.088
				c-2.198,0-3.723-1.495-3.723-3.753c0-2.258,1.48-3.797,3.627-3.797C292.544,470.473,293.958,472.005,293.965,474.24z
				 M288.851,473.574h3.175c-0.177-0.918-0.733-1.436-1.562-1.436C289.554,472.138,289.021,472.686,288.851,473.574z"/>
			<path id="XMLID_13_" style="fill:#A5B7C6;" d="M301.618,474.24c0,0.222-0.015,0.489-0.037,0.651h-5.085
				c0.207,1.036,0.932,1.488,1.843,1.488c0.622,0,1.295-0.252,1.814-0.688l1.132,1.243c-0.814,0.748-1.85,1.088-3.057,1.088
				c-2.198,0-3.723-1.495-3.723-3.753c0-2.258,1.48-3.797,3.626-3.797C300.197,470.473,301.611,472.005,301.618,474.24z
				 M296.504,473.574h3.175c-0.178-0.918-0.733-1.436-1.562-1.436C297.207,472.138,296.674,472.686,296.504,473.574z"/>
			<path id="XMLID_8_" style="fill:#A5B7C6;" d="M309.964,474.248c0,2.154-1.495,3.775-3.471,3.775
				c-0.962,0-1.643-0.378-2.109-0.933v3.708h-1.924v-10.133h1.887v0.792c0.466-0.585,1.155-0.984,2.139-0.984
				C308.469,470.473,309.964,472.094,309.964,474.248z M304.287,474.248c0,1.132,0.748,1.976,1.843,1.976
				c1.14,0,1.85-0.881,1.85-1.976c0-1.095-0.71-1.976-1.85-1.976C305.035,472.271,304.287,473.115,304.287,474.248z"/>
			<path id="XMLID_5_" style="fill:#A5B7C6;" d="M313.068,468.319c0,0.696-0.54,1.229-1.236,1.229c-0.696,0-1.229-0.533-1.229-1.229
				c0-0.696,0.533-1.243,1.229-1.243C312.527,467.076,313.068,467.623,313.068,468.319z M312.809,477.837h-1.932v-7.172h1.932
				V477.837z"/>
			<path id="XMLID_2_" style="fill:#A5B7C6;" d="M316.032,473.219l2.702-2.554h2.368l-3.479,3.375l3.501,3.797h-2.376l-2.716-2.901
				v2.901H314.1v-10.658h1.932V473.219z"/>
		</g>
		<g>
			<path style="fill:#A5B7C6;" d="M184.412,477.772v-1.055c-0.527,0.718-1.391,1.23-2.387,1.23c-1.846,0-3.149-1.406-3.149-3.706
				c0-2.256,1.289-3.721,3.149-3.721c0.952,0,1.816,0.469,2.387,1.245v-3.765h1.099v9.77H184.412z M184.412,475.853v-3.208
				c-0.395-0.615-1.245-1.143-2.124-1.143c-1.421,0-2.27,1.172-2.27,2.739c0,1.567,0.85,2.724,2.27,2.724
				C183.167,476.967,184.017,476.469,184.412,475.853z"/>
			<path style="fill:#A5B7C6;" d="M186.932,474.228c0-2.051,1.465-3.706,3.486-3.706c2.139,0,3.398,1.67,3.398,3.794v0.279h-5.727
				c0.088,1.333,1.025,2.446,2.549,2.446c0.805,0,1.626-0.322,2.182-0.893l0.527,0.718c-0.703,0.703-1.655,1.084-2.812,1.084
				C188.44,477.948,186.932,476.439,186.932,474.228z M190.403,471.43c-1.509,0-2.256,1.274-2.314,2.358h4.643
				C192.718,472.733,192.014,471.43,190.403,471.43z"/>
			<path style="fill:#A5B7C6;" d="M194.607,476.835l0.571-0.791c0.469,0.542,1.362,1.011,2.329,1.011c1.084,0,1.67-0.513,1.67-1.216
				c0-1.714-4.38-0.659-4.38-3.281c0-1.098,0.952-2.036,2.636-2.036c1.201,0,2.051,0.454,2.622,1.025l-0.513,0.762
				c-0.424-0.513-1.201-0.894-2.109-0.894c-0.967,0-1.567,0.483-1.567,1.113c0,1.552,4.38,0.527,4.38,3.281
				c0,1.187-0.952,2.138-2.783,2.138C196.306,477.948,195.324,477.596,194.607,476.835z"/>
			<path style="fill:#A5B7C6;" d="M201.477,468.954c0-0.41,0.337-0.747,0.732-0.747c0.41,0,0.747,0.337,0.747,0.747
				c0,0.41-0.337,0.732-0.747,0.732C201.814,469.686,201.477,469.365,201.477,468.954z M201.667,477.772v-7.075h1.099v7.075H201.667
				z"/>
			<path style="fill:#A5B7C6;" d="M204.582,479.589l0.556-0.82c0.586,0.703,1.289,0.967,2.3,0.967c1.172,0,2.27-0.571,2.27-2.124
				V476.6c-0.513,0.718-1.377,1.26-2.373,1.26c-1.845,0-3.149-1.377-3.149-3.662c0-2.27,1.289-3.676,3.149-3.676
				c0.952,0,1.802,0.469,2.373,1.245v-1.069h1.098v6.87c0,2.344-1.641,3.076-3.369,3.076
				C206.237,480.643,205.417,480.409,204.582,479.589z M209.709,475.736v-3.091c-0.381-0.615-1.231-1.143-2.109-1.143
				c-1.421,0-2.27,1.128-2.27,2.695c0,1.553,0.849,2.695,2.27,2.695C208.478,476.893,209.328,476.352,209.709,475.736z"/>
			<path style="fill:#A5B7C6;" d="M217.413,477.772v-4.629c0-1.245-0.63-1.641-1.582-1.641c-0.865,0-1.685,0.527-2.095,1.099v5.17
				h-1.099v-7.075h1.099v1.025c0.498-0.586,1.465-1.201,2.519-1.201c1.48,0,2.256,0.747,2.256,2.285v4.966H217.413z"/>
			<path style="fill:#A5B7C6;" d="M219.932,474.228c0-2.051,1.465-3.706,3.486-3.706c2.138,0,3.398,1.67,3.398,3.794v0.279h-5.727
				c0.088,1.333,1.025,2.446,2.549,2.446c0.806,0,1.626-0.322,2.183-0.893l0.527,0.718c-0.703,0.703-1.655,1.084-2.812,1.084
				C221.441,477.948,219.932,476.439,219.932,474.228z M223.404,471.43c-1.509,0-2.256,1.274-2.314,2.358h4.643
				C225.718,472.733,225.015,471.43,223.404,471.43z"/>
			<path style="fill:#A5B7C6;" d="M233.35,477.772v-1.055c-0.527,0.718-1.392,1.23-2.388,1.23c-1.846,0-3.149-1.406-3.149-3.706
				c0-2.256,1.289-3.721,3.149-3.721c0.952,0,1.817,0.469,2.388,1.245v-3.765h1.098v9.77H233.35z M233.35,475.853v-3.208
				c-0.396-0.615-1.245-1.143-2.124-1.143c-1.421,0-2.27,1.172-2.27,2.739c0,1.567,0.849,2.724,2.27,2.724
				C232.105,476.967,232.954,476.469,233.35,475.853z"/>
			<path style="fill:#A5B7C6;" d="M239.692,477.772v-9.77h1.098v3.765c0.572-0.776,1.421-1.245,2.388-1.245
				c1.845,0,3.149,1.465,3.149,3.721c0,2.299-1.304,3.706-3.149,3.706c-0.996,0-1.86-0.513-2.388-1.23v1.055H239.692z
				 M242.9,476.967c1.436,0,2.285-1.157,2.285-2.724c0-1.568-0.85-2.739-2.285-2.739c-0.864,0-1.728,0.527-2.109,1.143v3.208
				C241.171,476.469,242.036,476.967,242.9,476.967z"/>
			<path style="fill:#A5B7C6;" d="M247.528,479.545c0.161,0.073,0.425,0.117,0.601,0.117c0.483,0,0.806-0.161,1.055-0.747
				l0.469-1.069l-2.959-7.148h1.187l2.358,5.801l2.344-5.801h1.201l-3.545,8.51c-0.425,1.025-1.143,1.421-2.08,1.435
				c-0.234,0-0.601-0.044-0.806-0.103L247.528,479.545z"/>
		</g>
	</g>
</g>
</svg>
